  0
SECTION
  2
HEADER
  9
$ACADVER
  1
AC1009
  9
$INSBASE
 10
0.0
 20
0.0
 30
0.0
  9
$EXTMIN
 10
0.0
 20
0.0
 30
0.0
  9
$EXTMAX
 10
0.0
 20
0.0
 30
0.0
  0
ENDSEC
  0
SECTION
  2
TABLES
  0
TABLE
  2
VPORT
 70
0
  0
ENDTAB
  0
TABLE
  2
LTYPE
 70
1
  0
LTYPE
  2
CONTINUOUS
 70
0
  3
Solid line
 72
65
 73
0
 40
0.0
  0
ENDTAB
  0
TABLE
  2
LAYER
 70
1
  0
LAYER
  2
0
 70
64
 62
7
  6
continuous
  0
ENDTAB
  0
TABLE
  2
STYLE
 70
1
  0
STYLE
  2
STANDARD
 70
0
 40
0
 41
1.0
 50
0.0
 71
0
 42
1
 3
ARIAL.TTF
 4

  0
ENDTAB
  0
TABLE
  2
VIEW
 70
0
  0
ENDTAB
  0
ENDSEC
  0
SECTION
  2
BLOCKS
  0
BLOCK
  8
0
  2
FUSION
 70
0
 10
0.0
 20
0.0
 30
0.0
  3
FUSION
  0
LINE
  8
0
 62
0
 10
-100.00000000000001
 20
40.00000000000015
 30
0.0
 11
-100.00000000000001
 21
80.0
 31
0.0
  0
ARC
  8
0
 62
0
 10
-97.50000000000001
 20
40.00000000000015
 30
0.0
 40
2.5
 50
-180.0
 51
-90.0
  0
ARC
  8
0
 62
0
 10
-97.50000000000001
 20
80.0
 30
0.0
 40
2.5
 50
90.0
 51
-180.0
  0
CIRCLE
  8
0
 62
0
 10
44.00000000000001
 20
44.0
 30
0.0
 40
2.6
  0
CIRCLE
  8
0
 62
0
 10
44.00000000000001
 20
76.0
 30
0.0
 40
2.6
  0
CIRCLE
  8
0
 62
0
 10
-44.00000000000001
 20
44.0
 30
0.0
 40
2.6
  0
CIRCLE
  8
0
 62
0
 10
-44.00000000000001
 20
76.0
 30
0.0
 40
2.6
  0
CIRCLE
  8
0
 62
0
 10
80.0
 20
44.0
 30
0.0
 40
2.6
  0
CIRCLE
  8
0
 62
0
 10
80.0
 20
76.0
 30
0.0
 40
2.6
  0
CIRCLE
  8
0
 62
0
 10
-80.0
 20
44.0
 30
0.0
 40
2.6
  0
CIRCLE
  8
0
 62
0
 10
-80.0
 20
76.0
 30
0.0
 40
2.6
  0
LINE
  8
0
 62
0
 10
-97.50000000000001
 20
82.5
 30
0.0
 11
97.49999999999999
 21
82.5
 31
0.0
  0
ARC
  8
0
 62
0
 10
97.49999999999999
 20
80.0
 30
0.0
 40
2.5
 50
-0.0
 51
90.00000000000033
  0
LINE
  8
0
 62
0
 10
99.99999999999999
 20
80.0
 30
0.0
 11
99.99999999999999
 21
40.00000000000022
 31
0.0
  0
ARC
  8
0
 62
0
 10
97.49999999999999
 20
40.00000000000023
 30
0.0
 40
2.5
 50
-90.0
 51
-0.0
  0
LINE
  8
0
 62
0
 10
97.49999999999999
 20
37.50000000000023
 30
0.0
 11
-97.50000000000001
 21
37.500000000000156
 31
0.0
  0
CIRCLE
  8
0
 62
0
 10
80.0
 20
44.0
 30
0.0
 40
4.5
  0
CIRCLE
  8
0
 62
0
 10
44.0
 20
44.0
 30
0.0
 40
4.5
  0
CIRCLE
  8
0
 62
0
 10
80.0
 20
76.0
 30
0.0
 40
4.5
  0
CIRCLE
  8
0
 62
0
 10
44.0
 20
76.0
 30
0.0
 40
4.5
  0
CIRCLE
  8
0
 62
0
 10
-44.0
 20
44.0
 30
0.0
 40
4.5
  0
CIRCLE
  8
0
 62
0
 10
-80.0
 20
44.0
 30
0.0
 40
4.5
  0
CIRCLE
  8
0
 62
0
 10
-44.0
 20
76.0
 30
0.0
 40
4.5
  0
CIRCLE
  8
0
 62
0
 10
-80.0
 20
76.0
 30
0.0
 40
4.5
  0
CIRCLE
  8
0
 62
0
 10
-20.0
 20
70.0
 30
0.0
 40
2.5
  0
CIRCLE
  8
0
 62
0
 10
0.0
 20
50.0
 30
0.0
 40
2.5
  0
CIRCLE
  8
0
 62
0
 10
20.0
 20
70.0
 30
0.0
 40
2.5
  0
CIRCLE
  8
0
 62
0
 10
-90.0
 20
50.0
 30
0.0
 40
2.5
  0
CIRCLE
  8
0
 62
0
 10
90.0
 20
50.0
 30
0.0
 40
2.5
  0
CIRCLE
  8
0
 62
0
 10
90.0
 20
70.0
 30
0.0
 40
2.5
  0
CIRCLE
  8
0
 62
0
 10
-90.0
 20
70.0
 30
0.0
 40
2.5
  0
ENDBLK
  0
ENDSEC
  0
SECTION
  2
ENTITIES
  0
INSERT
  2
FUSION
  8
0
 62
0
 10
0.0
 20
0.0
 30
0.0
  0
ENDSEC
  0
EOF
