999
FreeCAD v0.19 24291 (Git)
  0
SECTION
  2
HEADER
  9
$ACADVER
  1
AC1014
  9
$ACADMAINTVER
 70
     9
  9
$DWGCODEPAGE
  3
ANSI_1252
  9
$TEXTSTYLE
  7
STANDARD
  9
$DIMSTYLE
  2
STANDARD
  9
$DIMTXSTY
  7
STANDARD
  9
$CMLSTYLE
  2
STANDARD
  9
$PEXTMAX
 10
50
 20
50
 30
50
  9
$PEXTMIN
 10
0
 20
0
 30
0
  9
$HANDSEED
  5
FFFF
  0
ENDSEC
  0
SECTION
  2
CLASSES
  0
CLASS
  1
ACDBDICTIONARYWDFLT
  2
AcDbDictionaryWithDefault
  3
ObjectDBX Classes
 90
        0
280
     0
281
     0
  0
CLASS
  1
XRECORD
  2
AcDbXrecord
  3
ObjectDBX Classes
 90
        0
280
     0
281
     0
  0
CLASS
  1
LWPOLYLINE
  2
AcDbPolyline
  3
ObjectDBX Classes
 90
        0
280
     0
281
     1
  0
ENDSEC
  0
SECTION
  2
TABLES
  0
TABLE
  2
VPORT
  5
20
330
0
100
AcDbSymbolTable
 70
     1
  0
VPORT
  5
21
330
20
100
AcDbSymbolTableRecord
100
AcDbViewportTableRecord
  2
*ACTIVE
 70
     0
  0
ENDTAB
  0
TABLE
  2
LTYPE
  5
22
330
0
100
AcDbSymbolTable
 70
     1
  0
LTYPE
  5
23
330
21
100
AcDbSymbolTableRecord
100
AcDbLinetypeTableRecord
  2
BYBLOCK
 70
     0
  3

 72
    65
 73
     0
 40
0.0
  0
LTYPE
  5
24
330
21
100
AcDbSymbolTableRecord
100
AcDbLinetypeTableRecord
  2
BYLAYER
 70
     0
  3

 72
    65
 73
     0
 40
0.0
  0
LTYPE
  5
25
330
21
100
AcDbSymbolTableRecord
100
AcDbLinetypeTableRecord
  2
CONTINUOUS
 70
     0
  3
Solid line
 72
    65
 73
     0
 40
0.0
  0
ENDTAB
  0
TABLE
  2
LAYER
  5
B9A
330
0
100
AcDbSymbolTable
 70
3
  0
LAYER
  5
B9B
330
B9A
100
AcDbSymbolTableRecord
100
AcDbLayerTableRecord
  2
0
 70
   0
 62
   7
  6
CONTINUOUS
  0
LAYER
  5
B9C
330
B9A
100
AcDbSymbolTableRecord
100
AcDbLayerTableRecord
  2
none
 70
    0
 62
    7
  6
CONTINUOUS
  0
LAYER
  5
B9D
330
B9A
100
AcDbSymbolTableRecord
100
AcDbLayerTableRecord
  2
Fusion002
 70
    0
 62
    7
  6
CONTINUOUS
  0
ENDTAB
  0
TABLE
  2
STYLE
  5
70
330
0
100
AcDbSymbolTable
 70
     2
  0
STYLE
  5
71
330
70
100
AcDbSymbolTableRecord
100
AcDbTextStyleTableRecord
  2
STANDARD
 70
     0
 40
0.0
 41
1.0
 50
0.0
 71
     0
 42
2.5
  3
arial.ttf
  4

  0
STYLE
  5
72
330
70
100
AcDbSymbolTableRecord
100
AcDbTextStyleTableRecord
  2
ANNOTATIVE
 70
     0
 40
0.0
 41
1.0
 50
0.0
 71
     0
 42
2.5
  3
arial.ttf
  4

  0
ENDTAB
  0
TABLE
  2
VIEW
  5
73
330
0
100
AcDbSymbolTable
 70
     0
  0
ENDTAB
  0
TABLE
  2
UCS
  5
74
330
0
100
AcDbSymbolTable
 70
     0
  0
ENDTAB
  0
TABLE
  2
APPID
  5
75
330
0
100
AcDbSymbolTable
 70
     2
  0
APPID
  5
76
330
75
100
AcDbSymbolTableRecord
100
AcDbRegAppTableRecord
  2
ACAD
 70
     0
  0
APPID
  5
77
330
75
100
AcDbSymbolTableRecord
100
AcDbRegAppTableRecord
  2
ACADANNOTATIVE
 70
     0
  0
ENDTAB
  0
TABLE
  2
DIMSTYLE
  5
78
330
0
100
AcDbSymbolTable
 70
     2
  0
DIMSTYLE
105
79
330
78
100
AcDbSymbolTableRecord
100
AcDbDimStyleTableRecord
  2
STANDARD
 70
     0
  3

  4

  5

  6

  7

 40
0.0
 41
2.5
 42
0.625
 43
3.75
 44
1.25
 45
0.0
 46
0.0
 47
0.0
 48
0.0
140
2.5
141
2.5
142
0.0
143
0.03937007874016
144
1.0
145
0.0
146
1.0
147
0.625
 71
     0
 72
     0
 73
     0
 74
     0
 75
     0
 76
     0
 77
     1
 78
     8
170
     0
171
     3
172
     1
173
     0
174
     0
175
     0
176
     0
177
     0
178
     0
270
     2
271
     2
272
     2
273
     2
274
     3
340
71
275
     0
280
     0
281
     0
282
     0
283
     0
284
     8
285
     0
286
     0
287
     3
288
     0
  0
ENDTAB
  0
TABLE
  2
BLOCK_RECORD
  5
A01
330
0
100
AcDbSymbolTable
  70
5
  0
BLOCK_RECORD
  5
A02
330
A01
100
AcDbSymbolTableRecord
100
AcDbBlockTableRecord
  2
*MODEL_SPACE
  0
BLOCK_RECORD
  5
A03
330
A01
100
AcDbSymbolTableRecord
100
AcDbBlockTableRecord
  2
*PAPER_SPACE
  0
ENDTAB
  0
ENDSEC
  0
SECTION
  2
BLOCKS
  0
BLOCK
  5
A04
330
A02
100
AcDbEntity
  8
0
100
AcDbBlockBegin
  2
*MODEL_SPACE
 70
   0
 10
0
 20
0
 30
0
  3
*MODEL_SPACE
  1
 
  0
ENDBLK
  5
A05
330
A02
100
AcDbEntity
  8
0
100
AcDbBlockEnd
  0
BLOCK
  5
A06
330
A03
100
AcDbEntity
 67
1
  8
0
100
AcDbBlockBegin
  2
*PAPER_SPACE
 70
   0
 10
0
 20
0
 30
0
  3
*PAPER_SPACE
  1
 
  0
ENDBLK
  5
A07
330
A03
100
AcDbEntity
 67
    1
  8
0
100
AcDbBlockEnd
  0
ENDSEC
  0
SECTION
  2
ENTITIES
  0
ARC
  5
A08
330
A02
100
AcDbEntity
  8
Fusion002
100
AcDbCircle
 10
-4.44089e-15
 20
20
 30
1.55591e-14
 40
20
100
AcDbArc
 50
-90
 51
-68.542
  0
LINE
  5
A09
330
A02
100
AcDbEntity
  8
Fusion002
100
AcDbLine
 10
-155
 20
-3.44169e-14
 30
-3.44169e-14
 11
0
 21
0
 31
0
  0
ARC
  5
A0A
330
A02
100
AcDbEntity
  8
Fusion002
100
AcDbCircle
 10
-155
 20
5
 30
-3.05271e-14
 40
5
100
AcDbArc
 50
-180
 51
-90
  0
LINE
  5
A0B
330
A02
100
AcDbEntity
  8
Fusion002
100
AcDbLine
 10
-160
 20
5
 30
-3.16374e-14
 11
-160
 21
135
 31
6.94968e-14
  0
ARC
  5
A0C
330
A02
100
AcDbEntity
  8
Fusion002
100
AcDbCircle
 10
-140
 20
135
 30
7.39377e-14
 40
20
100
AcDbArc
 50
109.835
 51
180
  0
LINE
  5
A0D
330
A02
100
AcDbEntity
  8
Fusion002
100
AcDbLine
 10
-146.786
 20
153.814
 30
8.7067e-14
 11
255.204
 21
298.814
 31
2.8913e-13
  0
ARC
  5
A0E
330
A02
100
AcDbEntity
  8
Fusion002
100
AcDbCircle
 10
261.99
 20
280
 30
2.76001e-13
 40
20
100
AcDbArc
 50
90
 51
109.835
  0
LINE
  5
A0F
330
A02
100
AcDbEntity
  8
Fusion002
100
AcDbLine
 10
341.99
 20
300
 30
3.09324e-13
 11
261.99
 21
300
 31
2.9156e-13
  0
ARC
  5
A10
330
A02
100
AcDbEntity
  8
Fusion002
100
AcDbCircle
 10
341.99
 20
280
 30
2.93765e-13
 40
20
100
AcDbArc
 50
25.7772
 51
90
  0
LINE
  5
A11
330
A02
100
AcDbEntity
  8
Fusion002
100
AcDbLine
 10
388.01
 20
230.697
 30
2.65628e-13
 11
360
 21
288.697
 31
3.0453e-13
  0
ARC
  5
A12
330
A02
100
AcDbEntity
  8
Fusion002
100
AcDbCircle
 10
370
 20
222
 30
2.54863e-13
 40
20
100
AcDbArc
 50
0
 51
25.7772
  0
LINE
  5
A13
330
A02
100
AcDbEntity
  8
Fusion002
100
AcDbLine
 10
390
 20
178
 30
2.25073e-13
 11
390
 21
222
 31
2.59303e-13
  0
ARC
  5
A14
330
A02
100
AcDbEntity
  8
Fusion002
100
AcDbCircle
 10
370
 20
178
 30
2.20633e-13
 40
20
100
AcDbArc
 50
-25.7772
 51
0
  0
LINE
  5
A15
330
A02
100
AcDbEntity
  8
Fusion002
100
AcDbLine
 10
360
 20
111.303
 30
1.66524e-13
 11
388.01
 21
169.303
 31
2.17865e-13
  0
ARC
  5
A16
330
A02
100
AcDbEntity
  8
Fusion002
100
AcDbCircle
 10
341.99
 20
120
 30
1.69292e-13
 40
20
100
AcDbArc
 50
-90
 51
-25.7772
  0
LINE
  5
A17
330
A02
100
AcDbEntity
  8
Fusion002
100
AcDbLine
 10
341.99
 20
100
 30
1.53733e-13
 11
261.99
 21
100
 31
1.35969e-13
  0
ARC
  5
A18
330
A02
100
AcDbEntity
  8
Fusion002
100
AcDbCircle
 10
261.99
 20
80
 30
1.2041e-13
 40
20
100
AcDbArc
 50
90
 51
111.458
  0
LINE
  5
A19
330
A02
100
AcDbEntity
  8
Fusion002
100
AcDbLine
 10
7.31639
 20
1.38628
 30
2.70303e-15
 11
254.674
 21
98.6137
 31
1.33266e-13
  0
CIRCLE
  5
A1A
330
A02
100
AcDbEntity
  8
Fusion002
100
AcDbCircle
 10
-80
 20
105
 40
18.25
  0
CIRCLE
  5
A1B
330
A02
100
AcDbEntity
  8
Fusion002
100
AcDbCircle
 10
-20
 20
20
 40
4.1
  0
CIRCLE
  5
A1C
330
A02
100
AcDbEntity
  8
Fusion002
100
AcDbCircle
 10
-20
 20
60
 40
4.1
  0
CIRCLE
  5
A1D
330
A02
100
AcDbEntity
  8
Fusion002
100
AcDbCircle
 10
-60
 20
20
 40
4.1
  0
CIRCLE
  5
A1E
330
A02
100
AcDbEntity
  8
Fusion002
100
AcDbCircle
 10
-60
 20
60
 40
4.1
  0
CIRCLE
  5
A1F
330
A02
100
AcDbEntity
  8
Fusion002
100
AcDbCircle
 10
-140
 20
20
 40
4.1
  0
CIRCLE
  5
A20
330
A02
100
AcDbEntity
  8
Fusion002
100
AcDbCircle
 10
-100
 20
20
 40
4.1
  0
CIRCLE
  5
A21
330
A02
100
AcDbEntity
  8
Fusion002
100
AcDbCircle
 10
-140
 20
60
 40
4.1
  0
CIRCLE
  5
A22
330
A02
100
AcDbEntity
  8
Fusion002
100
AcDbCircle
 10
-100
 20
60
 40
4.1
  0
CIRCLE
  5
A23
330
A02
100
AcDbEntity
  8
Fusion002
100
AcDbCircle
 10
333.5
 20
280
 40
3.1
  0
CIRCLE
  5
A24
330
A02
100
AcDbEntity
  8
Fusion002
100
AcDbCircle
 10
280.5
 20
280
 40
3.1
  0
CIRCLE
  5
A25
330
A02
100
AcDbEntity
  8
Fusion002
100
AcDbCircle
 10
333.5
 20
240
 40
3.1
  0
CIRCLE
  5
A26
330
A02
100
AcDbEntity
  8
Fusion002
100
AcDbCircle
 10
280.5
 20
240
 40
3.1
  0
CIRCLE
  5
A27
330
A02
100
AcDbEntity
  8
Fusion002
100
AcDbCircle
 10
333.5
 20
160
 40
3.1
  0
CIRCLE
  5
A28
330
A02
100
AcDbEntity
  8
Fusion002
100
AcDbCircle
 10
333.5
 20
120
 40
3.1
  0
CIRCLE
  5
A29
330
A02
100
AcDbEntity
  8
Fusion002
100
AcDbCircle
 10
280.5
 20
160
 40
3.1
  0
CIRCLE
  5
A2A
330
A02
100
AcDbEntity
  8
Fusion002
100
AcDbCircle
 10
280.5
 20
120
 40
3.1
  0
CIRCLE
  5
A2B
330
A02
100
AcDbEntity
  8
Fusion002
100
AcDbCircle
 10
380
 20
212
 40
2.6
  0
CIRCLE
  5
A2C
330
A02
100
AcDbEntity
  8
Fusion002
100
AcDbCircle
 10
380
 20
188
 40
2.6
  0
CIRCLE
  5
A2D
330
A02
100
AcDbEntity
  8
Fusion002
100
AcDbCircle
 10
340
 20
212
 40
2.6
  0
CIRCLE
  5
A2E
330
A02
100
AcDbEntity
  8
Fusion002
100
AcDbCircle
 10
340
 20
188
 40
2.6
  0
CIRCLE
  5
A2F
330
A02
100
AcDbEntity
  8
Fusion002
100
AcDbCircle
 10
-80
 20
84
 40
1.65
  0
CIRCLE
  5
A30
330
A02
100
AcDbEntity
  8
Fusion002
100
AcDbCircle
 10
-80
 20
126
 40
1.65
  0
CIRCLE
  5
A31
330
A02
100
AcDbEntity
  8
Fusion002
100
AcDbCircle
 10
-101
 20
105
 40
1.65
  0
CIRCLE
  5
A32
330
A02
100
AcDbEntity
  8
Fusion002
100
AcDbCircle
 10
-95.5563
 20
120.556
 40
1.65
  0
CIRCLE
  5
A33
330
A02
100
AcDbEntity
  8
Fusion002
100
AcDbCircle
 10
-95.5563
 20
89.4437
 40
1.65
  0
CIRCLE
  5
A34
330
A02
100
AcDbEntity
  8
Fusion002
100
AcDbCircle
 10
-64.4437
 20
120.556
 40
1.65
  0
CIRCLE
  5
A35
330
A02
100
AcDbEntity
  8
Fusion002
100
AcDbCircle
 10
-64.4437
 20
89.4437
 40
1.65
  0
CIRCLE
  5
A36
330
A02
100
AcDbEntity
  8
Fusion002
100
AcDbCircle
 10
-59
 20
105
 40
1.65
  0
LINE
  5
A37
330
A02
100
AcDbEntity
  8
Fusion002
100
AcDbLine
 10
-20
 20
24.1
 30
1.43078e-14
 11
-20
 21
24.1
 31
19.5
  0
LINE
  5
A38
330
A02
100
AcDbEntity
  8
Fusion002
100
AcDbLine
 10
-20
 20
24.1
 30
1.43078e-14
 11
-20
 21
24.1
 31
19.5
  0
CIRCLE
  5
A39
330
A02
100
AcDbEntity
  8
Fusion002
100
AcDbCircle
 10
-20
 20
20
 40
4.1
  0
CIRCLE
  5
A3A
330
A02
100
AcDbEntity
  8
Fusion002
100
AcDbCircle
 10
-20
 20
20
 40
4.1
  0
LINE
  5
A3B
330
A02
100
AcDbEntity
  8
Fusion002
100
AcDbLine
 10
-20
 20
64.1
 30
4.5426e-14
 11
-20
 21
64.1
 31
19.5
  0
LINE
  5
A3C
330
A02
100
AcDbEntity
  8
Fusion002
100
AcDbLine
 10
-20
 20
64.1
 30
4.5426e-14
 11
-20
 21
64.1
 31
19.5
  0
CIRCLE
  5
A3D
330
A02
100
AcDbEntity
  8
Fusion002
100
AcDbCircle
 10
-20
 20
60
 40
4.1
  0
CIRCLE
  5
A3E
330
A02
100
AcDbEntity
  8
Fusion002
100
AcDbCircle
 10
-20
 20
60
 40
4.1
  0
LINE
  5
A3F
330
A02
100
AcDbEntity
  8
Fusion002
100
AcDbLine
 10
-60
 20
24.1
 30
5.42605e-15
 11
-60
 21
24.1
 31
19.5
  0
LINE
  5
A40
330
A02
100
AcDbEntity
  8
Fusion002
100
AcDbLine
 10
-60
 20
24.1
 30
5.42605e-15
 11
-60
 21
24.1
 31
19.5
  0
CIRCLE
  5
A41
330
A02
100
AcDbEntity
  8
Fusion002
100
AcDbCircle
 10
-60
 20
20
 40
4.1
  0
CIRCLE
  5
A42
330
A02
100
AcDbEntity
  8
Fusion002
100
AcDbCircle
 10
-60
 20
20
 40
4.1
  0
LINE
  5
A43
330
A02
100
AcDbEntity
  8
Fusion002
100
AcDbLine
 10
-60
 20
64.1
 30
3.65443e-14
 11
-60
 21
64.1
 31
19.5
  0
LINE
  5
A44
330
A02
100
AcDbEntity
  8
Fusion002
100
AcDbLine
 10
-60
 20
64.1
 30
3.65443e-14
 11
-60
 21
64.1
 31
19.5
  0
CIRCLE
  5
A45
330
A02
100
AcDbEntity
  8
Fusion002
100
AcDbCircle
 10
-60
 20
60
 40
4.1
  0
CIRCLE
  5
A46
330
A02
100
AcDbEntity
  8
Fusion002
100
AcDbCircle
 10
-60
 20
60
 40
4.1
  0
LINE
  5
A47
330
A02
100
AcDbEntity
  8
Fusion002
100
AcDbLine
 10
-140
 20
24.1
 30
-1.23375e-14
 11
-140
 21
24.1
 31
19.5
  0
LINE
  5
A48
330
A02
100
AcDbEntity
  8
Fusion002
100
AcDbLine
 10
-140
 20
24.1
 30
-1.23375e-14
 11
-140
 21
24.1
 31
19.5
  0
CIRCLE
  5
A49
330
A02
100
AcDbEntity
  8
Fusion002
100
AcDbCircle
 10
-140
 20
20
 40
4.1
  0
CIRCLE
  5
A4A
330
A02
100
AcDbEntity
  8
Fusion002
100
AcDbCircle
 10
-140
 20
20
 40
4.1
  0
LINE
  5
A4B
330
A02
100
AcDbEntity
  8
Fusion002
100
AcDbLine
 10
-100
 20
24.1
 30
-3.45574e-15
 11
-100
 21
24.1
 31
19.5
  0
LINE
  5
A4C
330
A02
100
AcDbEntity
  8
Fusion002
100
AcDbLine
 10
-100
 20
24.1
 30
-3.45574e-15
 11
-100
 21
24.1
 31
19.5
  0
CIRCLE
  5
A4D
330
A02
100
AcDbEntity
  8
Fusion002
100
AcDbCircle
 10
-100
 20
20
 40
4.1
  0
CIRCLE
  5
A4E
330
A02
100
AcDbEntity
  8
Fusion002
100
AcDbCircle
 10
-100
 20
20
 40
4.1
  0
LINE
  5
A4F
330
A02
100
AcDbEntity
  8
Fusion002
100
AcDbLine
 10
-140
 20
64.1
 30
1.87807e-14
 11
-140
 21
64.1
 31
19.5
  0
LINE
  5
A50
330
A02
100
AcDbEntity
  8
Fusion002
100
AcDbLine
 10
-140
 20
64.1
 30
1.87807e-14
 11
-140
 21
64.1
 31
19.5
  0
CIRCLE
  5
A51
330
A02
100
AcDbEntity
  8
Fusion002
100
AcDbCircle
 10
-140
 20
60
 40
4.1
  0
CIRCLE
  5
A52
330
A02
100
AcDbEntity
  8
Fusion002
100
AcDbCircle
 10
-140
 20
60
 40
4.1
  0
LINE
  5
A53
330
A02
100
AcDbEntity
  8
Fusion002
100
AcDbLine
 10
-100
 20
64.1
 30
2.76625e-14
 11
-100
 21
64.1
 31
19.5
  0
LINE
  5
A54
330
A02
100
AcDbEntity
  8
Fusion002
100
AcDbLine
 10
-100
 20
64.1
 30
2.76625e-14
 11
-100
 21
64.1
 31
19.5
  0
CIRCLE
  5
A55
330
A02
100
AcDbEntity
  8
Fusion002
100
AcDbCircle
 10
-100
 20
60
 40
4.1
  0
CIRCLE
  5
A56
330
A02
100
AcDbEntity
  8
Fusion002
100
AcDbCircle
 10
-100
 20
60
 40
4.1
  0
LINE
  5
A57
330
A02
100
AcDbEntity
  8
Fusion002
100
AcDbLine
 10
333.5
 20
283.1
 30
2.94291e-13
 11
333.5
 21
283.1
 31
19.5
  0
LINE
  5
A58
330
A02
100
AcDbEntity
  8
Fusion002
100
AcDbLine
 10
333.5
 20
283.1
 30
2.94291e-13
 11
333.5
 21
283.1
 31
19.5
  0
CIRCLE
  5
A59
330
A02
100
AcDbEntity
  8
Fusion002
100
AcDbCircle
 10
333.5
 20
280
 40
3.1
  0
CIRCLE
  5
A5A
330
A02
100
AcDbEntity
  8
Fusion002
100
AcDbCircle
 10
333.5
 20
280
 40
3.1
  0
LINE
  5
A5B
330
A02
100
AcDbEntity
  8
Fusion002
100
AcDbLine
 10
280.5
 20
283.1
 30
2.82523e-13
 11
280.5
 21
283.1
 31
19.5
  0
LINE
  5
A5C
330
A02
100
AcDbEntity
  8
Fusion002
100
AcDbLine
 10
280.5
 20
283.1
 30
2.82523e-13
 11
280.5
 21
283.1
 31
19.5
  0
CIRCLE
  5
A5D
330
A02
100
AcDbEntity
  8
Fusion002
100
AcDbCircle
 10
280.5
 20
280
 40
3.1
  0
CIRCLE
  5
A5E
330
A02
100
AcDbEntity
  8
Fusion002
100
AcDbCircle
 10
280.5
 20
280
 40
3.1
  0
LINE
  5
A5F
330
A02
100
AcDbEntity
  8
Fusion002
100
AcDbLine
 10
333.5
 20
243.1
 30
2.63173e-13
 11
333.5
 21
243.1
 31
19.5
  0
LINE
  5
A60
330
A02
100
AcDbEntity
  8
Fusion002
100
AcDbLine
 10
333.5
 20
243.1
 30
2.63173e-13
 11
333.5
 21
243.1
 31
19.5
  0
CIRCLE
  5
A61
330
A02
100
AcDbEntity
  8
Fusion002
100
AcDbCircle
 10
333.5
 20
240
 40
3.1
  0
CIRCLE
  5
A62
330
A02
100
AcDbEntity
  8
Fusion002
100
AcDbCircle
 10
333.5
 20
240
 40
3.1
  0
LINE
  5
A63
330
A02
100
AcDbEntity
  8
Fusion002
100
AcDbLine
 10
280.5
 20
243.1
 30
2.51404e-13
 11
280.5
 21
243.1
 31
19.5
  0
LINE
  5
A64
330
A02
100
AcDbEntity
  8
Fusion002
100
AcDbLine
 10
280.5
 20
243.1
 30
2.51404e-13
 11
280.5
 21
243.1
 31
19.5
  0
CIRCLE
  5
A65
330
A02
100
AcDbEntity
  8
Fusion002
100
AcDbCircle
 10
280.5
 20
240
 40
3.1
  0
CIRCLE
  5
A66
330
A02
100
AcDbEntity
  8
Fusion002
100
AcDbCircle
 10
280.5
 20
240
 40
3.1
  0
LINE
  5
A67
330
A02
100
AcDbEntity
  8
Fusion002
100
AcDbLine
 10
333.5
 20
163.1
 30
2.00936e-13
 11
333.5
 21
163.1
 31
19.5
  0
LINE
  5
A68
330
A02
100
AcDbEntity
  8
Fusion002
100
AcDbLine
 10
333.5
 20
163.1
 30
2.00936e-13
 11
333.5
 21
163.1
 31
19.5
  0
CIRCLE
  5
A69
330
A02
100
AcDbEntity
  8
Fusion002
100
AcDbCircle
 10
333.5
 20
160
 40
3.1
  0
CIRCLE
  5
A6A
330
A02
100
AcDbEntity
  8
Fusion002
100
AcDbCircle
 10
333.5
 20
160
 40
3.1
  0
LINE
  5
A6B
330
A02
100
AcDbEntity
  8
Fusion002
100
AcDbLine
 10
333.5
 20
123.1
 30
1.69818e-13
 11
333.5
 21
123.1
 31
19.5
  0
LINE
  5
A6C
330
A02
100
AcDbEntity
  8
Fusion002
100
AcDbLine
 10
333.5
 20
123.1
 30
1.69818e-13
 11
333.5
 21
123.1
 31
19.5
  0
CIRCLE
  5
A6D
330
A02
100
AcDbEntity
  8
Fusion002
100
AcDbCircle
 10
333.5
 20
120
 40
3.1
  0
CIRCLE
  5
A6E
330
A02
100
AcDbEntity
  8
Fusion002
100
AcDbCircle
 10
333.5
 20
120
 40
3.1
  0
LINE
  5
A6F
330
A02
100
AcDbEntity
  8
Fusion002
100
AcDbLine
 10
280.5
 20
163.1
 30
1.89168e-13
 11
280.5
 21
163.1
 31
19.5
  0
LINE
  5
A70
330
A02
100
AcDbEntity
  8
Fusion002
100
AcDbLine
 10
280.5
 20
163.1
 30
1.89168e-13
 11
280.5
 21
163.1
 31
19.5
  0
CIRCLE
  5
A71
330
A02
100
AcDbEntity
  8
Fusion002
100
AcDbCircle
 10
280.5
 20
160
 40
3.1
  0
CIRCLE
  5
A72
330
A02
100
AcDbEntity
  8
Fusion002
100
AcDbCircle
 10
280.5
 20
160
 40
3.1
  0
LINE
  5
A73
330
A02
100
AcDbEntity
  8
Fusion002
100
AcDbLine
 10
280.5
 20
123.1
 30
1.5805e-13
 11
280.5
 21
123.1
 31
19.5
  0
LINE
  5
A74
330
A02
100
AcDbEntity
  8
Fusion002
100
AcDbLine
 10
280.5
 20
123.1
 30
1.5805e-13
 11
280.5
 21
123.1
 31
19.5
  0
CIRCLE
  5
A75
330
A02
100
AcDbEntity
  8
Fusion002
100
AcDbCircle
 10
280.5
 20
120
 40
3.1
  0
CIRCLE
  5
A76
330
A02
100
AcDbEntity
  8
Fusion002
100
AcDbCircle
 10
280.5
 20
120
 40
3.1
  0
LINE
  5
A77
330
A02
100
AcDbEntity
  8
Fusion002
100
AcDbLine
 10
380
 20
214.6
 30
2.51326e-13
 11
380
 21
214.6
 31
19.5
  0
LINE
  5
A78
330
A02
100
AcDbEntity
  8
Fusion002
100
AcDbLine
 10
380
 20
214.6
 30
2.51326e-13
 11
380
 21
214.6
 31
19.5
  0
CIRCLE
  5
A79
330
A02
100
AcDbEntity
  8
Fusion002
100
AcDbCircle
 10
380
 20
212
 40
2.6
  0
CIRCLE
  5
A7A
330
A02
100
AcDbEntity
  8
Fusion002
100
AcDbCircle
 10
380
 20
212
 40
2.6
  0
LINE
  5
A7B
330
A02
100
AcDbEntity
  8
Fusion002
100
AcDbLine
 10
380
 20
190.6
 30
2.32655e-13
 11
380
 21
190.6
 31
19.5
  0
LINE
  5
A7C
330
A02
100
AcDbEntity
  8
Fusion002
100
AcDbLine
 10
380
 20
190.6
 30
2.32655e-13
 11
380
 21
190.6
 31
19.5
  0
CIRCLE
  5
A7D
330
A02
100
AcDbEntity
  8
Fusion002
100
AcDbCircle
 10
380
 20
188
 40
2.6
  0
CIRCLE
  5
A7E
330
A02
100
AcDbEntity
  8
Fusion002
100
AcDbCircle
 10
380
 20
188
 40
2.6
  0
LINE
  5
A7F
330
A02
100
AcDbEntity
  8
Fusion002
100
AcDbLine
 10
340
 20
214.6
 30
2.42444e-13
 11
340
 21
214.6
 31
19.5
  0
LINE
  5
A80
330
A02
100
AcDbEntity
  8
Fusion002
100
AcDbLine
 10
340
 20
214.6
 30
2.42444e-13
 11
340
 21
214.6
 31
19.5
  0
CIRCLE
  5
A81
330
A02
100
AcDbEntity
  8
Fusion002
100
AcDbCircle
 10
340
 20
212
 40
2.6
  0
CIRCLE
  5
A82
330
A02
100
AcDbEntity
  8
Fusion002
100
AcDbCircle
 10
340
 20
212
 40
2.6
  0
LINE
  5
A83
330
A02
100
AcDbEntity
  8
Fusion002
100
AcDbLine
 10
340
 20
190.6
 30
2.23773e-13
 11
340
 21
190.6
 31
19.5
  0
LINE
  5
A84
330
A02
100
AcDbEntity
  8
Fusion002
100
AcDbLine
 10
340
 20
190.6
 30
2.23773e-13
 11
340
 21
190.6
 31
19.5
  0
CIRCLE
  5
A85
330
A02
100
AcDbEntity
  8
Fusion002
100
AcDbCircle
 10
340
 20
188
 40
2.6
  0
CIRCLE
  5
A86
330
A02
100
AcDbEntity
  8
Fusion002
100
AcDbCircle
 10
340
 20
188
 40
2.6
  0
CIRCLE
  5
A87
330
A02
100
AcDbEntity
  8
Fusion002
100
AcDbCircle
 10
-20
 20
20
 40
7.25
  0
CIRCLE
  5
A88
330
A02
100
AcDbEntity
  8
Fusion002
100
AcDbCircle
 10
-20
 20
20
 40
4.1
  0
CIRCLE
  5
A89
330
A02
100
AcDbEntity
  8
Fusion002
100
AcDbCircle
 10
-20
 20
60
 40
7.25
  0
CIRCLE
  5
A8A
330
A02
100
AcDbEntity
  8
Fusion002
100
AcDbCircle
 10
-20
 20
60
 40
4.1
  0
CIRCLE
  5
A8B
330
A02
100
AcDbEntity
  8
Fusion002
100
AcDbCircle
 10
-60
 20
20
 40
7.25
  0
CIRCLE
  5
A8C
330
A02
100
AcDbEntity
  8
Fusion002
100
AcDbCircle
 10
-60
 20
20
 40
4.1
  0
CIRCLE
  5
A8D
330
A02
100
AcDbEntity
  8
Fusion002
100
AcDbCircle
 10
-60
 20
60
 40
7.25
  0
CIRCLE
  5
A8E
330
A02
100
AcDbEntity
  8
Fusion002
100
AcDbCircle
 10
-60
 20
60
 40
4.1
  0
CIRCLE
  5
A8F
330
A02
100
AcDbEntity
  8
Fusion002
100
AcDbCircle
 10
-140
 20
20
 40
7.25
  0
CIRCLE
  5
A90
330
A02
100
AcDbEntity
  8
Fusion002
100
AcDbCircle
 10
-140
 20
20
 40
4.1
  0
CIRCLE
  5
A91
330
A02
100
AcDbEntity
  8
Fusion002
100
AcDbCircle
 10
-100
 20
20
 40
7.25
  0
CIRCLE
  5
A92
330
A02
100
AcDbEntity
  8
Fusion002
100
AcDbCircle
 10
-100
 20
20
 40
4.1
  0
CIRCLE
  5
A93
330
A02
100
AcDbEntity
  8
Fusion002
100
AcDbCircle
 10
-140
 20
60
 40
7.25
  0
CIRCLE
  5
A94
330
A02
100
AcDbEntity
  8
Fusion002
100
AcDbCircle
 10
-140
 20
60
 40
4.1
  0
CIRCLE
  5
A95
330
A02
100
AcDbEntity
  8
Fusion002
100
AcDbCircle
 10
-100
 20
60
 40
7.25
  0
CIRCLE
  5
A96
330
A02
100
AcDbEntity
  8
Fusion002
100
AcDbCircle
 10
-100
 20
60
 40
4.1
  0
CIRCLE
  5
A97
330
A02
100
AcDbEntity
  8
Fusion002
100
AcDbCircle
 10
333.5
 20
280
 40
5.25
  0
CIRCLE
  5
A98
330
A02
100
AcDbEntity
  8
Fusion002
100
AcDbCircle
 10
333.5
 20
280
 40
3.1
  0
CIRCLE
  5
A99
330
A02
100
AcDbEntity
  8
Fusion002
100
AcDbCircle
 10
280.5
 20
280
 40
5.25
  0
CIRCLE
  5
A9A
330
A02
100
AcDbEntity
  8
Fusion002
100
AcDbCircle
 10
280.5
 20
280
 40
3.1
  0
CIRCLE
  5
A9B
330
A02
100
AcDbEntity
  8
Fusion002
100
AcDbCircle
 10
333.5
 20
240
 40
5.25
  0
CIRCLE
  5
A9C
330
A02
100
AcDbEntity
  8
Fusion002
100
AcDbCircle
 10
333.5
 20
240
 40
3.1
  0
CIRCLE
  5
A9D
330
A02
100
AcDbEntity
  8
Fusion002
100
AcDbCircle
 10
280.5
 20
240
 40
5.25
  0
CIRCLE
  5
A9E
330
A02
100
AcDbEntity
  8
Fusion002
100
AcDbCircle
 10
280.5
 20
240
 40
3.1
  0
CIRCLE
  5
A9F
330
A02
100
AcDbEntity
  8
Fusion002
100
AcDbCircle
 10
333.5
 20
160
 40
5.25
  0
CIRCLE
  5
AA0
330
A02
100
AcDbEntity
  8
Fusion002
100
AcDbCircle
 10
333.5
 20
160
 40
3.1
  0
CIRCLE
  5
AA1
330
A02
100
AcDbEntity
  8
Fusion002
100
AcDbCircle
 10
333.5
 20
120
 40
5.25
  0
CIRCLE
  5
AA2
330
A02
100
AcDbEntity
  8
Fusion002
100
AcDbCircle
 10
333.5
 20
120
 40
3.1
  0
CIRCLE
  5
AA3
330
A02
100
AcDbEntity
  8
Fusion002
100
AcDbCircle
 10
280.5
 20
160
 40
5.25
  0
CIRCLE
  5
AA4
330
A02
100
AcDbEntity
  8
Fusion002
100
AcDbCircle
 10
280.5
 20
160
 40
3.1
  0
CIRCLE
  5
AA5
330
A02
100
AcDbEntity
  8
Fusion002
100
AcDbCircle
 10
280.5
 20
120
 40
5.25
  0
CIRCLE
  5
AA6
330
A02
100
AcDbEntity
  8
Fusion002
100
AcDbCircle
 10
280.5
 20
120
 40
3.1
  0
CIRCLE
  5
AA7
330
A02
100
AcDbEntity
  8
Fusion002
100
AcDbCircle
 10
380
 20
212
 40
4.75
  0
CIRCLE
  5
AA8
330
A02
100
AcDbEntity
  8
Fusion002
100
AcDbCircle
 10
380
 20
212
 40
2.6
  0
CIRCLE
  5
AA9
330
A02
100
AcDbEntity
  8
Fusion002
100
AcDbCircle
 10
380
 20
188
 40
4.75
  0
CIRCLE
  5
AAA
330
A02
100
AcDbEntity
  8
Fusion002
100
AcDbCircle
 10
380
 20
188
 40
2.6
  0
CIRCLE
  5
AAB
330
A02
100
AcDbEntity
  8
Fusion002
100
AcDbCircle
 10
340
 20
212
 40
4.75
  0
CIRCLE
  5
AAC
330
A02
100
AcDbEntity
  8
Fusion002
100
AcDbCircle
 10
340
 20
212
 40
2.6
  0
CIRCLE
  5
AAD
330
A02
100
AcDbEntity
  8
Fusion002
100
AcDbCircle
 10
340
 20
188
 40
4.75
  0
CIRCLE
  5
AAE
330
A02
100
AcDbEntity
  8
Fusion002
100
AcDbCircle
 10
340
 20
188
 40
2.6
  0
LINE
  5
AAF
330
A02
100
AcDbEntity
  8
Fusion002
100
AcDbLine
 10
-20
 20
67.25
 30
19.5
 11
-20
 21
67.25
 31
25
  0
LINE
  5
AB0
330
A02
100
AcDbEntity
  8
Fusion002
100
AcDbLine
 10
-20
 20
67.25
 30
19.5
 11
-20
 21
67.25
 31
25
  0
CIRCLE
  5
AB1
330
A02
100
AcDbEntity
  8
Fusion002
100
AcDbCircle
 10
-20
 20
60
 40
7.25
  0
CIRCLE
  5
AB2
330
A02
100
AcDbEntity
  8
Fusion002
100
AcDbCircle
 10
-20
 20
60
 40
7.25
  0
ARC
  5
AB3
330
A02
100
AcDbEntity
  8
Fusion002
100
AcDbCircle
 10
-5.73248e-15
 20
20
 30
25
 40
20
100
AcDbArc
 50
-90
 51
-68.542
  0
LINE
  5
AB4
330
A02
100
AcDbEntity
  8
Fusion002
100
AcDbLine
 10
-155
 20
-5.38658e-14
 30
25
 11
-1.22125e-15
 21
-1.94489e-14
 31
25
  0
ARC
  5
AB5
330
A02
100
AcDbEntity
  8
Fusion002
100
AcDbCircle
 10
-155
 20
5
 30
25
 40
5
100
AcDbArc
 50
180
 51
-90
  0
LINE
  5
AB6
330
A02
100
AcDbEntity
  8
Fusion002
100
AcDbLine
 10
-160
 20
5
 30
25
 11
-160
 21
135
 31
25
  0
ARC
  5
AB7
330
A02
100
AcDbEntity
  8
Fusion002
100
AcDbCircle
 10
-140
 20
135
 30
25
 40
20
100
AcDbArc
 50
109.835
 51
180
  0
LINE
  5
AB8
330
A02
100
AcDbEntity
  8
Fusion002
100
AcDbLine
 10
-146.786
 20
153.814
 30
25
 11
255.204
 21
298.814
 31
25
  0
ARC
  5
AB9
330
A02
100
AcDbEntity
  8
Fusion002
100
AcDbCircle
 10
261.99
 20
280
 30
25
 40
20
100
AcDbArc
 50
90
 51
109.835
  0
LINE
  5
ABA
330
A02
100
AcDbEntity
  8
Fusion002
100
AcDbLine
 10
341.99
 20
300
 30
25
 11
261.99
 21
300
 31
25
  0
ARC
  5
ABB
330
A02
100
AcDbEntity
  8
Fusion002
100
AcDbCircle
 10
341.99
 20
280
 30
25
 40
20
100
AcDbArc
 50
25.7772
 51
90
  0
LINE
  5
ABC
330
A02
100
AcDbEntity
  8
Fusion002
100
AcDbLine
 10
388.01
 20
230.697
 30
25
 11
360
 21
288.697
 31
25
  0
ARC
  5
ABD
330
A02
100
AcDbEntity
  8
Fusion002
100
AcDbCircle
 10
370
 20
222
 30
25
 40
20
100
AcDbArc
 50
0
 51
25.7772
  0
LINE
  5
ABE
330
A02
100
AcDbEntity
  8
Fusion002
100
AcDbLine
 10
390
 20
178
 30
25
 11
390
 21
222
 31
25
  0
ARC
  5
ABF
330
A02
100
AcDbEntity
  8
Fusion002
100
AcDbCircle
 10
370
 20
178
 30
25
 40
20
100
AcDbArc
 50
-25.7772
 51
0
  0
LINE
  5
AC0
330
A02
100
AcDbEntity
  8
Fusion002
100
AcDbLine
 10
360
 20
111.303
 30
25
 11
388.01
 21
169.303
 31
25
  0
ARC
  5
AC1
330
A02
100
AcDbEntity
  8
Fusion002
100
AcDbCircle
 10
341.99
 20
120
 30
25
 40
20
100
AcDbArc
 50
-90
 51
-25.7772
  0
LINE
  5
AC2
330
A02
100
AcDbEntity
  8
Fusion002
100
AcDbLine
 10
341.99
 20
100
 30
25
 11
261.99
 21
100
 31
25
  0
ARC
  5
AC3
330
A02
100
AcDbEntity
  8
Fusion002
100
AcDbCircle
 10
261.99
 20
80
 30
25
 40
20
100
AcDbArc
 50
90
 51
111.458
  0
LINE
  5
AC4
330
A02
100
AcDbEntity
  8
Fusion002
100
AcDbLine
 10
7.31639
 20
1.38628
 30
25
 11
254.674
 21
98.6137
 31
25
  0
CIRCLE
  5
AC5
330
A02
100
AcDbEntity
  8
Fusion002
100
AcDbCircle
 10
-80
 20
105
 40
18.25
  0
CIRCLE
  5
AC6
330
A02
100
AcDbEntity
  8
Fusion002
100
AcDbCircle
 10
-20
 20
60
 40
7.25
  0
CIRCLE
  5
AC7
330
A02
100
AcDbEntity
  8
Fusion002
100
AcDbCircle
 10
-60
 20
20
 40
7.25
  0
CIRCLE
  5
AC8
330
A02
100
AcDbEntity
  8
Fusion002
100
AcDbCircle
 10
-140
 20
60
 40
7.25
  0
CIRCLE
  5
AC9
330
A02
100
AcDbEntity
  8
Fusion002
100
AcDbCircle
 10
-140
 20
20
 40
7.25
  0
CIRCLE
  5
ACA
330
A02
100
AcDbEntity
  8
Fusion002
100
AcDbCircle
 10
-100
 20
60
 40
7.25
  0
CIRCLE
  5
ACB
330
A02
100
AcDbEntity
  8
Fusion002
100
AcDbCircle
 10
-100
 20
20
 40
7.25
  0
CIRCLE
  5
ACC
330
A02
100
AcDbEntity
  8
Fusion002
100
AcDbCircle
 10
-60
 20
60
 40
7.25
  0
CIRCLE
  5
ACD
330
A02
100
AcDbEntity
  8
Fusion002
100
AcDbCircle
 10
-20
 20
20
 40
7.25
  0
CIRCLE
  5
ACE
330
A02
100
AcDbEntity
  8
Fusion002
100
AcDbCircle
 10
333.5
 20
280
 40
5.25
  0
CIRCLE
  5
ACF
330
A02
100
AcDbEntity
  8
Fusion002
100
AcDbCircle
 10
333.5
 20
240
 40
5.25
  0
CIRCLE
  5
AD0
330
A02
100
AcDbEntity
  8
Fusion002
100
AcDbCircle
 10
280.5
 20
280
 40
5.25
  0
CIRCLE
  5
AD1
330
A02
100
AcDbEntity
  8
Fusion002
100
AcDbCircle
 10
280.5
 20
240
 40
5.25
  0
CIRCLE
  5
AD2
330
A02
100
AcDbEntity
  8
Fusion002
100
AcDbCircle
 10
333.5
 20
160
 40
5.25
  0
CIRCLE
  5
AD3
330
A02
100
AcDbEntity
  8
Fusion002
100
AcDbCircle
 10
333.5
 20
120
 40
5.25
  0
CIRCLE
  5
AD4
330
A02
100
AcDbEntity
  8
Fusion002
100
AcDbCircle
 10
280.5
 20
160
 40
5.25
  0
CIRCLE
  5
AD5
330
A02
100
AcDbEntity
  8
Fusion002
100
AcDbCircle
 10
280.5
 20
120
 40
5.25
  0
CIRCLE
  5
AD6
330
A02
100
AcDbEntity
  8
Fusion002
100
AcDbCircle
 10
380
 20
212
 40
4.75
  0
CIRCLE
  5
AD7
330
A02
100
AcDbEntity
  8
Fusion002
100
AcDbCircle
 10
380
 20
188
 40
4.75
  0
CIRCLE
  5
AD8
330
A02
100
AcDbEntity
  8
Fusion002
100
AcDbCircle
 10
340
 20
212
 40
4.75
  0
CIRCLE
  5
AD9
330
A02
100
AcDbEntity
  8
Fusion002
100
AcDbCircle
 10
340
 20
188
 40
4.75
  0
CIRCLE
  5
ADA
330
A02
100
AcDbEntity
  8
Fusion002
100
AcDbCircle
 10
-80
 20
126
 40
1.65
  0
CIRCLE
  5
ADB
330
A02
100
AcDbEntity
  8
Fusion002
100
AcDbCircle
 10
-80
 20
84
 40
1.65
  0
CIRCLE
  5
ADC
330
A02
100
AcDbEntity
  8
Fusion002
100
AcDbCircle
 10
-101
 20
105
 40
1.65
  0
CIRCLE
  5
ADD
330
A02
100
AcDbEntity
  8
Fusion002
100
AcDbCircle
 10
-95.5563
 20
120.556
 40
1.65
  0
CIRCLE
  5
ADE
330
A02
100
AcDbEntity
  8
Fusion002
100
AcDbCircle
 10
-95.5563
 20
89.4437
 40
1.65
  0
CIRCLE
  5
ADF
330
A02
100
AcDbEntity
  8
Fusion002
100
AcDbCircle
 10
-64.4437
 20
120.556
 40
1.65
  0
CIRCLE
  5
AE0
330
A02
100
AcDbEntity
  8
Fusion002
100
AcDbCircle
 10
-64.4437
 20
89.4437
 40
1.65
  0
CIRCLE
  5
AE1
330
A02
100
AcDbEntity
  8
Fusion002
100
AcDbCircle
 10
-59
 20
105
 40
1.65
  0
LINE
  5
AE2
330
A02
100
AcDbEntity
  8
Fusion002
100
AcDbLine
 10
-60
 20
27.25
 30
19.5
 11
-60
 21
27.25
 31
25
  0
LINE
  5
AE3
330
A02
100
AcDbEntity
  8
Fusion002
100
AcDbLine
 10
-60
 20
27.25
 30
19.5
 11
-60
 21
27.25
 31
25
  0
CIRCLE
  5
AE4
330
A02
100
AcDbEntity
  8
Fusion002
100
AcDbCircle
 10
-60
 20
20
 40
7.25
  0
CIRCLE
  5
AE5
330
A02
100
AcDbEntity
  8
Fusion002
100
AcDbCircle
 10
-60
 20
20
 40
7.25
  0
LINE
  5
AE6
330
A02
100
AcDbEntity
  8
Fusion002
100
AcDbLine
 10
-140
 20
67.25
 30
19.5
 11
-140
 21
67.25
 31
25
  0
LINE
  5
AE7
330
A02
100
AcDbEntity
  8
Fusion002
100
AcDbLine
 10
-140
 20
67.25
 30
19.5
 11
-140
 21
67.25
 31
25
  0
CIRCLE
  5
AE8
330
A02
100
AcDbEntity
  8
Fusion002
100
AcDbCircle
 10
-140
 20
60
 40
7.25
  0
CIRCLE
  5
AE9
330
A02
100
AcDbEntity
  8
Fusion002
100
AcDbCircle
 10
-140
 20
60
 40
7.25
  0
LINE
  5
AEA
330
A02
100
AcDbEntity
  8
Fusion002
100
AcDbLine
 10
-140
 20
27.25
 30
19.5
 11
-140
 21
27.25
 31
25
  0
LINE
  5
AEB
330
A02
100
AcDbEntity
  8
Fusion002
100
AcDbLine
 10
-140
 20
27.25
 30
19.5
 11
-140
 21
27.25
 31
25
  0
CIRCLE
  5
AEC
330
A02
100
AcDbEntity
  8
Fusion002
100
AcDbCircle
 10
-140
 20
20
 40
7.25
  0
CIRCLE
  5
AED
330
A02
100
AcDbEntity
  8
Fusion002
100
AcDbCircle
 10
-140
 20
20
 40
7.25
  0
LINE
  5
AEE
330
A02
100
AcDbEntity
  8
Fusion002
100
AcDbLine
 10
-100
 20
67.25
 30
19.5
 11
-100
 21
67.25
 31
25
  0
LINE
  5
AEF
330
A02
100
AcDbEntity
  8
Fusion002
100
AcDbLine
 10
-100
 20
67.25
 30
19.5
 11
-100
 21
67.25
 31
25
  0
CIRCLE
  5
AF0
330
A02
100
AcDbEntity
  8
Fusion002
100
AcDbCircle
 10
-100
 20
60
 40
7.25
  0
CIRCLE
  5
AF1
330
A02
100
AcDbEntity
  8
Fusion002
100
AcDbCircle
 10
-100
 20
60
 40
7.25
  0
LINE
  5
AF2
330
A02
100
AcDbEntity
  8
Fusion002
100
AcDbLine
 10
-100
 20
27.25
 30
19.5
 11
-100
 21
27.25
 31
25
  0
LINE
  5
AF3
330
A02
100
AcDbEntity
  8
Fusion002
100
AcDbLine
 10
-100
 20
27.25
 30
19.5
 11
-100
 21
27.25
 31
25
  0
CIRCLE
  5
AF4
330
A02
100
AcDbEntity
  8
Fusion002
100
AcDbCircle
 10
-100
 20
20
 40
7.25
  0
CIRCLE
  5
AF5
330
A02
100
AcDbEntity
  8
Fusion002
100
AcDbCircle
 10
-100
 20
20
 40
7.25
  0
LINE
  5
AF6
330
A02
100
AcDbEntity
  8
Fusion002
100
AcDbLine
 10
-60
 20
67.25
 30
19.5
 11
-60
 21
67.25
 31
25
  0
LINE
  5
AF7
330
A02
100
AcDbEntity
  8
Fusion002
100
AcDbLine
 10
-60
 20
67.25
 30
19.5
 11
-60
 21
67.25
 31
25
  0
CIRCLE
  5
AF8
330
A02
100
AcDbEntity
  8
Fusion002
100
AcDbCircle
 10
-60
 20
60
 40
7.25
  0
CIRCLE
  5
AF9
330
A02
100
AcDbEntity
  8
Fusion002
100
AcDbCircle
 10
-60
 20
60
 40
7.25
  0
LINE
  5
AFA
330
A02
100
AcDbEntity
  8
Fusion002
100
AcDbLine
 10
-20
 20
27.25
 30
19.5
 11
-20
 21
27.25
 31
25
  0
LINE
  5
AFB
330
A02
100
AcDbEntity
  8
Fusion002
100
AcDbLine
 10
-20
 20
27.25
 30
19.5
 11
-20
 21
27.25
 31
25
  0
CIRCLE
  5
AFC
330
A02
100
AcDbEntity
  8
Fusion002
100
AcDbCircle
 10
-20
 20
20
 40
7.25
  0
CIRCLE
  5
AFD
330
A02
100
AcDbEntity
  8
Fusion002
100
AcDbCircle
 10
-20
 20
20
 40
7.25
  0
LINE
  5
AFE
330
A02
100
AcDbEntity
  8
Fusion002
100
AcDbLine
 10
333.5
 20
285.25
 30
19.5
 11
333.5
 21
285.25
 31
25
  0
LINE
  5
AFF
330
A02
100
AcDbEntity
  8
Fusion002
100
AcDbLine
 10
333.5
 20
285.25
 30
19.5
 11
333.5
 21
285.25
 31
25
  0
CIRCLE
  5
B00
330
A02
100
AcDbEntity
  8
Fusion002
100
AcDbCircle
 10
333.5
 20
280
 40
5.25
  0
CIRCLE
  5
B01
330
A02
100
AcDbEntity
  8
Fusion002
100
AcDbCircle
 10
333.5
 20
280
 40
5.25
  0
LINE
  5
B02
330
A02
100
AcDbEntity
  8
Fusion002
100
AcDbLine
 10
333.5
 20
245.25
 30
19.5
 11
333.5
 21
245.25
 31
25
  0
LINE
  5
B03
330
A02
100
AcDbEntity
  8
Fusion002
100
AcDbLine
 10
333.5
 20
245.25
 30
19.5
 11
333.5
 21
245.25
 31
25
  0
CIRCLE
  5
B04
330
A02
100
AcDbEntity
  8
Fusion002
100
AcDbCircle
 10
333.5
 20
240
 40
5.25
  0
CIRCLE
  5
B05
330
A02
100
AcDbEntity
  8
Fusion002
100
AcDbCircle
 10
333.5
 20
240
 40
5.25
  0
LINE
  5
B06
330
A02
100
AcDbEntity
  8
Fusion002
100
AcDbLine
 10
280.5
 20
285.25
 30
19.5
 11
280.5
 21
285.25
 31
25
  0
LINE
  5
B07
330
A02
100
AcDbEntity
  8
Fusion002
100
AcDbLine
 10
280.5
 20
285.25
 30
19.5
 11
280.5
 21
285.25
 31
25
  0
CIRCLE
  5
B08
330
A02
100
AcDbEntity
  8
Fusion002
100
AcDbCircle
 10
280.5
 20
280
 40
5.25
  0
CIRCLE
  5
B09
330
A02
100
AcDbEntity
  8
Fusion002
100
AcDbCircle
 10
280.5
 20
280
 40
5.25
  0
LINE
  5
B0A
330
A02
100
AcDbEntity
  8
Fusion002
100
AcDbLine
 10
280.5
 20
245.25
 30
19.5
 11
280.5
 21
245.25
 31
25
  0
LINE
  5
B0B
330
A02
100
AcDbEntity
  8
Fusion002
100
AcDbLine
 10
280.5
 20
245.25
 30
19.5
 11
280.5
 21
245.25
 31
25
  0
CIRCLE
  5
B0C
330
A02
100
AcDbEntity
  8
Fusion002
100
AcDbCircle
 10
280.5
 20
240
 40
5.25
  0
CIRCLE
  5
B0D
330
A02
100
AcDbEntity
  8
Fusion002
100
AcDbCircle
 10
280.5
 20
240
 40
5.25
  0
LINE
  5
B0E
330
A02
100
AcDbEntity
  8
Fusion002
100
AcDbLine
 10
333.5
 20
165.25
 30
19.5
 11
333.5
 21
165.25
 31
25
  0
LINE
  5
B0F
330
A02
100
AcDbEntity
  8
Fusion002
100
AcDbLine
 10
333.5
 20
165.25
 30
19.5
 11
333.5
 21
165.25
 31
25
  0
CIRCLE
  5
B10
330
A02
100
AcDbEntity
  8
Fusion002
100
AcDbCircle
 10
333.5
 20
160
 40
5.25
  0
CIRCLE
  5
B11
330
A02
100
AcDbEntity
  8
Fusion002
100
AcDbCircle
 10
333.5
 20
160
 40
5.25
  0
LINE
  5
B12
330
A02
100
AcDbEntity
  8
Fusion002
100
AcDbLine
 10
333.5
 20
125.25
 30
19.5
 11
333.5
 21
125.25
 31
25
  0
LINE
  5
B13
330
A02
100
AcDbEntity
  8
Fusion002
100
AcDbLine
 10
333.5
 20
125.25
 30
19.5
 11
333.5
 21
125.25
 31
25
  0
CIRCLE
  5
B14
330
A02
100
AcDbEntity
  8
Fusion002
100
AcDbCircle
 10
333.5
 20
120
 40
5.25
  0
CIRCLE
  5
B15
330
A02
100
AcDbEntity
  8
Fusion002
100
AcDbCircle
 10
333.5
 20
120
 40
5.25
  0
LINE
  5
B16
330
A02
100
AcDbEntity
  8
Fusion002
100
AcDbLine
 10
280.5
 20
165.25
 30
19.5
 11
280.5
 21
165.25
 31
25
  0
LINE
  5
B17
330
A02
100
AcDbEntity
  8
Fusion002
100
AcDbLine
 10
280.5
 20
165.25
 30
19.5
 11
280.5
 21
165.25
 31
25
  0
CIRCLE
  5
B18
330
A02
100
AcDbEntity
  8
Fusion002
100
AcDbCircle
 10
280.5
 20
160
 40
5.25
  0
CIRCLE
  5
B19
330
A02
100
AcDbEntity
  8
Fusion002
100
AcDbCircle
 10
280.5
 20
160
 40
5.25
  0
LINE
  5
B1A
330
A02
100
AcDbEntity
  8
Fusion002
100
AcDbLine
 10
280.5
 20
125.25
 30
19.5
 11
280.5
 21
125.25
 31
25
  0
LINE
  5
B1B
330
A02
100
AcDbEntity
  8
Fusion002
100
AcDbLine
 10
280.5
 20
125.25
 30
19.5
 11
280.5
 21
125.25
 31
25
  0
CIRCLE
  5
B1C
330
A02
100
AcDbEntity
  8
Fusion002
100
AcDbCircle
 10
280.5
 20
120
 40
5.25
  0
CIRCLE
  5
B1D
330
A02
100
AcDbEntity
  8
Fusion002
100
AcDbCircle
 10
280.5
 20
120
 40
5.25
  0
LINE
  5
B1E
330
A02
100
AcDbEntity
  8
Fusion002
100
AcDbLine
 10
380
 20
216.75
 30
19.5
 11
380
 21
216.75
 31
25
  0
LINE
  5
B1F
330
A02
100
AcDbEntity
  8
Fusion002
100
AcDbLine
 10
380
 20
216.75
 30
19.5
 11
380
 21
216.75
 31
25
  0
CIRCLE
  5
B20
330
A02
100
AcDbEntity
  8
Fusion002
100
AcDbCircle
 10
380
 20
212
 40
4.75
  0
CIRCLE
  5
B21
330
A02
100
AcDbEntity
  8
Fusion002
100
AcDbCircle
 10
380
 20
212
 40
4.75
  0
LINE
  5
B22
330
A02
100
AcDbEntity
  8
Fusion002
100
AcDbLine
 10
380
 20
192.75
 30
19.5
 11
380
 21
192.75
 31
25
  0
LINE
  5
B23
330
A02
100
AcDbEntity
  8
Fusion002
100
AcDbLine
 10
380
 20
192.75
 30
19.5
 11
380
 21
192.75
 31
25
  0
CIRCLE
  5
B24
330
A02
100
AcDbEntity
  8
Fusion002
100
AcDbCircle
 10
380
 20
188
 40
4.75
  0
CIRCLE
  5
B25
330
A02
100
AcDbEntity
  8
Fusion002
100
AcDbCircle
 10
380
 20
188
 40
4.75
  0
LINE
  5
B26
330
A02
100
AcDbEntity
  8
Fusion002
100
AcDbLine
 10
340
 20
216.75
 30
19.5
 11
340
 21
216.75
 31
25
  0
LINE
  5
B27
330
A02
100
AcDbEntity
  8
Fusion002
100
AcDbLine
 10
340
 20
216.75
 30
19.5
 11
340
 21
216.75
 31
25
  0
CIRCLE
  5
B28
330
A02
100
AcDbEntity
  8
Fusion002
100
AcDbCircle
 10
340
 20
212
 40
4.75
  0
CIRCLE
  5
B29
330
A02
100
AcDbEntity
  8
Fusion002
100
AcDbCircle
 10
340
 20
212
 40
4.75
  0
LINE
  5
B2A
330
A02
100
AcDbEntity
  8
Fusion002
100
AcDbLine
 10
340
 20
192.75
 30
19.5
 11
340
 21
192.75
 31
25
  0
LINE
  5
B2B
330
A02
100
AcDbEntity
  8
Fusion002
100
AcDbLine
 10
340
 20
192.75
 30
19.5
 11
340
 21
192.75
 31
25
  0
CIRCLE
  5
B2C
330
A02
100
AcDbEntity
  8
Fusion002
100
AcDbCircle
 10
340
 20
188
 40
4.75
  0
CIRCLE
  5
B2D
330
A02
100
AcDbEntity
  8
Fusion002
100
AcDbCircle
 10
340
 20
188
 40
4.75
  0
LINE
  5
B2E
330
A02
100
AcDbEntity
  8
Fusion002
100
AcDbLine
 10
-155
 20
-3.44169e-14
 30
-3.44169e-14
 11
0
 21
0
 31
0
  0
LINE
  5
B2F
330
A02
100
AcDbEntity
  8
Fusion002
100
AcDbLine
 10
-1.22465e-15
 20
-2.71926e-31
 30
-2.71926e-31
 11
-6.77576e-15
 21
-1.94489e-14
 31
25
  0
LINE
  5
B30
330
A02
100
AcDbEntity
  8
Fusion002
100
AcDbLine
 10
-155
 20
-5.38658e-14
 30
25
 11
-1.22125e-15
 21
-1.94489e-14
 31
25
  0
LINE
  5
B31
330
A02
100
AcDbEntity
  8
Fusion002
100
AcDbLine
 10
-155
 20
-3.44169e-14
 30
-3.55271e-14
 11
-155
 21
-5.38658e-14
 31
25
  0
LINE
  5
B32
330
A02
100
AcDbEntity
  8
Fusion002
100
AcDbLine
 10
7.31639
 20
1.38628
 30
2.70303e-15
 11
254.674
 21
98.6137
 31
1.33266e-13
  0
LINE
  5
B33
330
A02
100
AcDbEntity
  8
Fusion002
100
AcDbLine
 10
254.674
 20
98.6137
 30
1.33266e-13
 11
254.674
 21
98.6137
 31
25
  0
LINE
  5
B34
330
A02
100
AcDbEntity
  8
Fusion002
100
AcDbLine
 10
7.31639
 20
1.38628
 30
25
 11
254.674
 21
98.6137
 31
25
  0
LINE
  5
B35
330
A02
100
AcDbEntity
  8
Fusion002
100
AcDbLine
 10
7.31639
 20
1.38628
 30
3.2449e-15
 11
7.31639
 21
1.38628
 31
25
  0
LINE
  5
B36
330
A02
100
AcDbEntity
  8
Fusion002
100
AcDbLine
 10
-160
 20
5
 30
-3.16374e-14
 11
-160
 21
5
 31
25
  0
LINE
  5
B37
330
A02
100
AcDbEntity
  8
Fusion002
100
AcDbLine
 10
-160
 20
5
 30
25
 11
-160
 21
135
 31
25
  0
LINE
  5
B38
330
A02
100
AcDbEntity
  8
Fusion002
100
AcDbLine
 10
-160
 20
135
 30
6.95e-14
 11
-160
 21
135
 31
25
  0
LINE
  5
B39
330
A02
100
AcDbEntity
  8
Fusion002
100
AcDbLine
 10
-160
 20
5
 30
-3.16374e-14
 11
-160
 21
135
 31
6.94968e-14
  0
LINE
  5
B3A
330
A02
100
AcDbEntity
  8
Fusion002
100
AcDbLine
 10
-146.786
 20
153.814
 30
8.7067e-14
 11
-146.786
 21
153.814
 31
25
  0
LINE
  5
B3B
330
A02
100
AcDbEntity
  8
Fusion002
100
AcDbLine
 10
-146.786
 20
153.814
 30
25
 11
255.204
 21
298.814
 31
25
  0
LINE
  5
B3C
330
A02
100
AcDbEntity
  8
Fusion002
100
AcDbLine
 10
255.204
 20
298.814
 30
2.88921e-13
 11
255.204
 21
298.814
 31
25
  0
LINE
  5
B3D
330
A02
100
AcDbEntity
  8
Fusion002
100
AcDbLine
 10
-146.786
 20
153.814
 30
8.7067e-14
 11
255.204
 21
298.814
 31
2.8913e-13
  0
LINE
  5
B3E
330
A02
100
AcDbEntity
  8
Fusion002
100
AcDbLine
 10
341.99
 20
300
 30
3.09324e-13
 11
261.99
 21
300
 31
2.9156e-13
  0
LINE
  5
B3F
330
A02
100
AcDbEntity
  8
Fusion002
100
AcDbLine
 10
261.99
 20
300
 30
2.9156e-13
 11
261.99
 21
300
 31
25
  0
LINE
  5
B40
330
A02
100
AcDbEntity
  8
Fusion002
100
AcDbLine
 10
341.99
 20
300
 30
25
 11
261.99
 21
300
 31
25
  0
LINE
  5
B41
330
A02
100
AcDbEntity
  8
Fusion002
100
AcDbLine
 10
341.99
 20
300
 30
3.09974e-13
 11
341.99
 21
300
 31
25
  0
LINE
  5
B42
330
A02
100
AcDbEntity
  8
Fusion002
100
AcDbLine
 10
388.01
 20
230.697
 30
2.65628e-13
 11
360
 21
288.697
 31
3.0453e-13
  0
LINE
  5
B43
330
A02
100
AcDbEntity
  8
Fusion002
100
AcDbLine
 10
360
 20
288.697
 30
3.0453e-13
 11
360
 21
288.697
 31
25
  0
LINE
  5
B44
330
A02
100
AcDbEntity
  8
Fusion002
100
AcDbLine
 10
388.01
 20
230.697
 30
25
 11
360
 21
288.697
 31
25
  0
LINE
  5
B45
330
A02
100
AcDbEntity
  8
Fusion002
100
AcDbLine
 10
388.01
 20
230.697
 30
2.64966e-13
 11
388.01
 21
230.697
 31
25
  0
LINE
  5
B46
330
A02
100
AcDbEntity
  8
Fusion002
100
AcDbLine
 10
390
 20
178
 30
2.25073e-13
 11
390
 21
222
 31
2.59303e-13
  0
LINE
  5
B47
330
A02
100
AcDbEntity
  8
Fusion002
100
AcDbLine
 10
390
 20
222
 30
2.59303e-13
 11
390
 21
222
 31
25
  0
LINE
  5
B48
330
A02
100
AcDbEntity
  8
Fusion002
100
AcDbLine
 10
390
 20
178
 30
25
 11
390
 21
222
 31
25
  0
LINE
  5
B49
330
A02
100
AcDbEntity
  8
Fusion002
100
AcDbLine
 10
390
 20
178
 30
2.23377e-13
 11
390
 21
178
 31
25
  0
LINE
  5
B4A
330
A02
100
AcDbEntity
  8
Fusion002
100
AcDbLine
 10
360
 20
111.303
 30
1.66524e-13
 11
388.01
 21
169.303
 31
2.17865e-13
  0
LINE
  5
B4B
330
A02
100
AcDbEntity
  8
Fusion002
100
AcDbLine
 10
388.01
 20
169.303
 30
2.17865e-13
 11
388.01
 21
169.303
 31
25
  0
LINE
  5
B4C
330
A02
100
AcDbEntity
  8
Fusion002
100
AcDbLine
 10
360
 20
111.303
 30
25
 11
388.01
 21
169.303
 31
25
  0
LINE
  5
B4D
330
A02
100
AcDbEntity
  8
Fusion002
100
AcDbLine
 10
360
 20
111.303
 30
1.67132e-13
 11
360
 21
111.303
 31
25
  0
LINE
  5
B4E
330
A02
100
AcDbEntity
  8
Fusion002
100
AcDbLine
 10
341.99
 20
100
 30
1.53733e-13
 11
341.99
 21
100
 31
25
  0
LINE
  5
B4F
330
A02
100
AcDbEntity
  8
Fusion002
100
AcDbLine
 10
341.99
 20
100
 30
25
 11
261.99
 21
100
 31
25
  0
LINE
  5
B50
330
A02
100
AcDbEntity
  8
Fusion002
100
AcDbLine
 10
261.99
 20
100
 30
1.37668e-13
 11
261.99
 21
100
 31
25
  0
LINE
  5
B51
330
A02
100
AcDbEntity
  8
Fusion002
100
AcDbLine
 10
341.99
 20
100
 30
1.53733e-13
 11
261.99
 21
100
 31
1.35969e-13
  0
LINE
  5
B52
330
A02
100
AcDbEntity
  8
Fusion002
100
AcDbLine
 10
7.31639
 20
1.38628
 30
3.2449e-15
 11
7.31639
 21
1.38628
 31
25
  0
ARC
  5
B53
330
A02
100
AcDbEntity
  8
Fusion002
100
AcDbCircle
 10
-4.44089e-15
 20
20
 30
1.55591e-14
 40
20
100
AcDbArc
 50
-90
 51
-68.542
  0
LINE
  5
B54
330
A02
100
AcDbEntity
  8
Fusion002
100
AcDbLine
 10
-1.22465e-15
 20
-2.71926e-31
 30
-2.71926e-31
 11
-6.77576e-15
 21
-1.94489e-14
 31
25
  0
ARC
  5
B55
330
A02
100
AcDbEntity
  8
Fusion002
100
AcDbCircle
 10
-5.73248e-15
 20
20
 30
25
 40
20
100
AcDbArc
 50
-90
 51
-68.542
  0
LINE
  5
B56
330
A02
100
AcDbEntity
  8
Fusion002
100
AcDbLine
 10
-155
 20
-3.44169e-14
 30
-3.55271e-14
 11
-155
 21
-5.38658e-14
 31
25
  0
ARC
  5
B57
330
A02
100
AcDbEntity
  8
Fusion002
100
AcDbCircle
 10
-155
 20
5
 30
-3.05271e-14
 40
5
100
AcDbArc
 50
-180
 51
-90
  0
LINE
  5
B58
330
A02
100
AcDbEntity
  8
Fusion002
100
AcDbLine
 10
-160
 20
5
 30
-3.16374e-14
 11
-160
 21
5
 31
25
  0
ARC
  5
B59
330
A02
100
AcDbEntity
  8
Fusion002
100
AcDbCircle
 10
-155
 20
5
 30
25
 40
5
100
AcDbArc
 50
180
 51
-90
  0
ARC
  5
B5A
330
A02
100
AcDbEntity
  8
Fusion002
100
AcDbCircle
 10
261.99
 20
80
 30
25
 40
20
100
AcDbArc
 50
90
 51
111.458
  0
LINE
  5
B5B
330
A02
100
AcDbEntity
  8
Fusion002
100
AcDbLine
 10
254.674
 20
98.6137
 30
1.33266e-13
 11
254.674
 21
98.6137
 31
25
  0
ARC
  5
B5C
330
A02
100
AcDbEntity
  8
Fusion002
100
AcDbCircle
 10
261.99
 20
80
 30
1.2041e-13
 40
20
100
AcDbArc
 50
90
 51
111.458
  0
LINE
  5
B5D
330
A02
100
AcDbEntity
  8
Fusion002
100
AcDbLine
 10
261.99
 20
100
 30
1.37668e-13
 11
261.99
 21
100
 31
25
  0
LINE
  5
B5E
330
A02
100
AcDbEntity
  8
Fusion002
100
AcDbLine
 10
-160
 20
135
 30
6.95e-14
 11
-160
 21
135
 31
25
  0
ARC
  5
B5F
330
A02
100
AcDbEntity
  8
Fusion002
100
AcDbCircle
 10
-140
 20
135
 30
7.39377e-14
 40
20
100
AcDbArc
 50
109.835
 51
180
  0
LINE
  5
B60
330
A02
100
AcDbEntity
  8
Fusion002
100
AcDbLine
 10
-146.786
 20
153.814
 30
8.7067e-14
 11
-146.786
 21
153.814
 31
25
  0
ARC
  5
B61
330
A02
100
AcDbEntity
  8
Fusion002
100
AcDbCircle
 10
-140
 20
135
 30
25
 40
20
100
AcDbArc
 50
109.835
 51
180
  0
LINE
  5
B62
330
A02
100
AcDbEntity
  8
Fusion002
100
AcDbLine
 10
255.204
 20
298.814
 30
2.88921e-13
 11
255.204
 21
298.814
 31
25
  0
ARC
  5
B63
330
A02
100
AcDbEntity
  8
Fusion002
100
AcDbCircle
 10
261.99
 20
280
 30
2.76001e-13
 40
20
100
AcDbArc
 50
90
 51
109.835
  0
LINE
  5
B64
330
A02
100
AcDbEntity
  8
Fusion002
100
AcDbLine
 10
261.99
 20
300
 30
2.9156e-13
 11
261.99
 21
300
 31
25
  0
ARC
  5
B65
330
A02
100
AcDbEntity
  8
Fusion002
100
AcDbCircle
 10
261.99
 20
280
 30
25
 40
20
100
AcDbArc
 50
90
 51
109.835
  0
LINE
  5
B66
330
A02
100
AcDbEntity
  8
Fusion002
100
AcDbLine
 10
341.99
 20
300
 30
3.09974e-13
 11
341.99
 21
300
 31
25
  0
ARC
  5
B67
330
A02
100
AcDbEntity
  8
Fusion002
100
AcDbCircle
 10
341.99
 20
280
 30
2.93765e-13
 40
20
100
AcDbArc
 50
25.7772
 51
90
  0
LINE
  5
B68
330
A02
100
AcDbEntity
  8
Fusion002
100
AcDbLine
 10
360
 20
288.697
 30
3.0453e-13
 11
360
 21
288.697
 31
25
  0
ARC
  5
B69
330
A02
100
AcDbEntity
  8
Fusion002
100
AcDbCircle
 10
341.99
 20
280
 30
25
 40
20
100
AcDbArc
 50
25.7772
 51
90
  0
LINE
  5
B6A
330
A02
100
AcDbEntity
  8
Fusion002
100
AcDbLine
 10
388.01
 20
230.697
 30
2.64966e-13
 11
388.01
 21
230.697
 31
25
  0
ARC
  5
B6B
330
A02
100
AcDbEntity
  8
Fusion002
100
AcDbCircle
 10
370
 20
222
 30
2.54863e-13
 40
20
100
AcDbArc
 50
0
 51
25.7772
  0
LINE
  5
B6C
330
A02
100
AcDbEntity
  8
Fusion002
100
AcDbLine
 10
390
 20
222
 30
2.59303e-13
 11
390
 21
222
 31
25
  0
ARC
  5
B6D
330
A02
100
AcDbEntity
  8
Fusion002
100
AcDbCircle
 10
370
 20
222
 30
25
 40
20
100
AcDbArc
 50
0
 51
25.7772
  0
LINE
  5
B6E
330
A02
100
AcDbEntity
  8
Fusion002
100
AcDbLine
 10
390
 20
178
 30
2.23377e-13
 11
390
 21
178
 31
25
  0
ARC
  5
B6F
330
A02
100
AcDbEntity
  8
Fusion002
100
AcDbCircle
 10
370
 20
178
 30
2.20633e-13
 40
20
100
AcDbArc
 50
-25.7772
 51
0
  0
LINE
  5
B70
330
A02
100
AcDbEntity
  8
Fusion002
100
AcDbLine
 10
388.01
 20
169.303
 30
2.17865e-13
 11
388.01
 21
169.303
 31
25
  0
ARC
  5
B71
330
A02
100
AcDbEntity
  8
Fusion002
100
AcDbCircle
 10
370
 20
178
 30
25
 40
20
100
AcDbArc
 50
-25.7772
 51
0
  0
LINE
  5
B72
330
A02
100
AcDbEntity
  8
Fusion002
100
AcDbLine
 10
360
 20
111.303
 30
1.67132e-13
 11
360
 21
111.303
 31
25
  0
ARC
  5
B73
330
A02
100
AcDbEntity
  8
Fusion002
100
AcDbCircle
 10
341.99
 20
120
 30
1.69292e-13
 40
20
100
AcDbArc
 50
-90
 51
-25.7772
  0
LINE
  5
B74
330
A02
100
AcDbEntity
  8
Fusion002
100
AcDbLine
 10
341.99
 20
100
 30
1.53733e-13
 11
341.99
 21
100
 31
25
  0
ARC
  5
B75
330
A02
100
AcDbEntity
  8
Fusion002
100
AcDbCircle
 10
341.99
 20
120
 30
25
 40
20
100
AcDbArc
 50
-90
 51
-25.7772
  0
CIRCLE
  5
B76
330
A02
100
AcDbEntity
  8
Fusion002
100
AcDbCircle
 10
-80
 20
105
 40
18.25
  0
SPLINE
  5
B77
330
A02
100
AcDbEntity
  8
Fusion002
100
AcDbSpline
210
0
220
0
230
1
 70
8
 71
1
 72
4
 73
2
 74
0
 40
-25
 40
-25
 40
0
 40
0
 10
-80
 20
123.25
 30
25
 10
-80
 20
123.25
 30
7.81597e-14
  0
CIRCLE
  5
B78
330
A02
100
AcDbEntity
  8
Fusion002
100
AcDbCircle
 10
-80
 20
105
 40
18.25
  0
SPLINE
  5
B79
330
A02
100
AcDbEntity
  8
Fusion002
100
AcDbSpline
210
0
220
0
230
1
 70
8
 71
1
 72
4
 73
2
 74
0
 40
-25
 40
-25
 40
0
 40
0
 10
-80
 20
123.25
 30
25
 10
-80
 20
123.25
 30
7.81597e-14
  0
CIRCLE
  5
B7A
330
A02
100
AcDbEntity
  8
Fusion002
100
AcDbCircle
 10
-80
 20
84
 40
1.65
  0
SPLINE
  5
B7B
330
A02
100
AcDbEntity
  8
Fusion002
100
AcDbSpline
210
0
220
0
230
1
 70
8
 71
1
 72
4
 73
2
 74
0
 40
-25
 40
-25
 40
0
 40
0
 10
-80
 20
85.65
 30
25
 10
-80
 20
85.65
 30
4.79616e-14
  0
CIRCLE
  5
B7C
330
A02
100
AcDbEntity
  8
Fusion002
100
AcDbCircle
 10
-80
 20
84
 40
1.65
  0
SPLINE
  5
B7D
330
A02
100
AcDbEntity
  8
Fusion002
100
AcDbSpline
210
0
220
0
230
1
 70
8
 71
1
 72
4
 73
2
 74
0
 40
-25
 40
-25
 40
0
 40
0
 10
-80
 20
85.65
 30
25
 10
-80
 20
85.65
 30
4.79616e-14
  0
CIRCLE
  5
B7E
330
A02
100
AcDbEntity
  8
Fusion002
100
AcDbCircle
 10
-80
 20
126
 40
1.65
  0
SPLINE
  5
B7F
330
A02
100
AcDbEntity
  8
Fusion002
100
AcDbSpline
210
0
220
0
230
1
 70
8
 71
1
 72
4
 73
2
 74
0
 40
-25
 40
-25
 40
0
 40
0
 10
-80
 20
127.65
 30
25
 10
-80
 20
127.65
 30
8.17124e-14
  0
CIRCLE
  5
B80
330
A02
100
AcDbEntity
  8
Fusion002
100
AcDbCircle
 10
-80
 20
126
 40
1.65
  0
SPLINE
  5
B81
330
A02
100
AcDbEntity
  8
Fusion002
100
AcDbSpline
210
0
220
0
230
1
 70
8
 71
1
 72
4
 73
2
 74
0
 40
-25
 40
-25
 40
0
 40
0
 10
-80
 20
127.65
 30
25
 10
-80
 20
127.65
 30
8.17124e-14
  0
CIRCLE
  5
B82
330
A02
100
AcDbEntity
  8
Fusion002
100
AcDbCircle
 10
-101
 20
105
 40
1.65
  0
SPLINE
  5
B83
330
A02
100
AcDbEntity
  8
Fusion002
100
AcDbSpline
210
0
220
0
230
1
 70
8
 71
1
 72
4
 73
2
 74
0
 40
-25
 40
-25
 40
0
 40
0
 10
-101
 20
106.65
 30
25
 10
-101
 20
106.65
 30
6.03961e-14
  0
CIRCLE
  5
B84
330
A02
100
AcDbEntity
  8
Fusion002
100
AcDbCircle
 10
-101
 20
105
 40
1.65
  0
SPLINE
  5
B85
330
A02
100
AcDbEntity
  8
Fusion002
100
AcDbSpline
210
0
220
0
230
1
 70
8
 71
1
 72
4
 73
2
 74
0
 40
-25
 40
-25
 40
0
 40
0
 10
-101
 20
106.65
 30
25
 10
-101
 20
106.65
 30
6.03961e-14
  0
CIRCLE
  5
B86
330
A02
100
AcDbEntity
  8
Fusion002
100
AcDbCircle
 10
-95.5563
 20
120.556
 40
1.65
  0
SPLINE
  5
B87
330
A02
100
AcDbEntity
  8
Fusion002
100
AcDbSpline
210
0
220
0
230
1
 70
8
 71
1
 72
4
 73
2
 74
0
 40
-25
 40
-25
 40
0
 40
0
 10
-95.5563
 20
122.206
 30
25
 10
-95.5563
 20
122.206
 30
7.4607e-14
  0
CIRCLE
  5
B88
330
A02
100
AcDbEntity
  8
Fusion002
100
AcDbCircle
 10
-95.5563
 20
120.556
 40
1.65
  0
SPLINE
  5
B89
330
A02
100
AcDbEntity
  8
Fusion002
100
AcDbSpline
210
0
220
0
230
1
 70
8
 71
1
 72
4
 73
2
 74
0
 40
-25
 40
-25
 40
0
 40
0
 10
-95.5563
 20
122.206
 30
25
 10
-95.5563
 20
122.206
 30
7.4607e-14
  0
CIRCLE
  5
B8A
330
A02
100
AcDbEntity
  8
Fusion002
100
AcDbCircle
 10
-95.5563
 20
89.4437
 40
1.65
  0
SPLINE
  5
B8B
330
A02
100
AcDbEntity
  8
Fusion002
100
AcDbSpline
210
0
220
0
230
1
 70
8
 71
1
 72
4
 73
2
 74
0
 40
-25
 40
-25
 40
0
 40
0
 10
-95.5563
 20
91.0937
 30
25
 10
-95.5563
 20
91.0937
 30
4.9738e-14
  0
CIRCLE
  5
B8C
330
A02
100
AcDbEntity
  8
Fusion002
100
AcDbCircle
 10
-95.5563
 20
89.4437
 40
1.65
  0
SPLINE
  5
B8D
330
A02
100
AcDbEntity
  8
Fusion002
100
AcDbSpline
210
0
220
0
230
1
 70
8
 71
1
 72
4
 73
2
 74
0
 40
-25
 40
-25
 40
0
 40
0
 10
-95.5563
 20
91.0937
 30
25
 10
-95.5563
 20
91.0937
 30
4.9738e-14
  0
CIRCLE
  5
B8E
330
A02
100
AcDbEntity
  8
Fusion002
100
AcDbCircle
 10
-64.4437
 20
120.556
 40
1.65
  0
SPLINE
  5
B8F
330
A02
100
AcDbEntity
  8
Fusion002
100
AcDbSpline
210
0
220
0
230
1
 70
8
 71
1
 72
4
 73
2
 74
0
 40
-25
 40
-25
 40
0
 40
0
 10
-64.4437
 20
122.206
 30
25
 10
-64.4437
 20
122.206
 30
8.17124e-14
  0
CIRCLE
  5
B90
330
A02
100
AcDbEntity
  8
Fusion002
100
AcDbCircle
 10
-64.4437
 20
120.556
 40
1.65
  0
SPLINE
  5
B91
330
A02
100
AcDbEntity
  8
Fusion002
100
AcDbSpline
210
0
220
0
230
1
 70
8
 71
1
 72
4
 73
2
 74
0
 40
-25
 40
-25
 40
0
 40
0
 10
-64.4437
 20
122.206
 30
25
 10
-64.4437
 20
122.206
 30
8.17124e-14
  0
CIRCLE
  5
B92
330
A02
100
AcDbEntity
  8
Fusion002
100
AcDbCircle
 10
-64.4437
 20
89.4437
 40
1.65
  0
SPLINE
  5
B93
330
A02
100
AcDbEntity
  8
Fusion002
100
AcDbSpline
210
0
220
0
230
1
 70
8
 71
1
 72
4
 73
2
 74
0
 40
-25
 40
-25
 40
0
 40
0
 10
-64.4437
 20
91.0937
 30
25
 10
-64.4437
 20
91.0937
 30
5.68434e-14
  0
CIRCLE
  5
B94
330
A02
100
AcDbEntity
  8
Fusion002
100
AcDbCircle
 10
-64.4437
 20
89.4437
 40
1.65
  0
SPLINE
  5
B95
330
A02
100
AcDbEntity
  8
Fusion002
100
AcDbSpline
210
0
220
0
230
1
 70
8
 71
1
 72
4
 73
2
 74
0
 40
-25
 40
-25
 40
0
 40
0
 10
-64.4437
 20
91.0937
 30
25
 10
-64.4437
 20
91.0937
 30
5.68434e-14
  0
CIRCLE
  5
B96
330
A02
100
AcDbEntity
  8
Fusion002
100
AcDbCircle
 10
-59
 20
105
 40
1.65
  0
SPLINE
  5
B97
330
A02
100
AcDbEntity
  8
Fusion002
100
AcDbSpline
210
0
220
0
230
1
 70
8
 71
1
 72
4
 73
2
 74
0
 40
-25
 40
-25
 40
0
 40
0
 10
-59
 20
106.65
 30
25
 10
-59
 20
106.65
 30
7.10543e-14
  0
CIRCLE
  5
B98
330
A02
100
AcDbEntity
  8
Fusion002
100
AcDbCircle
 10
-59
 20
105
 40
1.65
  0
SPLINE
  5
B99
330
A02
100
AcDbEntity
  8
Fusion002
100
AcDbSpline
210
0
220
0
230
1
 70
8
 71
1
 72
4
 73
2
 74
0
 40
-25
 40
-25
 40
0
 40
0
 10
-59
 20
106.65
 30
25
 10
-59
 20
106.65
 30
7.10543e-14
  0
ENDSEC
  0
SECTION
  2
OBJECTS
  0
DICTIONARY
  5
F000
330
0
100
AcDbDictionary
  3
ACAD_GROUP
350
F001
  0
DICTIONARY
  5
F001
330
F000
100
AcDbDictionary
  0
ENDSEC
  0
EOF