  0
SECTION
  2
HEADER
  9
$ACADVER
  1
AC1014
  9
$HANDSEED
  5
FFFF
  9
$MEASUREMENT
 70
     1
  0
ENDSEC
  0
SECTION
  2
TABLES
  0
TABLE
  2
VPORT
  5
8
330
0
100
AcDbSymbolTable
 70
     4
  0
VPORT
  5
2E
330
8
100
AcDbSymbolTableRecord
100
AcDbViewportTableRecord
  2
*ACTIVE
 70
     0
 10
0.0
 20
0.0
 11
1.0
 21
1.0
 12
210.0
 22
148.5
 13
0.0
 23
0.0
 14
10.0
 24
10.0
 15
10.0
 25
10.0
 16
0.0
 26
0.0
 36
1.0
 17
0.0
 27
0.0
 37
0.0
 40
341.0
 41
1.24
 42
50.0
 43
0.0
 44
0.0
 50
0.0
 51
0.0
 71
     0
 72
   100
 73
     1
 74
     3
 75
     0
 76
     0
 77
     0
 78
     0
  0
ENDTAB
  0
TABLE
  2
LTYPE
  5
5
330
0
100
AcDbSymbolTable
 70
     1
  0
LTYPE
  5
14
330
5
100
AcDbSymbolTableRecord
100
AcDbLinetypeTableRecord
  2
BYBLOCK
 70
     0
  3

 72
    65
 73
     0
 40
0.0
  0
LTYPE
  5
15
330
5
100
AcDbSymbolTableRecord
100
AcDbLinetypeTableRecord
  2
BYLAYER
 70
     0
  3

 72
    65
 73
     0
 40
0.0
  0
LTYPE
  5
16
330
5
100
AcDbSymbolTableRecord
100
AcDbLinetypeTableRecord
  2
CONTINUOUS
 70
     0
  3
Solid line
 72
    65
 73
     0
 40
0.0
  0
ENDTAB
  0
TABLE
  2
LAYER
  5
2
100
AcDbSymbolTable
 70
2
  0
LAYER
  5
50
100
AcDbSymbolTableRecord
100
AcDbLayerTableRecord
  2
0
 70
0
  6
CONTINUOUS
  0
LAYER
  5
51
100
AcDbSymbolTableRecord
100
AcDbLayerTableRecord
  2
View003
 70
0
  6
CONTINUOUS
  0
ENDTAB
  0
TABLE
  2
STYLE
  5
3
330
0
100
AcDbSymbolTable
 70
     1
  0
STYLE
  5
11
330
3
100
AcDbSymbolTableRecord
100
AcDbTextStyleTableRecord
  2
STANDARD
 70
     0
 40
0.0
 41
1.0
 50
0.0
 71
     0
 42
2.5
  3
txt
  4

  0
ENDTAB
  0
TABLE
  2
VIEW
  5
6
330
0
100
AcDbSymbolTable
 70
     0
  0
ENDTAB
  0
TABLE
  2
UCS
  5
7
330
0
100
AcDbSymbolTable
 70
     0
  0
ENDTAB
  0
TABLE
  2
APPID
  5
9
330
0
100
AcDbSymbolTable
 70
     2
  0
APPID
  5
12
330
9
100
AcDbSymbolTableRecord
100
AcDbRegAppTableRecord
  2
ACAD
 70
     0
  0
ENDTAB
  0
TABLE
  2
DIMSTYLE
  5
A
330
0
100
AcDbSymbolTable
 70
     1
  0
DIMSTYLE
105
27
330
A
100
AcDbSymbolTableRecord
100
AcDbDimStyleTableRecord
  2
ISO-25
 70
     0
  3

  4

  5

  6

  7

 40
1.0
 41
2.5
 42
0.625
 43
3.75
 44
1.25
 45
0.0
 46
0.0
 47
0.0
 48
0.0
140
2.5
141
2.5
142
0.0
143
0.03937007874016
144
1.0
145
0.0
146
1.0
147
0.625
 71
     0
 72
     0
 73
     0
 74
     0
 75
     0
 76
     0
 77
     1
 78
     8
170
     0
171
     3
172
     1
173
     0
174
     0
175
     0
176
     0
177
     0
178
     0
270
     2
271
     2
272
     2
273
     2
274
     3
340
11
275
     0
280
     0
281
     0
282
     0
283
     0
284
     8
285
     0
286
     0
287
     3
288
     0
  0
ENDTAB
  0
TABLE
  2
BLOCK_RECORD
  5
1
330
0
100
AcDbSymbolTable
 70
     1
  0
BLOCK_RECORD
  5
1F
330
1
100
AcDbSymbolTableRecord
100
AcDbBlockTableRecord
  2
*MODEL_SPACE
  0
BLOCK_RECORD
  5
1B
330
1
100
AcDbSymbolTableRecord
100
AcDbBlockTableRecord
  2
*PAPER_SPACE
  0
ENDTAB
  0
ENDSEC
  0
SECTION
  2
BLOCKS
  0
BLOCK
  5
20
330
1F
100
AcDbEntity
  8
0
100
AcDbBlockBegin
  2
*MODEL_SPACE
 70
     0
 10
0.0
 20
0.0
 30
0.0
  3
*MODEL_SPACE
  1

  0
ENDBLK
  5
21
330
1F
100
AcDbEntity
  8
0
100
AcDbBlockEnd
  0
BLOCK
  5
1C
330
1B
100
AcDbEntity
 67
     1
  8
0
100
AcDbBlockBegin
  2
*PAPER_SPACE
  1

  0
ENDBLK
  5
1D
330
1B
100
AcDbEntity
 67
     1
  8
0
100
AcDbBlockEnd
  0
ENDSEC
  0
SECTION
  2
ENTITIES
  0
SPLINE
  5
100
100
AcDbEntity
  8
View003
 62
7
100
AcDbSpline
 70
8
 71
3
 72
8
 73
4
 74
0
 40
0
 40
0
 40
0
 40
0
 40
1
 40
1
 40
1
 40
1
 10
608.856800
 20
216.867638
 30
0.0
 10
608.856800
 20
217.975163
 30
0.0
 10
608.265943
 20
218.998557
 30
0.0
 10
607.306798
 20
219.552319
 30
0.0
  0
SPLINE
  5
101
100
AcDbEntity
  8
View003
 62
7
100
AcDbSpline
 70
8
 71
3
 72
8
 73
4
 74
0
 40
0
 40
0
 40
0
 40
0
 40
1
 40
1
 40
1
 40
1
 10
607.306798
 20
219.552319
 30
0.0
 10
606.347654
 20
220.106082
 30
0.0
 10
605.165940
 20
220.106082
 30
0.0
 10
604.206795
 20
219.552319
 30
0.0
  0
SPLINE
  5
102
100
AcDbEntity
  8
View003
 62
7
100
AcDbSpline
 70
8
 71
3
 72
8
 73
4
 74
0
 40
0
 40
0
 40
0
 40
0
 40
1
 40
1
 40
1
 40
1
 10
604.206795
 20
219.552319
 30
0.0
 10
603.247651
 20
218.998557
 30
0.0
 10
602.656794
 20
217.975163
 30
0.0
 10
602.656794
 20
216.867638
 30
0.0
  0
SPLINE
  5
103
100
AcDbEntity
  8
View003
 62
7
100
AcDbSpline
 70
8
 71
3
 72
8
 73
4
 74
0
 40
0
 40
0
 40
0
 40
0
 40
1
 40
1
 40
1
 40
1
 10
602.656794
 20
216.867638
 30
0.0
 10
602.656794
 20
215.760114
 30
0.0
 10
603.247651
 20
214.736719
 30
0.0
 10
604.206795
 20
214.182957
 30
0.0
  0
SPLINE
  5
104
100
AcDbEntity
  8
View003
 62
7
100
AcDbSpline
 70
8
 71
3
 72
8
 73
4
 74
0
 40
0
 40
0
 40
0
 40
0
 40
1
 40
1
 40
1
 40
1
 10
604.206795
 20
214.182957
 30
0.0
 10
605.165940
 20
213.629195
 30
0.0
 10
606.347654
 20
213.629195
 30
0.0
 10
607.306798
 20
214.182957
 30
0.0
  0
SPLINE
  5
105
100
AcDbEntity
  8
View003
 62
7
100
AcDbSpline
 70
8
 71
3
 72
8
 73
4
 74
0
 40
0
 40
0
 40
0
 40
0
 40
1
 40
1
 40
1
 40
1
 10
607.306798
 20
214.182957
 30
0.0
 10
608.265943
 20
214.736719
 30
0.0
 10
608.856800
 20
215.760114
 30
0.0
 10
608.856800
 20
216.867638
 30
0.0
  0
SPLINE
  5
106
100
AcDbEntity
  8
View003
 62
7
100
AcDbSpline
 70
8
 71
3
 72
8
 73
4
 74
0
 40
0
 40
0
 40
0
 40
0
 40
1
 40
1
 40
1
 40
1
 10
608.856800
 20
176.867647
 30
0.0
 10
608.856800
 20
177.975172
 30
0.0
 10
608.265943
 20
178.998566
 30
0.0
 10
607.306798
 20
179.552329
 30
0.0
  0
SPLINE
  5
107
100
AcDbEntity
  8
View003
 62
7
100
AcDbSpline
 70
8
 71
3
 72
8
 73
4
 74
0
 40
0
 40
0
 40
0
 40
0
 40
1
 40
1
 40
1
 40
1
 10
607.306798
 20
179.552329
 30
0.0
 10
606.347654
 20
180.106091
 30
0.0
 10
605.165940
 20
180.106091
 30
0.0
 10
604.206795
 20
179.552329
 30
0.0
  0
SPLINE
  5
108
100
AcDbEntity
  8
View003
 62
7
100
AcDbSpline
 70
8
 71
3
 72
8
 73
4
 74
0
 40
0
 40
0
 40
0
 40
0
 40
1
 40
1
 40
1
 40
1
 10
604.206795
 20
179.552329
 30
0.0
 10
603.247651
 20
178.998566
 30
0.0
 10
602.656794
 20
177.975172
 30
0.0
 10
602.656794
 20
176.867647
 30
0.0
  0
SPLINE
  5
109
100
AcDbEntity
  8
View003
 62
7
100
AcDbSpline
 70
8
 71
3
 72
8
 73
4
 74
0
 40
0
 40
0
 40
0
 40
0
 40
1
 40
1
 40
1
 40
1
 10
602.656794
 20
176.867647
 30
0.0
 10
602.656794
 20
175.760123
 30
0.0
 10
603.247651
 20
174.736728
 30
0.0
 10
604.206795
 20
174.182966
 30
0.0
  0
SPLINE
  5
10a
100
AcDbEntity
  8
View003
 62
7
100
AcDbSpline
 70
8
 71
3
 72
8
 73
4
 74
0
 40
0
 40
0
 40
0
 40
0
 40
1
 40
1
 40
1
 40
1
 10
604.206795
 20
174.182966
 30
0.0
 10
605.165940
 20
173.629204
 30
0.0
 10
606.347654
 20
173.629204
 30
0.0
 10
607.306798
 20
174.182966
 30
0.0
  0
SPLINE
  5
10b
100
AcDbEntity
  8
View003
 62
7
100
AcDbSpline
 70
8
 71
3
 72
8
 73
4
 74
0
 40
0
 40
0
 40
0
 40
0
 40
1
 40
1
 40
1
 40
1
 10
607.306798
 20
174.182966
 30
0.0
 10
608.265943
 20
174.736728
 30
0.0
 10
608.856800
 20
175.760123
 30
0.0
 10
608.856800
 20
176.867647
 30
0.0
  0
LWPOLYLINE
  5
10c
100
AcDbEntity
  8
View003
 62
7
100
AcDbPolyline
 90
1
 70
1
 10
608.856800
 20
216.867638
 30
0.0
  0
SPLINE
  5
10d
100
AcDbEntity
  8
View003
 62
7
100
AcDbSpline
 70
8
 71
3
 72
8
 73
4
 74
0
 40
0
 40
0
 40
0
 40
0
 40
1
 40
1
 40
1
 40
1
 10
468.856833
 20
286.867619
 30
0.0
 10
468.856833
 20
287.975142
 30
0.0
 10
468.265977
 20
288.998535
 30
0.0
 10
467.306834
 20
289.552297
 30
0.0
  0
SPLINE
  5
10e
100
AcDbEntity
  8
View003
 62
7
100
AcDbSpline
 70
8
 71
3
 72
8
 73
4
 74
0
 40
0
 40
0
 40
0
 40
0
 40
1
 40
1
 40
1
 40
1
 10
467.306834
 20
289.552297
 30
0.0
 10
466.347691
 20
290.106058
 30
0.0
 10
465.165978
 20
290.106058
 30
0.0
 10
464.206835
 20
289.552297
 30
0.0
  0
SPLINE
  5
10f
100
AcDbEntity
  8
View003
 62
7
100
AcDbSpline
 70
8
 71
3
 72
8
 73
4
 74
0
 40
0
 40
0
 40
0
 40
0
 40
1
 40
1
 40
1
 40
1
 10
464.206835
 20
289.552297
 30
0.0
 10
463.247692
 20
288.998535
 30
0.0
 10
462.656835
 20
287.975142
 30
0.0
 10
462.656835
 20
286.867619
 30
0.0
  0
SPLINE
  5
110
100
AcDbEntity
  8
View003
 62
7
100
AcDbSpline
 70
8
 71
3
 72
8
 73
4
 74
0
 40
0
 40
0
 40
0
 40
0
 40
1
 40
1
 40
1
 40
1
 10
462.656835
 20
286.867619
 30
0.0
 10
462.656378
 20
285.759791
 30
0.0
 10
463.247134
 20
284.735920
 30
0.0
 10
464.206465
 20
284.181873
 30
0.0
  0
SPLINE
  5
111
100
AcDbEntity
  8
View003
 62
7
100
AcDbSpline
 70
8
 71
3
 72
8
 73
4
 74
0
 40
0
 40
0
 40
0
 40
0
 40
1
 40
1
 40
1
 40
1
 10
464.206465
 20
284.181873
 30
0.0
 10
465.165796
 20
283.627827
 30
0.0
 10
466.347873
 20
283.627827
 30
0.0
 10
467.307204
 20
284.181873
 30
0.0
  0
SPLINE
  5
112
100
AcDbEntity
  8
View003
 62
7
100
AcDbSpline
 70
8
 71
3
 72
8
 73
4
 74
0
 40
0
 40
0
 40
0
 40
0
 40
1
 40
1
 40
1
 40
1
 10
467.307204
 20
284.181873
 30
0.0
 10
468.266535
 20
284.735920
 30
0.0
 10
468.857291
 20
285.759791
 30
0.0
 10
468.856833
 20
286.867619
 30
0.0
  0
LWPOLYLINE
  5
113
100
AcDbEntity
  8
View003
 62
7
100
AcDbPolyline
 90
1
 70
1
 10
608.856800
 20
176.867647
 30
0.0
  0
SPLINE
  5
114
100
AcDbEntity
  8
View003
 62
7
100
AcDbSpline
 70
8
 71
3
 72
8
 73
4
 74
0
 40
0
 40
0
 40
0
 40
0
 40
1
 40
1
 40
1
 40
1
 10
468.856833
 20
106.868069
 30
0.0
 10
468.856833
 20
107.975592
 30
0.0
 10
468.265977
 20
108.998985
 30
0.0
 10
467.306834
 20
109.552747
 30
0.0
  0
SPLINE
  5
115
100
AcDbEntity
  8
View003
 62
7
100
AcDbSpline
 70
8
 71
3
 72
8
 73
4
 74
0
 40
0
 40
0
 40
0
 40
0
 40
1
 40
1
 40
1
 40
1
 10
467.306834
 20
109.552747
 30
0.0
 10
466.347691
 20
110.106508
 30
0.0
 10
465.165978
 20
110.106508
 30
0.0
 10
464.206835
 20
109.552747
 30
0.0
  0
SPLINE
  5
116
100
AcDbEntity
  8
View003
 62
7
100
AcDbSpline
 70
8
 71
3
 72
8
 73
4
 74
0
 40
0
 40
0
 40
0
 40
0
 40
1
 40
1
 40
1
 40
1
 10
464.206835
 20
109.552747
 30
0.0
 10
463.247692
 20
108.998985
 30
0.0
 10
462.656835
 20
107.975592
 30
0.0
 10
462.656835
 20
106.868069
 30
0.0
  0
SPLINE
  5
117
100
AcDbEntity
  8
View003
 62
7
100
AcDbSpline
 70
8
 71
3
 72
8
 73
4
 74
0
 40
0
 40
0
 40
0
 40
0
 40
1
 40
1
 40
1
 40
1
 10
462.656835
 20
106.868069
 30
0.0
 10
462.656378
 20
105.760241
 30
0.0
 10
463.247134
 20
104.736370
 30
0.0
 10
464.206465
 20
104.182324
 30
0.0
  0
SPLINE
  5
118
100
AcDbEntity
  8
View003
 62
7
100
AcDbSpline
 70
8
 71
3
 72
8
 73
4
 74
0
 40
0
 40
0
 40
0
 40
0
 40
1
 40
1
 40
1
 40
1
 10
464.206465
 20
104.182324
 30
0.0
 10
465.165796
 20
103.628277
 30
0.0
 10
466.347873
 20
103.628277
 30
0.0
 10
467.307204
 20
104.182324
 30
0.0
  0
SPLINE
  5
119
100
AcDbEntity
  8
View003
 62
7
100
AcDbSpline
 70
8
 71
3
 72
8
 73
4
 74
0
 40
0
 40
0
 40
0
 40
0
 40
1
 40
1
 40
1
 40
1
 10
467.307204
 20
104.182324
 30
0.0
 10
468.266535
 20
104.736370
 30
0.0
 10
468.857291
 20
105.760241
 30
0.0
 10
468.856833
 20
106.868069
 30
0.0
  0
LWPOLYLINE
  5
11a
100
AcDbEntity
  8
View003
 62
7
100
AcDbPolyline
 90
1
 70
1
 10
468.856833
 20
286.867619
 30
0.0
  0
SPLINE
  5
11b
100
AcDbEntity
  8
View003
 62
7
100
AcDbSpline
 70
8
 71
3
 72
8
 73
4
 74
0
 40
0
 40
0
 40
0
 40
0
 40
1
 40
1
 40
1
 40
1
 10
608.856800
 20
286.867619
 30
0.0
 10
608.856800
 20
287.975143
 30
0.0
 10
608.265943
 20
288.998538
 30
0.0
 10
607.306798
 20
289.552300
 30
0.0
  0
SPLINE
  5
11c
100
AcDbEntity
  8
View003
 62
7
100
AcDbSpline
 70
8
 71
3
 72
8
 73
4
 74
0
 40
0
 40
0
 40
0
 40
0
 40
1
 40
1
 40
1
 40
1
 10
607.306798
 20
289.552300
 30
0.0
 10
606.347654
 20
290.106062
 30
0.0
 10
605.165940
 20
290.106062
 30
0.0
 10
604.206795
 20
289.552300
 30
0.0
  0
SPLINE
  5
11d
100
AcDbEntity
  8
View003
 62
7
100
AcDbSpline
 70
8
 71
3
 72
8
 73
4
 74
0
 40
0
 40
0
 40
0
 40
0
 40
1
 40
1
 40
1
 40
1
 10
604.206795
 20
289.552300
 30
0.0
 10
603.247651
 20
288.998538
 30
0.0
 10
602.656794
 20
287.975143
 30
0.0
 10
602.656794
 20
286.867619
 30
0.0
  0
SPLINE
  5
11e
100
AcDbEntity
  8
View003
 62
7
100
AcDbSpline
 70
8
 71
3
 72
8
 73
4
 74
0
 40
0
 40
0
 40
0
 40
0
 40
1
 40
1
 40
1
 40
1
 10
602.656794
 20
286.867619
 30
0.0
 10
602.656794
 20
285.760094
 30
0.0
 10
603.247651
 20
284.736700
 30
0.0
 10
604.206795
 20
284.182937
 30
0.0
  0
SPLINE
  5
11f
100
AcDbEntity
  8
View003
 62
7
100
AcDbSpline
 70
8
 71
3
 72
8
 73
4
 74
0
 40
0
 40
0
 40
0
 40
0
 40
1
 40
1
 40
1
 40
1
 10
604.206795
 20
284.182937
 30
0.0
 10
605.165940
 20
283.629175
 30
0.0
 10
606.347654
 20
283.629175
 30
0.0
 10
607.306798
 20
284.182937
 30
0.0
  0
SPLINE
  5
120
100
AcDbEntity
  8
View003
 62
7
100
AcDbSpline
 70
8
 71
3
 72
8
 73
4
 74
0
 40
0
 40
0
 40
0
 40
0
 40
1
 40
1
 40
1
 40
1
 10
607.306798
 20
284.182937
 30
0.0
 10
608.265943
 20
284.736700
 30
0.0
 10
608.856800
 20
285.760094
 30
0.0
 10
608.856800
 20
286.867619
 30
0.0
  0
LWPOLYLINE
  5
121
100
AcDbEntity
  8
View003
 62
7
100
AcDbPolyline
 90
1
 70
1
 10
468.856833
 20
106.868069
 30
0.0
  0
SPLINE
  5
122
100
AcDbEntity
  8
View003
 62
7
100
AcDbSpline
 70
8
 71
3
 72
8
 73
4
 74
0
 40
0
 40
0
 40
0
 40
0
 40
1
 40
1
 40
1
 40
1
 10
608.856800
 20
106.868069
 30
0.0
 10
608.856800
 20
107.975593
 30
0.0
 10
608.265943
 20
108.998988
 30
0.0
 10
607.306798
 20
109.552750
 30
0.0
  0
SPLINE
  5
123
100
AcDbEntity
  8
View003
 62
7
100
AcDbSpline
 70
8
 71
3
 72
8
 73
4
 74
0
 40
0
 40
0
 40
0
 40
0
 40
1
 40
1
 40
1
 40
1
 10
607.306798
 20
109.552750
 30
0.0
 10
606.347654
 20
110.106512
 30
0.0
 10
605.165940
 20
110.106512
 30
0.0
 10
604.206795
 20
109.552750
 30
0.0
  0
SPLINE
  5
124
100
AcDbEntity
  8
View003
 62
7
100
AcDbSpline
 70
8
 71
3
 72
8
 73
4
 74
0
 40
0
 40
0
 40
0
 40
0
 40
1
 40
1
 40
1
 40
1
 10
604.206795
 20
109.552750
 30
0.0
 10
603.247651
 20
108.998988
 30
0.0
 10
602.656794
 20
107.975593
 30
0.0
 10
602.656794
 20
106.868069
 30
0.0
  0
SPLINE
  5
125
100
AcDbEntity
  8
View003
 62
7
100
AcDbSpline
 70
8
 71
3
 72
8
 73
4
 74
0
 40
0
 40
0
 40
0
 40
0
 40
1
 40
1
 40
1
 40
1
 10
602.656794
 20
106.868069
 30
0.0
 10
602.656794
 20
105.760545
 30
0.0
 10
603.247651
 20
104.737150
 30
0.0
 10
604.206795
 20
104.183388
 30
0.0
  0
SPLINE
  5
126
100
AcDbEntity
  8
View003
 62
7
100
AcDbSpline
 70
8
 71
3
 72
8
 73
4
 74
0
 40
0
 40
0
 40
0
 40
0
 40
1
 40
1
 40
1
 40
1
 10
604.206795
 20
104.183388
 30
0.0
 10
605.165940
 20
103.629625
 30
0.0
 10
606.347654
 20
103.629625
 30
0.0
 10
607.306798
 20
104.183388
 30
0.0
  0
SPLINE
  5
127
100
AcDbEntity
  8
View003
 62
7
100
AcDbSpline
 70
8
 71
3
 72
8
 73
4
 74
0
 40
0
 40
0
 40
0
 40
0
 40
1
 40
1
 40
1
 40
1
 10
607.306798
 20
104.183388
 30
0.0
 10
608.265943
 20
104.737150
 30
0.0
 10
608.856800
 20
105.760545
 30
0.0
 10
608.856800
 20
106.868069
 30
0.0
  0
LWPOLYLINE
  5
128
100
AcDbEntity
  8
View003
 62
7
100
AcDbPolyline
 90
1
 70
1
 10
608.856800
 20
286.867619
 30
0.0
  0
SPLINE
  5
129
100
AcDbEntity
  8
View003
 62
7
100
AcDbSpline
 70
8
 71
3
 72
8
 73
4
 74
0
 40
0
 40
0
 40
0
 40
0
 40
1
 40
1
 40
1
 40
1
 10
538.856801
 20
286.867619
 30
0.0
 10
538.859551
 20
287.976969
 30
0.0
 10
538.269298
 20
289.003229
 30
0.0
 10
537.309028
 20
289.558700
 30
0.0
  0
SPLINE
  5
12a
100
AcDbEntity
  8
View003
 62
7
100
AcDbSpline
 70
8
 71
3
 72
8
 73
4
 74
0
 40
0
 40
0
 40
0
 40
0
 40
1
 40
1
 40
1
 40
1
 10
537.309028
 20
289.558700
 30
0.0
 10
536.348759
 20
290.114170
 30
0.0
 10
535.164863
 20
290.114170
 30
0.0
 10
534.204593
 20
289.558700
 30
0.0
  0
SPLINE
  5
12b
100
AcDbEntity
  8
View003
 62
7
100
AcDbSpline
 70
8
 71
3
 72
8
 73
4
 74
0
 40
0
 40
0
 40
0
 40
0
 40
1
 40
1
 40
1
 40
1
 10
534.204593
 20
289.558700
 30
0.0
 10
533.244324
 20
289.003229
 30
0.0
 10
532.654071
 20
287.976969
 30
0.0
 10
532.656821
 20
286.867619
 30
0.0
  0
SPLINE
  5
12c
100
AcDbEntity
  8
View003
 62
7
100
AcDbSpline
 70
8
 71
3
 72
8
 73
4
 74
0
 40
0
 40
0
 40
0
 40
0
 40
1
 40
1
 40
1
 40
1
 10
532.656821
 20
286.867619
 30
0.0
 10
532.654110
 20
285.758294
 30
0.0
 10
533.244371
 20
284.732074
 30
0.0
 10
534.204625
 20
284.176627
 30
0.0
  0
SPLINE
  5
12d
100
AcDbEntity
  8
View003
 62
7
100
AcDbSpline
 70
8
 71
3
 72
8
 73
4
 74
0
 40
0
 40
0
 40
0
 40
0
 40
1
 40
1
 40
1
 40
1
 10
534.204625
 20
284.176627
 30
0.0
 10
535.164878
 20
283.621181
 30
0.0
 10
536.348743
 20
283.621181
 30
0.0
 10
537.308997
 20
284.176627
 30
0.0
  0
SPLINE
  5
12e
100
AcDbEntity
  8
View003
 62
7
100
AcDbSpline
 70
8
 71
3
 72
8
 73
4
 74
0
 40
0
 40
0
 40
0
 40
0
 40
1
 40
1
 40
1
 40
1
 10
537.308997
 20
284.176627
 30
0.0
 10
538.269251
 20
284.732074
 30
0.0
 10
538.859512
 20
285.758294
 30
0.0
 10
538.856801
 20
286.867619
 30
0.0
  0
LWPOLYLINE
  5
12f
100
AcDbEntity
  8
View003
 62
7
100
AcDbPolyline
 90
1
 70
1
 10
608.856800
 20
106.868069
 30
0.0
  0
SPLINE
  5
130
100
AcDbEntity
  8
View003
 62
7
100
AcDbSpline
 70
8
 71
3
 72
8
 73
4
 74
0
 40
0
 40
0
 40
0
 40
0
 40
1
 40
1
 40
1
 40
1
 10
538.856801
 20
106.868069
 30
0.0
 10
538.859551
 20
107.977419
 30
0.0
 10
538.269298
 20
109.003680
 30
0.0
 10
537.309028
 20
109.559150
 30
0.0
  0
SPLINE
  5
131
100
AcDbEntity
  8
View003
 62
7
100
AcDbSpline
 70
8
 71
3
 72
8
 73
4
 74
0
 40
0
 40
0
 40
0
 40
0
 40
1
 40
1
 40
1
 40
1
 10
537.309028
 20
109.559150
 30
0.0
 10
536.348759
 20
110.114621
 30
0.0
 10
535.164863
 20
110.114621
 30
0.0
 10
534.204593
 20
109.559150
 30
0.0
  0
SPLINE
  5
132
100
AcDbEntity
  8
View003
 62
7
100
AcDbSpline
 70
8
 71
3
 72
8
 73
4
 74
0
 40
0
 40
0
 40
0
 40
0
 40
1
 40
1
 40
1
 40
1
 10
534.204593
 20
109.559150
 30
0.0
 10
533.244324
 20
109.003680
 30
0.0
 10
532.654071
 20
107.977419
 30
0.0
 10
532.656821
 20
106.868069
 30
0.0
  0
SPLINE
  5
133
100
AcDbEntity
  8
View003
 62
7
100
AcDbSpline
 70
8
 71
3
 72
8
 73
4
 74
0
 40
0
 40
0
 40
0
 40
0
 40
1
 40
1
 40
1
 40
1
 10
532.656821
 20
106.868069
 30
0.0
 10
532.654110
 20
105.758744
 30
0.0
 10
533.244371
 20
104.732524
 30
0.0
 10
534.204625
 20
104.177078
 30
0.0
  0
SPLINE
  5
134
100
AcDbEntity
  8
View003
 62
7
100
AcDbSpline
 70
8
 71
3
 72
8
 73
4
 74
0
 40
0
 40
0
 40
0
 40
0
 40
1
 40
1
 40
1
 40
1
 10
534.204625
 20
104.177078
 30
0.0
 10
535.164878
 20
103.621631
 30
0.0
 10
536.348743
 20
103.621631
 30
0.0
 10
537.308997
 20
104.177078
 30
0.0
  0
SPLINE
  5
135
100
AcDbEntity
  8
View003
 62
7
100
AcDbSpline
 70
8
 71
3
 72
8
 73
4
 74
0
 40
0
 40
0
 40
0
 40
0
 40
1
 40
1
 40
1
 40
1
 10
537.308997
 20
104.177078
 30
0.0
 10
538.269251
 20
104.732524
 30
0.0
 10
538.859512
 20
105.758744
 30
0.0
 10
538.856801
 20
106.868069
 30
0.0
  0
LWPOLYLINE
  5
136
100
AcDbEntity
  8
View003
 62
7
100
AcDbPolyline
 90
1
 70
1
 10
538.856801
 20
286.867619
 30
0.0
  0
SPLINE
  5
137
100
AcDbEntity
  8
View003
 62
7
100
AcDbSpline
 70
8
 71
3
 72
8
 73
4
 74
0
 40
0
 40
0
 40
0
 40
0
 40
1
 40
1
 40
1
 40
1
 10
611.006803
 20
286.867619
 30
0.0
 10
611.006803
 20
288.743265
 30
0.0
 10
610.006158
 20
290.476434
 30
0.0
 10
608.381800
 20
291.414258
 30
0.0
  0
SPLINE
  5
138
100
AcDbEntity
  8
View003
 62
7
100
AcDbSpline
 70
8
 71
3
 72
8
 73
4
 74
0
 40
0
 40
0
 40
0
 40
0
 40
1
 40
1
 40
1
 40
1
 10
608.381800
 20
291.414258
 30
0.0
 10
606.757442
 20
292.352081
 30
0.0
 10
604.756151
 20
292.352081
 30
0.0
 10
603.131794
 20
291.414258
 30
0.0
  0
SPLINE
  5
139
100
AcDbEntity
  8
View003
 62
7
100
AcDbSpline
 70
8
 71
3
 72
8
 73
4
 74
0
 40
0
 40
0
 40
0
 40
0
 40
1
 40
1
 40
1
 40
1
 10
603.131794
 20
291.414258
 30
0.0
 10
601.507436
 20
290.476434
 30
0.0
 10
600.506790
 20
288.743265
 30
0.0
 10
600.506790
 20
286.867619
 30
0.0
  0
SPLINE
  5
13a
100
AcDbEntity
  8
View003
 62
7
100
AcDbSpline
 70
8
 71
3
 72
8
 73
4
 74
0
 40
0
 40
0
 40
0
 40
0
 40
1
 40
1
 40
1
 40
1
 10
600.506790
 20
286.867619
 30
0.0
 10
600.506790
 20
284.991972
 30
0.0
 10
601.507436
 20
283.258803
 30
0.0
 10
603.131794
 20
282.320980
 30
0.0
  0
SPLINE
  5
13b
100
AcDbEntity
  8
View003
 62
7
100
AcDbSpline
 70
8
 71
3
 72
8
 73
4
 74
0
 40
0
 40
0
 40
0
 40
0
 40
1
 40
1
 40
1
 40
1
 10
603.131794
 20
282.320980
 30
0.0
 10
604.756151
 20
281.383156
 30
0.0
 10
606.757442
 20
281.383156
 30
0.0
 10
608.381800
 20
282.320980
 30
0.0
  0
SPLINE
  5
13c
100
AcDbEntity
  8
View003
 62
7
100
AcDbSpline
 70
8
 71
3
 72
8
 73
4
 74
0
 40
0
 40
0
 40
0
 40
0
 40
1
 40
1
 40
1
 40
1
 10
608.381800
 20
282.320980
 30
0.0
 10
610.006158
 20
283.258803
 30
0.0
 10
611.006803
 20
284.991972
 30
0.0
 10
611.006803
 20
286.867619
 30
0.0
  0
LWPOLYLINE
  5
13d
100
AcDbEntity
  8
View003
 62
7
100
AcDbPolyline
 90
1
 70
1
 10
538.856801
 20
106.868069
 30
0.0
  0
LWPOLYLINE
  5
13e
100
AcDbEntity
  8
View003
 62
7
100
AcDbPolyline
 90
1
 70
1
 10
611.006803
 20
286.867619
 30
0.0
  0
SPLINE
  5
13f
100
AcDbEntity
  8
View003
 62
7
100
AcDbSpline
 70
8
 71
3
 72
8
 73
4
 74
0
 40
0
 40
0
 40
0
 40
0
 40
1
 40
1
 40
1
 40
1
 10
238.257198
 20
99.368070
 30
0.0
 10
238.257198
 20
98.705029
 30
0.0
 10
238.520590
 20
98.069144
 30
0.0
 10
238.989431
 20
97.600304
 30
0.0
  0
SPLINE
  5
140
100
AcDbEntity
  8
View003
 62
7
100
AcDbSpline
 70
8
 71
3
 72
8
 73
4
 74
0
 40
0
 40
0
 40
0
 40
0
 40
1
 40
1
 40
1
 40
1
 10
238.989431
 20
97.600304
 30
0.0
 10
239.458271
 20
97.131463
 30
0.0
 10
240.094156
 20
96.868071
 30
0.0
 10
240.757197
 20
96.868071
 30
0.0
  0
LWPOLYLINE
  5
141
100
AcDbEntity
  8
View003
 62
7
100
AcDbPolyline
 90
2
 70
0
 10
615.756787
 20
96.868071
 30
0.0
 10
240.757197
 20
96.868071
 30
0.0
  0
SPLINE
  5
142
100
AcDbEntity
  8
View003
 62
7
100
AcDbSpline
 70
8
 71
3
 72
8
 73
4
 74
0
 40
0
 40
0
 40
0
 40
0
 40
1
 40
1
 40
1
 40
1
 10
240.757197
 20
296.867615
 30
0.0
 10
239.376486
 20
296.867615
 30
0.0
 10
238.257198
 20
295.748327
 30
0.0
 10
238.257198
 20
294.367616
 30
0.0
  0
LWPOLYLINE
  5
143
100
AcDbEntity
  8
View003
 62
7
100
AcDbPolyline
 90
2
 70
0
 10
238.257198
 20
99.368070
 30
0.0
 10
238.257198
 20
294.367616
 30
0.0
  0
SPLINE
  5
144
100
AcDbEntity
  8
View003
 62
7
100
AcDbSpline
 70
8
 71
3
 72
8
 73
4
 74
0
 40
0
 40
0
 40
0
 40
0
 40
1
 40
1
 40
1
 40
1
 10
618.256782
 20
294.367616
 30
0.0
 10
618.256781
 20
295.748325
 30
0.0
 10
617.137497
 20
296.867612
 30
0.0
 10
615.756787
 20
296.867615
 30
0.0
  0
LWPOLYLINE
  5
145
100
AcDbEntity
  8
View003
 62
7
100
AcDbPolyline
 90
2
 70
0
 10
240.757197
 20
296.867615
 30
0.0
 10
615.756787
 20
296.867615
 30
0.0
  0
SPLINE
  5
146
100
AcDbEntity
  8
View003
 62
7
100
AcDbSpline
 70
8
 71
3
 72
8
 73
4
 74
0
 40
0
 40
0
 40
0
 40
0
 40
1
 40
1
 40
1
 40
1
 10
615.756787
 20
96.868071
 30
0.0
 10
617.137497
 20
96.868073
 30
0.0
 10
618.256782
 20
97.987361
 30
0.0
 10
618.256782
 20
99.368070
 30
0.0
  0
SPLINE
  5
147
100
AcDbEntity
  8
View003
 62
7
100
AcDbSpline
 70
8
 71
3
 72
8
 73
4
 74
0
 40
0
 40
0
 40
0
 40
0
 40
1
 40
1
 40
1
 40
1
 10
611.006803
 20
216.867638
 30
0.0
 10
611.006803
 20
218.743285
 30
0.0
 10
610.006158
 20
220.476454
 30
0.0
 10
608.381800
 20
221.414277
 30
0.0
  0
SPLINE
  5
148
100
AcDbEntity
  8
View003
 62
7
100
AcDbSpline
 70
8
 71
3
 72
8
 73
4
 74
0
 40
0
 40
0
 40
0
 40
0
 40
1
 40
1
 40
1
 40
1
 10
608.381800
 20
221.414277
 30
0.0
 10
606.757442
 20
222.352101
 30
0.0
 10
604.756151
 20
222.352101
 30
0.0
 10
603.131794
 20
221.414277
 30
0.0
  0
SPLINE
  5
149
100
AcDbEntity
  8
View003
 62
7
100
AcDbSpline
 70
8
 71
3
 72
8
 73
4
 74
0
 40
0
 40
0
 40
0
 40
0
 40
1
 40
1
 40
1
 40
1
 10
603.131794
 20
221.414277
 30
0.0
 10
601.507436
 20
220.476454
 30
0.0
 10
600.506790
 20
218.743285
 30
0.0
 10
600.506790
 20
216.867638
 30
0.0
  0
SPLINE
  5
14a
100
AcDbEntity
  8
View003
 62
7
100
AcDbSpline
 70
8
 71
3
 72
8
 73
4
 74
0
 40
0
 40
0
 40
0
 40
0
 40
1
 40
1
 40
1
 40
1
 10
600.506790
 20
216.867638
 30
0.0
 10
600.506790
 20
214.991991
 30
0.0
 10
601.507436
 20
213.258822
 30
0.0
 10
603.131794
 20
212.320999
 30
0.0
  0
SPLINE
  5
14b
100
AcDbEntity
  8
View003
 62
7
100
AcDbSpline
 70
8
 71
3
 72
8
 73
4
 74
0
 40
0
 40
0
 40
0
 40
0
 40
1
 40
1
 40
1
 40
1
 10
603.131794
 20
212.320999
 30
0.0
 10
604.756151
 20
211.383176
 30
0.0
 10
606.757442
 20
211.383176
 30
0.0
 10
608.381800
 20
212.320999
 30
0.0
  0
SPLINE
  5
14c
100
AcDbEntity
  8
View003
 62
7
100
AcDbSpline
 70
8
 71
3
 72
8
 73
4
 74
0
 40
0
 40
0
 40
0
 40
0
 40
1
 40
1
 40
1
 40
1
 10
608.381800
 20
212.320999
 30
0.0
 10
610.006158
 20
213.258822
 30
0.0
 10
611.006803
 20
214.991991
 30
0.0
 10
611.006803
 20
216.867638
 30
0.0
  0
LWPOLYLINE
  5
14d
100
AcDbEntity
  8
View003
 62
7
100
AcDbPolyline
 90
2
 70
0
 10
618.256782
 20
294.367616
 30
0.0
 10
618.256782
 20
99.368070
 30
0.0
  0
SPLINE
  5
14e
100
AcDbEntity
  8
View003
 62
7
100
AcDbSpline
 70
8
 71
3
 72
8
 73
4
 74
0
 40
0
 40
0
 40
0
 40
0
 40
1
 40
1
 40
1
 40
1
 10
611.006803
 20
176.867647
 30
0.0
 10
611.006803
 20
178.743294
 30
0.0
 10
610.006158
 20
180.476463
 30
0.0
 10
608.381800
 20
181.414286
 30
0.0
  0
SPLINE
  5
14f
100
AcDbEntity
  8
View003
 62
7
100
AcDbSpline
 70
8
 71
3
 72
8
 73
4
 74
0
 40
0
 40
0
 40
0
 40
0
 40
1
 40
1
 40
1
 40
1
 10
608.381800
 20
181.414286
 30
0.0
 10
606.757442
 20
182.352110
 30
0.0
 10
604.756151
 20
182.352110
 30
0.0
 10
603.131794
 20
181.414286
 30
0.0
  0
SPLINE
  5
150
100
AcDbEntity
  8
View003
 62
7
100
AcDbSpline
 70
8
 71
3
 72
8
 73
4
 74
0
 40
0
 40
0
 40
0
 40
0
 40
1
 40
1
 40
1
 40
1
 10
603.131794
 20
181.414286
 30
0.0
 10
601.507436
 20
180.476463
 30
0.0
 10
600.506790
 20
178.743294
 30
0.0
 10
600.506790
 20
176.867647
 30
0.0
  0
SPLINE
  5
151
100
AcDbEntity
  8
View003
 62
7
100
AcDbSpline
 70
8
 71
3
 72
8
 73
4
 74
0
 40
0
 40
0
 40
0
 40
0
 40
1
 40
1
 40
1
 40
1
 10
600.506790
 20
176.867647
 30
0.0
 10
600.506790
 20
174.992001
 30
0.0
 10
601.507436
 20
173.258832
 30
0.0
 10
603.131794
 20
172.321008
 30
0.0
  0
SPLINE
  5
152
100
AcDbEntity
  8
View003
 62
7
100
AcDbSpline
 70
8
 71
3
 72
8
 73
4
 74
0
 40
0
 40
0
 40
0
 40
0
 40
1
 40
1
 40
1
 40
1
 10
603.131794
 20
172.321008
 30
0.0
 10
604.756151
 20
171.383185
 30
0.0
 10
606.757442
 20
171.383185
 30
0.0
 10
608.381800
 20
172.321008
 30
0.0
  0
SPLINE
  5
153
100
AcDbEntity
  8
View003
 62
7
100
AcDbSpline
 70
8
 71
3
 72
8
 73
4
 74
0
 40
0
 40
0
 40
0
 40
0
 40
1
 40
1
 40
1
 40
1
 10
608.381800
 20
172.321008
 30
0.0
 10
610.006158
 20
173.258832
 30
0.0
 10
611.006803
 20
174.992001
 30
0.0
 10
611.006803
 20
176.867647
 30
0.0
  0
LWPOLYLINE
  5
154
100
AcDbEntity
  8
View003
 62
7
100
AcDbPolyline
 90
1
 70
1
 10
611.006803
 20
216.867638
 30
0.0
  0
SPLINE
  5
155
100
AcDbEntity
  8
View003
 62
7
100
AcDbSpline
 70
8
 71
3
 72
8
 73
4
 74
0
 40
0
 40
0
 40
0
 40
0
 40
1
 40
1
 40
1
 40
1
 10
611.006803
 20
106.868069
 30
0.0
 10
611.006803
 20
108.743716
 30
0.0
 10
610.006158
 20
110.476885
 30
0.0
 10
608.381800
 20
111.414708
 30
0.0
  0
SPLINE
  5
156
100
AcDbEntity
  8
View003
 62
7
100
AcDbSpline
 70
8
 71
3
 72
8
 73
4
 74
0
 40
0
 40
0
 40
0
 40
0
 40
1
 40
1
 40
1
 40
1
 10
608.381800
 20
111.414708
 30
0.0
 10
606.757442
 20
112.352531
 30
0.0
 10
604.756151
 20
112.352531
 30
0.0
 10
603.131794
 20
111.414708
 30
0.0
  0
SPLINE
  5
157
100
AcDbEntity
  8
View003
 62
7
100
AcDbSpline
 70
8
 71
3
 72
8
 73
4
 74
0
 40
0
 40
0
 40
0
 40
0
 40
1
 40
1
 40
1
 40
1
 10
603.131794
 20
111.414708
 30
0.0
 10
601.507436
 20
110.476885
 30
0.0
 10
600.506790
 20
108.743716
 30
0.0
 10
600.506790
 20
106.868069
 30
0.0
  0
SPLINE
  5
158
100
AcDbEntity
  8
View003
 62
7
100
AcDbSpline
 70
8
 71
3
 72
8
 73
4
 74
0
 40
0
 40
0
 40
0
 40
0
 40
1
 40
1
 40
1
 40
1
 10
600.506790
 20
106.868069
 30
0.0
 10
600.506790
 20
104.992422
 30
0.0
 10
601.507436
 20
103.259253
 30
0.0
 10
603.131794
 20
102.321430
 30
0.0
  0
SPLINE
  5
159
100
AcDbEntity
  8
View003
 62
7
100
AcDbSpline
 70
8
 71
3
 72
8
 73
4
 74
0
 40
0
 40
0
 40
0
 40
0
 40
1
 40
1
 40
1
 40
1
 10
603.131794
 20
102.321430
 30
0.0
 10
604.756151
 20
101.383607
 30
0.0
 10
606.757442
 20
101.383607
 30
0.0
 10
608.381800
 20
102.321430
 30
0.0
  0
SPLINE
  5
15a
100
AcDbEntity
  8
View003
 62
7
100
AcDbSpline
 70
8
 71
3
 72
8
 73
4
 74
0
 40
0
 40
0
 40
0
 40
0
 40
1
 40
1
 40
1
 40
1
 10
608.381800
 20
102.321430
 30
0.0
 10
610.006158
 20
103.259253
 30
0.0
 10
611.006803
 20
104.992422
 30
0.0
 10
611.006803
 20
106.868069
 30
0.0
  0
LWPOLYLINE
  5
15b
100
AcDbEntity
  8
View003
 62
7
100
AcDbPolyline
 90
1
 70
1
 10
611.006803
 20
176.867647
 30
0.0
  0
SPLINE
  5
15c
100
AcDbEntity
  8
View003
 62
7
100
AcDbSpline
 70
8
 71
3
 72
8
 73
4
 74
0
 40
0
 40
0
 40
0
 40
0
 40
1
 40
1
 40
1
 40
1
 10
541.006804
 20
286.867619
 30
0.0
 10
541.009470
 20
288.745036
 30
0.0
 10
540.009410
 20
290.480983
 30
0.0
 10
538.383962
 20
291.420462
 30
0.0
  0
SPLINE
  5
15d
100
AcDbEntity
  8
View003
 62
7
100
AcDbSpline
 70
8
 71
3
 72
8
 73
4
 74
0
 40
0
 40
0
 40
0
 40
0
 40
1
 40
1
 40
1
 40
1
 10
538.383962
 20
291.420462
 30
0.0
 10
536.758513
 20
292.359941
 30
0.0
 10
534.755109
 20
292.359941
 30
0.0
 10
533.129660
 20
291.420462
 30
0.0
  0
SPLINE
  5
15e
100
AcDbEntity
  8
View003
 62
7
100
AcDbSpline
 70
8
 71
3
 72
8
 73
4
 74
0
 40
0
 40
0
 40
0
 40
0
 40
1
 40
1
 40
1
 40
1
 10
533.129660
 20
291.420462
 30
0.0
 10
531.504212
 20
290.480983
 30
0.0
 10
530.504152
 20
288.745036
 30
0.0
 10
530.506818
 20
286.867619
 30
0.0
  0
SPLINE
  5
15f
100
AcDbEntity
  8
View003
 62
7
100
AcDbSpline
 70
8
 71
3
 72
8
 73
4
 74
0
 40
0
 40
0
 40
0
 40
0
 40
1
 40
1
 40
1
 40
1
 10
530.506818
 20
286.867619
 30
0.0
 10
530.504152
 20
284.990201
 30
0.0
 10
531.504212
 20
283.254254
 30
0.0
 10
533.129660
 20
282.314775
 30
0.0
  0
SPLINE
  5
160
100
AcDbEntity
  8
View003
 62
7
100
AcDbSpline
 70
8
 71
3
 72
8
 73
4
 74
0
 40
0
 40
0
 40
0
 40
0
 40
1
 40
1
 40
1
 40
1
 10
533.129660
 20
282.314775
 30
0.0
 10
534.755109
 20
281.375296
 30
0.0
 10
536.758513
 20
281.375296
 30
0.0
 10
538.383962
 20
282.314775
 30
0.0
  0
SPLINE
  5
161
100
AcDbEntity
  8
View003
 62
7
100
AcDbSpline
 70
8
 71
3
 72
8
 73
4
 74
0
 40
0
 40
0
 40
0
 40
0
 40
1
 40
1
 40
1
 40
1
 10
538.383962
 20
282.314775
 30
0.0
 10
540.009410
 20
283.254254
 30
0.0
 10
541.009470
 20
284.990201
 30
0.0
 10
541.006804
 20
286.867619
 30
0.0
  0
LWPOLYLINE
  5
162
100
AcDbEntity
  8
View003
 62
7
100
AcDbPolyline
 90
1
 70
1
 10
611.006803
 20
106.868069
 30
0.0
  0
SPLINE
  5
163
100
AcDbEntity
  8
View003
 62
7
100
AcDbSpline
 70
8
 71
3
 72
8
 73
4
 74
0
 40
0
 40
0
 40
0
 40
0
 40
1
 40
1
 40
1
 40
1
 10
541.006804
 20
106.868069
 30
0.0
 10
541.009470
 20
108.745486
 30
0.0
 10
540.009410
 20
110.481433
 30
0.0
 10
538.383962
 20
111.420912
 30
0.0
  0
SPLINE
  5
164
100
AcDbEntity
  8
View003
 62
7
100
AcDbSpline
 70
8
 71
3
 72
8
 73
4
 74
0
 40
0
 40
0
 40
0
 40
0
 40
1
 40
1
 40
1
 40
1
 10
538.383962
 20
111.420912
 30
0.0
 10
536.758513
 20
112.360391
 30
0.0
 10
534.755109
 20
112.360391
 30
0.0
 10
533.129660
 20
111.420912
 30
0.0
  0
SPLINE
  5
165
100
AcDbEntity
  8
View003
 62
7
100
AcDbSpline
 70
8
 71
3
 72
8
 73
4
 74
0
 40
0
 40
0
 40
0
 40
0
 40
1
 40
1
 40
1
 40
1
 10
533.129660
 20
111.420912
 30
0.0
 10
531.504212
 20
110.481433
 30
0.0
 10
530.504152
 20
108.745486
 30
0.0
 10
530.506818
 20
106.868069
 30
0.0
  0
SPLINE
  5
166
100
AcDbEntity
  8
View003
 62
7
100
AcDbSpline
 70
8
 71
3
 72
8
 73
4
 74
0
 40
0
 40
0
 40
0
 40
0
 40
1
 40
1
 40
1
 40
1
 10
530.506818
 20
106.868069
 30
0.0
 10
530.504152
 20
104.990651
 30
0.0
 10
531.504212
 20
103.254705
 30
0.0
 10
533.129660
 20
102.315226
 30
0.0
  0
SPLINE
  5
167
100
AcDbEntity
  8
View003
 62
7
100
AcDbSpline
 70
8
 71
3
 72
8
 73
4
 74
0
 40
0
 40
0
 40
0
 40
0
 40
1
 40
1
 40
1
 40
1
 10
533.129660
 20
102.315226
 30
0.0
 10
534.755109
 20
101.375747
 30
0.0
 10
536.758513
 20
101.375747
 30
0.0
 10
538.383962
 20
102.315226
 30
0.0
  0
SPLINE
  5
168
100
AcDbEntity
  8
View003
 62
7
100
AcDbSpline
 70
8
 71
3
 72
8
 73
4
 74
0
 40
0
 40
0
 40
0
 40
0
 40
1
 40
1
 40
1
 40
1
 10
538.383962
 20
102.315226
 30
0.0
 10
540.009410
 20
103.254705
 30
0.0
 10
541.009470
 20
104.990651
 30
0.0
 10
541.006804
 20
106.868069
 30
0.0
  0
LWPOLYLINE
  5
169
100
AcDbEntity
  8
View003
 62
7
100
AcDbPolyline
 90
1
 70
1
 10
541.006804
 20
286.867619
 30
0.0
  0
SPLINE
  5
16a
100
AcDbEntity
  8
View003
 62
7
100
AcDbSpline
 70
8
 71
3
 72
8
 73
4
 74
0
 40
0
 40
0
 40
0
 40
0
 40
1
 40
1
 40
1
 40
1
 10
471.006832
 20
286.867619
 30
0.0
 10
471.006832
 20
288.743263
 30
0.0
 10
470.006188
 20
290.476429
 30
0.0
 10
468.381832
 20
291.414251
 30
0.0
  0
SPLINE
  5
16b
100
AcDbEntity
  8
View003
 62
7
100
AcDbSpline
 70
8
 71
3
 72
8
 73
4
 74
0
 40
0
 40
0
 40
0
 40
0
 40
1
 40
1
 40
1
 40
1
 10
468.381832
 20
291.414251
 30
0.0
 10
466.757477
 20
292.352073
 30
0.0
 10
464.756189
 20
292.352073
 30
0.0
 10
463.131834
 20
291.414251
 30
0.0
  0
SPLINE
  5
16c
100
AcDbEntity
  8
View003
 62
7
100
AcDbSpline
 70
8
 71
3
 72
8
 73
4
 74
0
 40
0
 40
0
 40
0
 40
0
 40
1
 40
1
 40
1
 40
1
 10
463.131834
 20
291.414251
 30
0.0
 10
461.507478
 20
290.476429
 30
0.0
 10
460.506834
 20
288.743263
 30
0.0
 10
460.506834
 20
286.867619
 30
0.0
  0
SPLINE
  5
16d
100
AcDbEntity
  8
View003
 62
7
100
AcDbSpline
 70
8
 71
3
 72
8
 73
4
 74
0
 40
0
 40
0
 40
0
 40
0
 40
1
 40
1
 40
1
 40
1
 10
460.506834
 20
286.867619
 30
0.0
 10
460.506834
 20
284.991975
 30
0.0
 10
461.507478
 20
283.258808
 30
0.0
 10
463.131834
 20
282.320987
 30
0.0
  0
SPLINE
  5
16e
100
AcDbEntity
  8
View003
 62
7
100
AcDbSpline
 70
8
 71
3
 72
8
 73
4
 74
0
 40
0
 40
0
 40
0
 40
0
 40
1
 40
1
 40
1
 40
1
 10
463.131834
 20
282.320987
 30
0.0
 10
464.756189
 20
281.383165
 30
0.0
 10
466.757477
 20
281.383165
 30
0.0
 10
468.381832
 20
282.320987
 30
0.0
  0
SPLINE
  5
16f
100
AcDbEntity
  8
View003
 62
7
100
AcDbSpline
 70
8
 71
3
 72
8
 73
4
 74
0
 40
0
 40
0
 40
0
 40
0
 40
1
 40
1
 40
1
 40
1
 10
468.381832
 20
282.320987
 30
0.0
 10
470.006188
 20
283.258808
 30
0.0
 10
471.006832
 20
284.991975
 30
0.0
 10
471.006832
 20
286.867619
 30
0.0
  0
LWPOLYLINE
  5
170
100
AcDbEntity
  8
View003
 62
7
100
AcDbPolyline
 90
1
 70
1
 10
541.006804
 20
106.868069
 30
0.0
  0
SPLINE
  5
171
100
AcDbEntity
  8
View003
 62
7
100
AcDbSpline
 70
8
 71
3
 72
8
 73
4
 74
0
 40
0
 40
0
 40
0
 40
0
 40
1
 40
1
 40
1
 40
1
 10
471.006832
 20
106.868069
 30
0.0
 10
471.006832
 20
108.743713
 30
0.0
 10
470.006188
 20
110.476879
 30
0.0
 10
468.381832
 20
111.414701
 30
0.0
  0
SPLINE
  5
172
100
AcDbEntity
  8
View003
 62
7
100
AcDbSpline
 70
8
 71
3
 72
8
 73
4
 74
0
 40
0
 40
0
 40
0
 40
0
 40
1
 40
1
 40
1
 40
1
 10
468.381832
 20
111.414701
 30
0.0
 10
466.757477
 20
112.352523
 30
0.0
 10
464.756189
 20
112.352523
 30
0.0
 10
463.131834
 20
111.414701
 30
0.0
  0
SPLINE
  5
173
100
AcDbEntity
  8
View003
 62
7
100
AcDbSpline
 70
8
 71
3
 72
8
 73
4
 74
0
 40
0
 40
0
 40
0
 40
0
 40
1
 40
1
 40
1
 40
1
 10
463.131834
 20
111.414701
 30
0.0
 10
461.507478
 20
110.476879
 30
0.0
 10
460.506834
 20
108.743713
 30
0.0
 10
460.506834
 20
106.868069
 30
0.0
  0
SPLINE
  5
174
100
AcDbEntity
  8
View003
 62
7
100
AcDbSpline
 70
8
 71
3
 72
8
 73
4
 74
0
 40
0
 40
0
 40
0
 40
0
 40
1
 40
1
 40
1
 40
1
 10
460.506834
 20
106.868069
 30
0.0
 10
460.506834
 20
104.992425
 30
0.0
 10
461.507478
 20
103.259259
 30
0.0
 10
463.131834
 20
102.321437
 30
0.0
  0
SPLINE
  5
175
100
AcDbEntity
  8
View003
 62
7
100
AcDbSpline
 70
8
 71
3
 72
8
 73
4
 74
0
 40
0
 40
0
 40
0
 40
0
 40
1
 40
1
 40
1
 40
1
 10
463.131834
 20
102.321437
 30
0.0
 10
464.756189
 20
101.383615
 30
0.0
 10
466.757477
 20
101.383615
 30
0.0
 10
468.381832
 20
102.321437
 30
0.0
  0
SPLINE
  5
176
100
AcDbEntity
  8
View003
 62
7
100
AcDbSpline
 70
8
 71
3
 72
8
 73
4
 74
0
 40
0
 40
0
 40
0
 40
0
 40
1
 40
1
 40
1
 40
1
 10
468.381832
 20
102.321437
 30
0.0
 10
470.006188
 20
103.259259
 30
0.0
 10
471.006832
 20
104.992425
 30
0.0
 10
471.006832
 20
106.868069
 30
0.0
  0
LWPOLYLINE
  5
177
100
AcDbEntity
  8
View003
 62
7
100
AcDbPolyline
 90
1
 70
1
 10
471.006832
 20
286.867619
 30
0.0
  0
SPLINE
  5
178
100
AcDbEntity
  8
View003
 62
7
100
AcDbSpline
 70
8
 71
3
 72
8
 73
4
 74
0
 40
0
 40
0
 40
0
 40
0
 40
1
 40
1
 40
1
 40
1
 10
306.757180
 20
276.867620
 30
0.0
 10
306.757180
 20
277.760784
 30
0.0
 10
306.280682
 20
278.586102
 30
0.0
 10
305.507180
 20
279.032684
 30
0.0
  0
SPLINE
  5
179
100
AcDbEntity
  8
View003
 62
7
100
AcDbSpline
 70
8
 71
3
 72
8
 73
4
 74
0
 40
0
 40
0
 40
0
 40
0
 40
1
 40
1
 40
1
 40
1
 10
305.507180
 20
279.032684
 30
0.0
 10
304.733677
 20
279.479265
 30
0.0
 10
303.780683
 20
279.479265
 30
0.0
 10
303.007180
 20
279.032684
 30
0.0
  0
SPLINE
  5
17a
100
AcDbEntity
  8
View003
 62
7
100
AcDbSpline
 70
8
 71
3
 72
8
 73
4
 74
0
 40
0
 40
0
 40
0
 40
0
 40
1
 40
1
 40
1
 40
1
 10
303.007180
 20
279.032684
 30
0.0
 10
302.233678
 20
278.586102
 30
0.0
 10
301.757181
 20
277.760784
 30
0.0
 10
301.757181
 20
276.867620
 30
0.0
  0
SPLINE
  5
17b
100
AcDbEntity
  8
View003
 62
7
100
AcDbSpline
 70
8
 71
3
 72
8
 73
4
 74
0
 40
0
 40
0
 40
0
 40
0
 40
1
 40
1
 40
1
 40
1
 10
301.757181
 20
276.867620
 30
0.0
 10
301.757181
 20
275.974457
 30
0.0
 10
302.233678
 20
275.149139
 30
0.0
 10
303.007180
 20
274.702557
 30
0.0
  0
SPLINE
  5
17c
100
AcDbEntity
  8
View003
 62
7
100
AcDbSpline
 70
8
 71
3
 72
8
 73
4
 74
0
 40
0
 40
0
 40
0
 40
0
 40
1
 40
1
 40
1
 40
1
 10
303.007180
 20
274.702557
 30
0.0
 10
303.780683
 20
274.255975
 30
0.0
 10
304.733677
 20
274.255975
 30
0.0
 10
305.507180
 20
274.702557
 30
0.0
  0
SPLINE
  5
17d
100
AcDbEntity
  8
View003
 62
7
100
AcDbSpline
 70
8
 71
3
 72
8
 73
4
 74
0
 40
0
 40
0
 40
0
 40
0
 40
1
 40
1
 40
1
 40
1
 10
305.507180
 20
274.702557
 30
0.0
 10
306.280682
 20
275.149139
 30
0.0
 10
306.757180
 20
275.974457
 30
0.0
 10
306.757180
 20
276.867620
 30
0.0
  0
LWPOLYLINE
  5
17e
100
AcDbEntity
  8
View003
 62
7
100
AcDbPolyline
 90
1
 70
1
 10
471.006832
 20
106.868069
 30
0.0
  0
SPLINE
  5
17f
100
AcDbEntity
  8
View003
 62
7
100
AcDbSpline
 70
8
 71
3
 72
8
 73
4
 74
0
 40
0
 40
0
 40
0
 40
0
 40
1
 40
1
 40
1
 40
1
 10
278.757185
 20
276.867620
 30
0.0
 10
278.758008
 20
277.761332
 30
0.0
 10
278.281691
 20
278.587507
 30
0.0
 10
277.507851
 20
279.034600
 30
0.0
  0
SPLINE
  5
180
100
AcDbEntity
  8
View003
 62
7
100
AcDbSpline
 70
8
 71
3
 72
8
 73
4
 74
0
 40
0
 40
0
 40
0
 40
0
 40
1
 40
1
 40
1
 40
1
 10
277.507851
 20
279.034600
 30
0.0
 10
276.734011
 20
279.481693
 30
0.0
 10
275.780363
 20
279.481693
 30
0.0
 10
275.006523
 20
279.034600
 30
0.0
  0
SPLINE
  5
181
100
AcDbEntity
  8
View003
 62
7
100
AcDbSpline
 70
8
 71
3
 72
8
 73
4
 74
0
 40
0
 40
0
 40
0
 40
0
 40
1
 40
1
 40
1
 40
1
 10
275.006523
 20
279.034600
 30
0.0
 10
274.232684
 20
278.587507
 30
0.0
 10
273.756366
 20
277.761332
 30
0.0
 10
273.757189
 20
276.867620
 30
0.0
  0
SPLINE
  5
182
100
AcDbEntity
  8
View003
 62
7
100
AcDbSpline
 70
8
 71
3
 72
8
 73
4
 74
0
 40
0
 40
0
 40
0
 40
0
 40
1
 40
1
 40
1
 40
1
 10
273.757189
 20
276.867620
 30
0.0
 10
273.756366
 20
275.973909
 30
0.0
 10
274.232684
 20
275.147734
 30
0.0
 10
275.006523
 20
274.700641
 30
0.0
  0
SPLINE
  5
183
100
AcDbEntity
  8
View003
 62
7
100
AcDbSpline
 70
8
 71
3
 72
8
 73
4
 74
0
 40
0
 40
0
 40
0
 40
0
 40
1
 40
1
 40
1
 40
1
 10
275.006523
 20
274.700641
 30
0.0
 10
275.780363
 20
274.253547
 30
0.0
 10
276.734011
 20
274.253547
 30
0.0
 10
277.507851
 20
274.700641
 30
0.0
  0
SPLINE
  5
184
100
AcDbEntity
  8
View003
 62
7
100
AcDbSpline
 70
8
 71
3
 72
8
 73
4
 74
0
 40
0
 40
0
 40
0
 40
0
 40
1
 40
1
 40
1
 40
1
 10
277.507851
 20
274.700641
 30
0.0
 10
278.281691
 20
275.147734
 30
0.0
 10
278.758008
 20
275.973909
 30
0.0
 10
278.757185
 20
276.867620
 30
0.0
  0
LWPOLYLINE
  5
185
100
AcDbEntity
  8
View003
 62
7
100
AcDbPolyline
 90
1
 70
1
 10
306.757180
 20
276.867620
 30
0.0
  0
SPLINE
  5
186
100
AcDbEntity
  8
View003
 62
7
100
AcDbSpline
 70
8
 71
3
 72
8
 73
4
 74
0
 40
0
 40
0
 40
0
 40
0
 40
1
 40
1
 40
1
 40
1
 10
306.757180
 20
116.868065
 30
0.0
 10
306.757180
 20
117.761228
 30
0.0
 10
306.280682
 20
118.586546
 30
0.0
 10
305.507180
 20
119.033128
 30
0.0
  0
SPLINE
  5
187
100
AcDbEntity
  8
View003
 62
7
100
AcDbSpline
 70
8
 71
3
 72
8
 73
4
 74
0
 40
0
 40
0
 40
0
 40
0
 40
1
 40
1
 40
1
 40
1
 10
305.507180
 20
119.033128
 30
0.0
 10
304.733677
 20
119.479710
 30
0.0
 10
303.780683
 20
119.479710
 30
0.0
 10
303.007180
 20
119.033128
 30
0.0
  0
SPLINE
  5
188
100
AcDbEntity
  8
View003
 62
7
100
AcDbSpline
 70
8
 71
3
 72
8
 73
4
 74
0
 40
0
 40
0
 40
0
 40
0
 40
1
 40
1
 40
1
 40
1
 10
303.007180
 20
119.033128
 30
0.0
 10
302.233678
 20
118.586546
 30
0.0
 10
301.757181
 20
117.761228
 30
0.0
 10
301.757181
 20
116.868065
 30
0.0
  0
SPLINE
  5
189
100
AcDbEntity
  8
View003
 62
7
100
AcDbSpline
 70
8
 71
3
 72
8
 73
4
 74
0
 40
0
 40
0
 40
0
 40
0
 40
1
 40
1
 40
1
 40
1
 10
301.757181
 20
116.868065
 30
0.0
 10
301.757181
 20
115.974901
 30
0.0
 10
302.233678
 20
115.149583
 30
0.0
 10
303.007180
 20
114.703001
 30
0.0
  0
SPLINE
  5
18a
100
AcDbEntity
  8
View003
 62
7
100
AcDbSpline
 70
8
 71
3
 72
8
 73
4
 74
0
 40
0
 40
0
 40
0
 40
0
 40
1
 40
1
 40
1
 40
1
 10
303.007180
 20
114.703001
 30
0.0
 10
303.780683
 20
114.256420
 30
0.0
 10
304.733677
 20
114.256420
 30
0.0
 10
305.507180
 20
114.703001
 30
0.0
  0
SPLINE
  5
18b
100
AcDbEntity
  8
View003
 62
7
100
AcDbSpline
 70
8
 71
3
 72
8
 73
4
 74
0
 40
0
 40
0
 40
0
 40
0
 40
1
 40
1
 40
1
 40
1
 10
305.507180
 20
114.703001
 30
0.0
 10
306.280682
 20
115.149583
 30
0.0
 10
306.757180
 20
115.974901
 30
0.0
 10
306.757180
 20
116.868065
 30
0.0
  0
LWPOLYLINE
  5
18c
100
AcDbEntity
  8
View003
 62
7
100
AcDbPolyline
 90
1
 70
1
 10
278.757185
 20
276.867620
 30
0.0
  0
SPLINE
  5
18d
100
AcDbEntity
  8
View003
 62
7
100
AcDbSpline
 70
8
 71
3
 72
8
 73
4
 74
0
 40
0
 40
0
 40
0
 40
0
 40
1
 40
1
 40
1
 40
1
 10
278.757185
 20
116.868065
 30
0.0
 10
278.758008
 20
117.761776
 30
0.0
 10
278.281691
 20
118.587951
 30
0.0
 10
277.507851
 20
119.035044
 30
0.0
  0
SPLINE
  5
18e
100
AcDbEntity
  8
View003
 62
7
100
AcDbSpline
 70
8
 71
3
 72
8
 73
4
 74
0
 40
0
 40
0
 40
0
 40
0
 40
1
 40
1
 40
1
 40
1
 10
277.507851
 20
119.035044
 30
0.0
 10
276.734011
 20
119.482138
 30
0.0
 10
275.780363
 20
119.482138
 30
0.0
 10
275.006523
 20
119.035044
 30
0.0
  0
SPLINE
  5
18f
100
AcDbEntity
  8
View003
 62
7
100
AcDbSpline
 70
8
 71
3
 72
8
 73
4
 74
0
 40
0
 40
0
 40
0
 40
0
 40
1
 40
1
 40
1
 40
1
 10
275.006523
 20
119.035044
 30
0.0
 10
274.232684
 20
118.587951
 30
0.0
 10
273.756366
 20
117.761776
 30
0.0
 10
273.757189
 20
116.868065
 30
0.0
  0
SPLINE
  5
190
100
AcDbEntity
  8
View003
 62
7
100
AcDbSpline
 70
8
 71
3
 72
8
 73
4
 74
0
 40
0
 40
0
 40
0
 40
0
 40
1
 40
1
 40
1
 40
1
 10
273.757189
 20
116.868065
 30
0.0
 10
273.756366
 20
115.974353
 30
0.0
 10
274.232684
 20
115.148178
 30
0.0
 10
275.006523
 20
114.701085
 30
0.0
  0
SPLINE
  5
191
100
AcDbEntity
  8
View003
 62
7
100
AcDbSpline
 70
8
 71
3
 72
8
 73
4
 74
0
 40
0
 40
0
 40
0
 40
0
 40
1
 40
1
 40
1
 40
1
 10
275.006523
 20
114.701085
 30
0.0
 10
275.780363
 20
114.253992
 30
0.0
 10
276.734011
 20
114.253992
 30
0.0
 10
277.507851
 20
114.701085
 30
0.0
  0
SPLINE
  5
192
100
AcDbEntity
  8
View003
 62
7
100
AcDbSpline
 70
8
 71
3
 72
8
 73
4
 74
0
 40
0
 40
0
 40
0
 40
0
 40
1
 40
1
 40
1
 40
1
 10
277.507851
 20
114.701085
 30
0.0
 10
278.281691
 20
115.148178
 30
0.0
 10
278.758008
 20
115.974353
 30
0.0
 10
278.757185
 20
116.868065
 30
0.0
  0
LWPOLYLINE
  5
193
100
AcDbEntity
  8
View003
 62
7
100
AcDbPolyline
 90
1
 70
1
 10
306.757180
 20
116.868065
 30
0.0
  0
SPLINE
  5
194
100
AcDbEntity
  8
View003
 62
7
100
AcDbSpline
 70
8
 71
3
 72
8
 73
4
 74
0
 40
0
 40
0
 40
0
 40
0
 40
1
 40
1
 40
1
 40
1
 10
554.756799
 20
219.867637
 30
0.0
 10
554.758593
 20
220.761993
 30
0.0
 10
554.282489
 20
221.589180
 30
0.0
 10
553.508252
 20
222.036877
 30
0.0
  0
SPLINE
  5
195
100
AcDbEntity
  8
View003
 62
7
100
AcDbSpline
 70
8
 71
3
 72
8
 73
4
 74
0
 40
0
 40
0
 40
0
 40
0
 40
1
 40
1
 40
1
 40
1
 10
553.508252
 20
222.036877
 30
0.0
 10
552.734014
 20
222.484574
 30
0.0
 10
551.779596
 20
222.484574
 30
0.0
 10
551.005358
 20
222.036877
 30
0.0
  0
SPLINE
  5
196
100
AcDbEntity
  8
View003
 62
7
100
AcDbSpline
 70
8
 71
3
 72
8
 73
4
 74
0
 40
0
 40
0
 40
0
 40
0
 40
1
 40
1
 40
1
 40
1
 10
551.005358
 20
222.036877
 30
0.0
 10
550.231121
 20
221.589180
 30
0.0
 10
549.755017
 20
220.761993
 30
0.0
 10
549.756811
 20
219.867637
 30
0.0
  0
SPLINE
  5
197
100
AcDbEntity
  8
View003
 62
7
100
AcDbSpline
 70
8
 71
3
 72
8
 73
4
 74
0
 40
0
 40
0
 40
0
 40
0
 40
1
 40
1
 40
1
 40
1
 10
549.756811
 20
219.867637
 30
0.0
 10
549.755017
 20
218.973280
 30
0.0
 10
550.231121
 20
218.146093
 30
0.0
 10
551.005358
 20
217.698396
 30
0.0
  0
SPLINE
  5
198
100
AcDbEntity
  8
View003
 62
7
100
AcDbSpline
 70
8
 71
3
 72
8
 73
4
 74
0
 40
0
 40
0
 40
0
 40
0
 40
1
 40
1
 40
1
 40
1
 10
551.005358
 20
217.698396
 30
0.0
 10
551.779596
 20
217.250700
 30
0.0
 10
552.734014
 20
217.250700
 30
0.0
 10
553.508252
 20
217.698396
 30
0.0
  0
SPLINE
  5
199
100
AcDbEntity
  8
View003
 62
7
100
AcDbSpline
 70
8
 71
3
 72
8
 73
4
 74
0
 40
0
 40
0
 40
0
 40
0
 40
1
 40
1
 40
1
 40
1
 10
553.508252
 20
217.698396
 30
0.0
 10
554.282489
 20
218.146093
 30
0.0
 10
554.758593
 20
218.973280
 30
0.0
 10
554.756799
 20
219.867637
 30
0.0
  0
LWPOLYLINE
  5
19a
100
AcDbEntity
  8
View003
 62
7
100
AcDbPolyline
 90
1
 70
1
 10
278.757185
 20
116.868065
 30
0.0
  0
SPLINE
  5
19b
100
AcDbEntity
  8
View003
 62
7
100
AcDbSpline
 70
8
 71
3
 72
8
 73
4
 74
0
 40
0
 40
0
 40
0
 40
0
 40
1
 40
1
 40
1
 40
1
 10
554.756799
 20
173.867649
 30
0.0
 10
554.758593
 20
174.762005
 30
0.0
 10
554.282489
 20
175.589193
 30
0.0
 10
553.508252
 20
176.036889
 30
0.0
  0
SPLINE
  5
19c
100
AcDbEntity
  8
View003
 62
7
100
AcDbSpline
 70
8
 71
3
 72
8
 73
4
 74
0
 40
0
 40
0
 40
0
 40
0
 40
1
 40
1
 40
1
 40
1
 10
553.508252
 20
176.036889
 30
0.0
 10
552.734014
 20
176.484586
 30
0.0
 10
551.779596
 20
176.484586
 30
0.0
 10
551.005358
 20
176.036889
 30
0.0
  0
SPLINE
  5
19d
100
AcDbEntity
  8
View003
 62
7
100
AcDbSpline
 70
8
 71
3
 72
8
 73
4
 74
0
 40
0
 40
0
 40
0
 40
0
 40
1
 40
1
 40
1
 40
1
 10
551.005358
 20
176.036889
 30
0.0
 10
550.231121
 20
175.589193
 30
0.0
 10
549.755017
 20
174.762005
 30
0.0
 10
549.756811
 20
173.867649
 30
0.0
  0
SPLINE
  5
19e
100
AcDbEntity
  8
View003
 62
7
100
AcDbSpline
 70
8
 71
3
 72
8
 73
4
 74
0
 40
0
 40
0
 40
0
 40
0
 40
1
 40
1
 40
1
 40
1
 10
549.756811
 20
173.867649
 30
0.0
 10
549.755017
 20
172.973293
 30
0.0
 10
550.231121
 20
172.146105
 30
0.0
 10
551.005358
 20
171.698409
 30
0.0
  0
SPLINE
  5
19f
100
AcDbEntity
  8
View003
 62
7
100
AcDbSpline
 70
8
 71
3
 72
8
 73
4
 74
0
 40
0
 40
0
 40
0
 40
0
 40
1
 40
1
 40
1
 40
1
 10
551.005358
 20
171.698409
 30
0.0
 10
551.779596
 20
171.250712
 30
0.0
 10
552.734014
 20
171.250712
 30
0.0
 10
553.508252
 20
171.698409
 30
0.0
  0
SPLINE
  5
1a0
100
AcDbEntity
  8
View003
 62
7
100
AcDbSpline
 70
8
 71
3
 72
8
 73
4
 74
0
 40
0
 40
0
 40
0
 40
0
 40
1
 40
1
 40
1
 40
1
 10
553.508252
 20
171.698409
 30
0.0
 10
554.282489
 20
172.146105
 30
0.0
 10
554.758593
 20
172.973293
 30
0.0
 10
554.756799
 20
173.867649
 30
0.0
  0
LWPOLYLINE
  5
1a1
100
AcDbEntity
  8
View003
 62
7
100
AcDbPolyline
 90
1
 70
1
 10
554.756799
 20
219.867637
 30
0.0
  0
SPLINE
  5
1a2
100
AcDbEntity
  8
View003
 62
7
100
AcDbSpline
 70
8
 71
3
 72
8
 73
4
 74
0
 40
0
 40
0
 40
0
 40
0
 40
1
 40
1
 40
1
 40
1
 10
259.757192
 20
219.867637
 30
0.0
 10
259.757192
 20
220.760800
 30
0.0
 10
259.280694
 20
221.586118
 30
0.0
 10
258.507192
 20
222.032700
 30
0.0
  0
SPLINE
  5
1a3
100
AcDbEntity
  8
View003
 62
7
100
AcDbSpline
 70
8
 71
3
 72
8
 73
4
 74
0
 40
0
 40
0
 40
0
 40
0
 40
1
 40
1
 40
1
 40
1
 10
258.507192
 20
222.032700
 30
0.0
 10
257.733689
 20
222.479282
 30
0.0
 10
256.780695
 20
222.479282
 30
0.0
 10
256.007192
 20
222.032700
 30
0.0
  0
SPLINE
  5
1a4
100
AcDbEntity
  8
View003
 62
7
100
AcDbSpline
 70
8
 71
3
 72
8
 73
4
 74
0
 40
0
 40
0
 40
0
 40
0
 40
1
 40
1
 40
1
 40
1
 10
256.007192
 20
222.032700
 30
0.0
 10
255.233690
 20
221.586118
 30
0.0
 10
254.757192
 20
220.760800
 30
0.0
 10
254.757192
 20
219.867637
 30
0.0
  0
SPLINE
  5
1a5
100
AcDbEntity
  8
View003
 62
7
100
AcDbSpline
 70
8
 71
3
 72
8
 73
4
 74
0
 40
0
 40
0
 40
0
 40
0
 40
1
 40
1
 40
1
 40
1
 10
254.757192
 20
219.867637
 30
0.0
 10
254.757192
 20
218.974473
 30
0.0
 10
255.233690
 20
218.149155
 30
0.0
 10
256.007192
 20
217.702573
 30
0.0
  0
SPLINE
  5
1a6
100
AcDbEntity
  8
View003
 62
7
100
AcDbSpline
 70
8
 71
3
 72
8
 73
4
 74
0
 40
0
 40
0
 40
0
 40
0
 40
1
 40
1
 40
1
 40
1
 10
256.007192
 20
217.702573
 30
0.0
 10
256.780695
 20
217.255992
 30
0.0
 10
257.733689
 20
217.255992
 30
0.0
 10
258.507192
 20
217.702573
 30
0.0
  0
SPLINE
  5
1a7
100
AcDbEntity
  8
View003
 62
7
100
AcDbSpline
 70
8
 71
3
 72
8
 73
4
 74
0
 40
0
 40
0
 40
0
 40
0
 40
1
 40
1
 40
1
 40
1
 10
258.507192
 20
217.702573
 30
0.0
 10
259.280694
 20
218.149155
 30
0.0
 10
259.757192
 20
218.974473
 30
0.0
 10
259.757192
 20
219.867637
 30
0.0
  0
LWPOLYLINE
  5
1a8
100
AcDbEntity
  8
View003
 62
7
100
AcDbPolyline
 90
1
 70
1
 10
554.756799
 20
173.867649
 30
0.0
  0
SPLINE
  5
1a9
100
AcDbEntity
  8
View003
 62
7
100
AcDbSpline
 70
8
 71
3
 72
8
 73
4
 74
0
 40
0
 40
0
 40
0
 40
0
 40
1
 40
1
 40
1
 40
1
 10
246.757195
 20
219.867637
 30
0.0
 10
246.757606
 20
220.761074
 30
0.0
 10
246.281199
 20
221.586820
 30
0.0
 10
245.507527
 20
222.033658
 30
0.0
  0
SPLINE
  5
1aa
100
AcDbEntity
  8
View003
 62
7
100
AcDbSpline
 70
8
 71
3
 72
8
 73
4
 74
0
 40
0
 40
0
 40
0
 40
0
 40
1
 40
1
 40
1
 40
1
 10
245.507527
 20
222.033658
 30
0.0
 10
244.733856
 20
222.480495
 30
0.0
 10
243.780535
 20
222.480495
 30
0.0
 10
243.006864
 20
222.033658
 30
0.0
  0
SPLINE
  5
1ab
100
AcDbEntity
  8
View003
 62
7
100
AcDbSpline
 70
8
 71
3
 72
8
 73
4
 74
0
 40
0
 40
0
 40
0
 40
0
 40
1
 40
1
 40
1
 40
1
 10
243.006864
 20
222.033658
 30
0.0
 10
242.233193
 20
221.586820
 30
0.0
 10
241.756786
 20
220.761074
 30
0.0
 10
241.757197
 20
219.867637
 30
0.0
  0
SPLINE
  5
1ac
100
AcDbEntity
  8
View003
 62
7
100
AcDbSpline
 70
8
 71
3
 72
8
 73
4
 74
0
 40
0
 40
0
 40
0
 40
0
 40
1
 40
1
 40
1
 40
1
 10
241.757197
 20
219.867637
 30
0.0
 10
241.756786
 20
218.974199
 30
0.0
 10
242.233193
 20
218.148453
 30
0.0
 10
243.006864
 20
217.701615
 30
0.0
  0
SPLINE
  5
1ad
100
AcDbEntity
  8
View003
 62
7
100
AcDbSpline
 70
8
 71
3
 72
8
 73
4
 74
0
 40
0
 40
0
 40
0
 40
0
 40
1
 40
1
 40
1
 40
1
 10
243.006864
 20
217.701615
 30
0.0
 10
243.780535
 20
217.254778
 30
0.0
 10
244.733856
 20
217.254778
 30
0.0
 10
245.507527
 20
217.701615
 30
0.0
  0
SPLINE
  5
1ae
100
AcDbEntity
  8
View003
 62
7
100
AcDbSpline
 70
8
 71
3
 72
8
 73
4
 74
0
 40
0
 40
0
 40
0
 40
0
 40
1
 40
1
 40
1
 40
1
 10
245.507527
 20
217.701615
 30
0.0
 10
246.281199
 20
218.148453
 30
0.0
 10
246.757606
 20
218.974199
 30
0.0
 10
246.757195
 20
219.867637
 30
0.0
  0
LWPOLYLINE
  5
1af
100
AcDbEntity
  8
View003
 62
7
100
AcDbPolyline
 90
1
 70
1
 10
259.757192
 20
219.867637
 30
0.0
  0
SPLINE
  5
1b0
100
AcDbEntity
  8
View003
 62
7
100
AcDbSpline
 70
8
 71
3
 72
8
 73
4
 74
0
 40
0
 40
0
 40
0
 40
0
 40
1
 40
1
 40
1
 40
1
 10
259.757192
 20
173.867649
 30
0.0
 10
259.757192
 20
174.760813
 30
0.0
 10
259.280694
 20
175.586130
 30
0.0
 10
258.507192
 20
176.032712
 30
0.0
  0
SPLINE
  5
1b1
100
AcDbEntity
  8
View003
 62
7
100
AcDbSpline
 70
8
 71
3
 72
8
 73
4
 74
0
 40
0
 40
0
 40
0
 40
0
 40
1
 40
1
 40
1
 40
1
 10
258.507192
 20
176.032712
 30
0.0
 10
257.733689
 20
176.479294
 30
0.0
 10
256.780695
 20
176.479294
 30
0.0
 10
256.007192
 20
176.032712
 30
0.0
  0
SPLINE
  5
1b2
100
AcDbEntity
  8
View003
 62
7
100
AcDbSpline
 70
8
 71
3
 72
8
 73
4
 74
0
 40
0
 40
0
 40
0
 40
0
 40
1
 40
1
 40
1
 40
1
 10
256.007192
 20
176.032712
 30
0.0
 10
255.233690
 20
175.586130
 30
0.0
 10
254.757192
 20
174.760813
 30
0.0
 10
254.757192
 20
173.867649
 30
0.0
  0
SPLINE
  5
1b3
100
AcDbEntity
  8
View003
 62
7
100
AcDbSpline
 70
8
 71
3
 72
8
 73
4
 74
0
 40
0
 40
0
 40
0
 40
0
 40
1
 40
1
 40
1
 40
1
 10
254.757192
 20
173.867649
 30
0.0
 10
254.757192
 20
172.974485
 30
0.0
 10
255.233690
 20
172.149168
 30
0.0
 10
256.007192
 20
171.702586
 30
0.0
  0
SPLINE
  5
1b4
100
AcDbEntity
  8
View003
 62
7
100
AcDbSpline
 70
8
 71
3
 72
8
 73
4
 74
0
 40
0
 40
0
 40
0
 40
0
 40
1
 40
1
 40
1
 40
1
 10
256.007192
 20
171.702586
 30
0.0
 10
256.780695
 20
171.256004
 30
0.0
 10
257.733689
 20
171.256004
 30
0.0
 10
258.507192
 20
171.702586
 30
0.0
  0
SPLINE
  5
1b5
100
AcDbEntity
  8
View003
 62
7
100
AcDbSpline
 70
8
 71
3
 72
8
 73
4
 74
0
 40
0
 40
0
 40
0
 40
0
 40
1
 40
1
 40
1
 40
1
 10
258.507192
 20
171.702586
 30
0.0
 10
259.280694
 20
172.149168
 30
0.0
 10
259.757192
 20
172.974485
 30
0.0
 10
259.757192
 20
173.867649
 30
0.0
  0
LWPOLYLINE
  5
1b6
100
AcDbEntity
  8
View003
 62
7
100
AcDbPolyline
 90
1
 70
1
 10
246.757195
 20
219.867637
 30
0.0
  0
SPLINE
  5
1b7
100
AcDbEntity
  8
View003
 62
7
100
AcDbSpline
 70
8
 71
3
 72
8
 73
4
 74
0
 40
0
 40
0
 40
0
 40
0
 40
1
 40
1
 40
1
 40
1
 10
246.757195
 20
173.867649
 30
0.0
 10
246.757606
 20
174.761086
 30
0.0
 10
246.281199
 20
175.586833
 30
0.0
 10
245.507527
 20
176.033670
 30
0.0
  0
SPLINE
  5
1b8
100
AcDbEntity
  8
View003
 62
7
100
AcDbSpline
 70
8
 71
3
 72
8
 73
4
 74
0
 40
0
 40
0
 40
0
 40
0
 40
1
 40
1
 40
1
 40
1
 10
245.507527
 20
176.033670
 30
0.0
 10
244.733856
 20
176.480508
 30
0.0
 10
243.780535
 20
176.480508
 30
0.0
 10
243.006864
 20
176.033670
 30
0.0
  0
SPLINE
  5
1b9
100
AcDbEntity
  8
View003
 62
7
100
AcDbSpline
 70
8
 71
3
 72
8
 73
4
 74
0
 40
0
 40
0
 40
0
 40
0
 40
1
 40
1
 40
1
 40
1
 10
243.006864
 20
176.033670
 30
0.0
 10
242.233193
 20
175.586833
 30
0.0
 10
241.756786
 20
174.761086
 30
0.0
 10
241.757197
 20
173.867649
 30
0.0
  0
SPLINE
  5
1ba
100
AcDbEntity
  8
View003
 62
7
100
AcDbSpline
 70
8
 71
3
 72
8
 73
4
 74
0
 40
0
 40
0
 40
0
 40
0
 40
1
 40
1
 40
1
 40
1
 10
241.757197
 20
173.867649
 30
0.0
 10
241.756786
 20
172.974211
 30
0.0
 10
242.233193
 20
172.148465
 30
0.0
 10
243.006864
 20
171.701628
 30
0.0
  0
SPLINE
  5
1bb
100
AcDbEntity
  8
View003
 62
7
100
AcDbSpline
 70
8
 71
3
 72
8
 73
4
 74
0
 40
0
 40
0
 40
0
 40
0
 40
1
 40
1
 40
1
 40
1
 10
243.006864
 20
171.701628
 30
0.0
 10
243.780535
 20
171.254790
 30
0.0
 10
244.733856
 20
171.254790
 30
0.0
 10
245.507527
 20
171.701628
 30
0.0
  0
SPLINE
  5
1bc
100
AcDbEntity
  8
View003
 62
7
100
AcDbSpline
 70
8
 71
3
 72
8
 73
4
 74
0
 40
0
 40
0
 40
0
 40
0
 40
1
 40
1
 40
1
 40
1
 10
245.507527
 20
171.701628
 30
0.0
 10
246.281199
 20
172.148465
 30
0.0
 10
246.757606
 20
172.974211
 30
0.0
 10
246.757195
 20
173.867649
 30
0.0
  0
LWPOLYLINE
  5
1bd
100
AcDbEntity
  8
View003
 62
7
100
AcDbPolyline
 90
1
 70
1
 10
259.757192
 20
173.867649
 30
0.0
  0
SPLINE
  5
1be
100
AcDbEntity
  8
View003
 62
7
100
AcDbSpline
 70
8
 71
3
 72
8
 73
4
 74
0
 40
0
 40
0
 40
0
 40
0
 40
1
 40
1
 40
1
 40
1
 10
385.356857
 20
254.367627
 30
0.0
 10
385.356857
 20
255.117884
 30
0.0
 10
384.956599
 20
255.811151
 30
0.0
 10
384.306857
 20
256.186280
 30
0.0
  0
SPLINE
  5
1bf
100
AcDbEntity
  8
View003
 62
7
100
AcDbSpline
 70
8
 71
3
 72
8
 73
4
 74
0
 40
0
 40
0
 40
0
 40
0
 40
1
 40
1
 40
1
 40
1
 10
384.306857
 20
256.186280
 30
0.0
 10
383.657115
 20
256.561409
 30
0.0
 10
382.856599
 20
256.561409
 30
0.0
 10
382.206857
 20
256.186280
 30
0.0
  0
SPLINE
  5
1c0
100
AcDbEntity
  8
View003
 62
7
100
AcDbSpline
 70
8
 71
3
 72
8
 73
4
 74
0
 40
0
 40
0
 40
0
 40
0
 40
1
 40
1
 40
1
 40
1
 10
382.206857
 20
256.186280
 30
0.0
 10
381.557115
 20
255.811151
 30
0.0
 10
381.156857
 20
255.117884
 30
0.0
 10
381.156857
 20
254.367627
 30
0.0
  0
SPLINE
  5
1c1
100
AcDbEntity
  8
View003
 62
7
100
AcDbSpline
 70
8
 71
3
 72
8
 73
4
 74
0
 40
0
 40
0
 40
0
 40
0
 40
1
 40
1
 40
1
 40
1
 10
381.156857
 20
254.367627
 30
0.0
 10
381.156857
 20
253.617369
 30
0.0
 10
381.557115
 20
252.924102
 30
0.0
 10
382.206857
 20
252.548973
 30
0.0
  0
SPLINE
  5
1c2
100
AcDbEntity
  8
View003
 62
7
100
AcDbSpline
 70
8
 71
3
 72
8
 73
4
 74
0
 40
0
 40
0
 40
0
 40
0
 40
1
 40
1
 40
1
 40
1
 10
382.206857
 20
252.548973
 30
0.0
 10
382.856599
 20
252.173845
 30
0.0
 10
383.657115
 20
252.173845
 30
0.0
 10
384.306857
 20
252.548973
 30
0.0
  0
SPLINE
  5
1c3
100
AcDbEntity
  8
View003
 62
7
100
AcDbSpline
 70
8
 71
3
 72
8
 73
4
 74
0
 40
0
 40
0
 40
0
 40
0
 40
1
 40
1
 40
1
 40
1
 10
384.306857
 20
252.548973
 30
0.0
 10
384.956599
 20
252.924102
 30
0.0
 10
385.356857
 20
253.617369
 30
0.0
 10
385.356857
 20
254.367627
 30
0.0
  0
LWPOLYLINE
  5
1c4
100
AcDbEntity
  8
View003
 62
7
100
AcDbPolyline
 90
1
 70
1
 10
246.757195
 20
173.867649
 30
0.0
  0
SPLINE
  5
1c5
100
AcDbEntity
  8
View003
 62
7
100
AcDbSpline
 70
8
 71
3
 72
8
 73
4
 74
0
 40
0
 40
0
 40
0
 40
0
 40
1
 40
1
 40
1
 40
1
 10
385.356857
 20
139.367659
 30
0.0
 10
385.356857
 20
140.117917
 30
0.0
 10
384.956599
 20
140.811183
 30
0.0
 10
384.306857
 20
141.186312
 30
0.0
  0
SPLINE
  5
1c6
100
AcDbEntity
  8
View003
 62
7
100
AcDbSpline
 70
8
 71
3
 72
8
 73
4
 74
0
 40
0
 40
0
 40
0
 40
0
 40
1
 40
1
 40
1
 40
1
 10
384.306857
 20
141.186312
 30
0.0
 10
383.657115
 20
141.561441
 30
0.0
 10
382.856599
 20
141.561441
 30
0.0
 10
382.206857
 20
141.186312
 30
0.0
  0
SPLINE
  5
1c7
100
AcDbEntity
  8
View003
 62
7
100
AcDbSpline
 70
8
 71
3
 72
8
 73
4
 74
0
 40
0
 40
0
 40
0
 40
0
 40
1
 40
1
 40
1
 40
1
 10
382.206857
 20
141.186312
 30
0.0
 10
381.557115
 20
140.811183
 30
0.0
 10
381.156857
 20
140.117917
 30
0.0
 10
381.156857
 20
139.367659
 30
0.0
  0
SPLINE
  5
1c8
100
AcDbEntity
  8
View003
 62
7
100
AcDbSpline
 70
8
 71
3
 72
8
 73
4
 74
0
 40
0
 40
0
 40
0
 40
0
 40
1
 40
1
 40
1
 40
1
 10
381.156857
 20
139.367659
 30
0.0
 10
381.156857
 20
138.617401
 30
0.0
 10
381.557115
 20
137.924134
 30
0.0
 10
382.206857
 20
137.549005
 30
0.0
  0
SPLINE
  5
1c9
100
AcDbEntity
  8
View003
 62
7
100
AcDbSpline
 70
8
 71
3
 72
8
 73
4
 74
0
 40
0
 40
0
 40
0
 40
0
 40
1
 40
1
 40
1
 40
1
 10
382.206857
 20
137.549005
 30
0.0
 10
382.856599
 20
137.173877
 30
0.0
 10
383.657115
 20
137.173877
 30
0.0
 10
384.306857
 20
137.549005
 30
0.0
  0
SPLINE
  5
1ca
100
AcDbEntity
  8
View003
 62
7
100
AcDbSpline
 70
8
 71
3
 72
8
 73
4
 74
0
 40
0
 40
0
 40
0
 40
0
 40
1
 40
1
 40
1
 40
1
 10
384.306857
 20
137.549005
 30
0.0
 10
384.956599
 20
137.924134
 30
0.0
 10
385.356857
 20
138.617401
 30
0.0
 10
385.356857
 20
139.367659
 30
0.0
  0
LWPOLYLINE
  5
1cb
100
AcDbEntity
  8
View003
 62
7
100
AcDbPolyline
 90
1
 70
1
 10
385.356857
 20
254.367627
 30
0.0
  0
SPLINE
  5
1cc
100
AcDbEntity
  8
View003
 62
7
100
AcDbSpline
 70
8
 71
3
 72
8
 73
4
 74
0
 40
0
 40
0
 40
0
 40
0
 40
1
 40
1
 40
1
 40
1
 10
445.356839
 20
254.367627
 30
0.0
 10
445.357492
 20
255.118319
 30
0.0
 10
444.957377
 20
255.812266
 30
0.0
 10
444.307367
 20
256.187801
 30
0.0
  0
SPLINE
  5
1cd
100
AcDbEntity
  8
View003
 62
7
100
AcDbSpline
 70
8
 71
3
 72
8
 73
4
 74
0
 40
0
 40
0
 40
0
 40
0
 40
1
 40
1
 40
1
 40
1
 10
444.307367
 20
256.187801
 30
0.0
 10
443.657357
 20
256.563336
 30
0.0
 10
442.856324
 20
256.563336
 30
0.0
 10
442.206314
 20
256.187801
 30
0.0
  0
SPLINE
  5
1ce
100
AcDbEntity
  8
View003
 62
7
100
AcDbSpline
 70
8
 71
3
 72
8
 73
4
 74
0
 40
0
 40
0
 40
0
 40
0
 40
1
 40
1
 40
1
 40
1
 10
442.206314
 20
256.187801
 30
0.0
 10
441.556304
 20
255.812266
 30
0.0
 10
441.156189
 20
255.118319
 30
0.0
 10
441.156842
 20
254.367627
 30
0.0
  0
SPLINE
  5
1cf
100
AcDbEntity
  8
View003
 62
7
100
AcDbSpline
 70
8
 71
3
 72
8
 73
4
 74
0
 40
0
 40
0
 40
0
 40
0
 40
1
 40
1
 40
1
 40
1
 10
441.156842
 20
254.367627
 30
0.0
 10
441.156189
 20
253.616935
 30
0.0
 10
441.556304
 20
252.922987
 30
0.0
 10
442.206314
 20
252.547452
 30
0.0
  0
SPLINE
  5
1d0
100
AcDbEntity
  8
View003
 62
7
100
AcDbSpline
 70
8
 71
3
 72
8
 73
4
 74
0
 40
0
 40
0
 40
0
 40
0
 40
1
 40
1
 40
1
 40
1
 10
442.206314
 20
252.547452
 30
0.0
 10
442.856324
 20
252.171918
 30
0.0
 10
443.657357
 20
252.171918
 30
0.0
 10
444.307367
 20
252.547452
 30
0.0
  0
SPLINE
  5
1d1
100
AcDbEntity
  8
View003
 62
7
100
AcDbSpline
 70
8
 71
3
 72
8
 73
4
 74
0
 40
0
 40
0
 40
0
 40
0
 40
1
 40
1
 40
1
 40
1
 10
444.307367
 20
252.547452
 30
0.0
 10
444.957377
 20
252.922987
 30
0.0
 10
445.357492
 20
253.616935
 30
0.0
 10
445.356839
 20
254.367627
 30
0.0
  0
LWPOLYLINE
  5
1d2
100
AcDbEntity
  8
View003
 62
7
100
AcDbPolyline
 90
1
 70
1
 10
385.356857
 20
139.367659
 30
0.0
  0
SPLINE
  5
1d3
100
AcDbEntity
  8
View003
 62
7
100
AcDbSpline
 70
8
 71
3
 72
8
 73
4
 74
0
 40
0
 40
0
 40
0
 40
0
 40
1
 40
1
 40
1
 40
1
 10
445.356839
 20
139.367659
 30
0.0
 10
445.357492
 20
140.118351
 30
0.0
 10
444.957377
 20
140.812299
 30
0.0
 10
444.307367
 20
141.187833
 30
0.0
  0
SPLINE
  5
1d4
100
AcDbEntity
  8
View003
 62
7
100
AcDbSpline
 70
8
 71
3
 72
8
 73
4
 74
0
 40
0
 40
0
 40
0
 40
0
 40
1
 40
1
 40
1
 40
1
 10
444.307367
 20
141.187833
 30
0.0
 10
443.657357
 20
141.563368
 30
0.0
 10
442.856324
 20
141.563368
 30
0.0
 10
442.206314
 20
141.187833
 30
0.0
  0
SPLINE
  5
1d5
100
AcDbEntity
  8
View003
 62
7
100
AcDbSpline
 70
8
 71
3
 72
8
 73
4
 74
0
 40
0
 40
0
 40
0
 40
0
 40
1
 40
1
 40
1
 40
1
 10
442.206314
 20
141.187833
 30
0.0
 10
441.556304
 20
140.812299
 30
0.0
 10
441.156189
 20
140.118351
 30
0.0
 10
441.156842
 20
139.367659
 30
0.0
  0
SPLINE
  5
1d6
100
AcDbEntity
  8
View003
 62
7
100
AcDbSpline
 70
8
 71
3
 72
8
 73
4
 74
0
 40
0
 40
0
 40
0
 40
0
 40
1
 40
1
 40
1
 40
1
 10
441.156842
 20
139.367659
 30
0.0
 10
441.156189
 20
138.616967
 30
0.0
 10
441.556304
 20
137.923019
 30
0.0
 10
442.206314
 20
137.547484
 30
0.0
  0
SPLINE
  5
1d7
100
AcDbEntity
  8
View003
 62
7
100
AcDbSpline
 70
8
 71
3
 72
8
 73
4
 74
0
 40
0
 40
0
 40
0
 40
0
 40
1
 40
1
 40
1
 40
1
 10
442.206314
 20
137.547484
 30
0.0
 10
442.856324
 20
137.171950
 30
0.0
 10
443.657357
 20
137.171950
 30
0.0
 10
444.307367
 20
137.547484
 30
0.0
  0
SPLINE
  5
1d8
100
AcDbEntity
  8
View003
 62
7
100
AcDbSpline
 70
8
 71
3
 72
8
 73
4
 74
0
 40
0
 40
0
 40
0
 40
0
 40
1
 40
1
 40
1
 40
1
 10
444.307367
 20
137.547484
 30
0.0
 10
444.957377
 20
137.923019
 30
0.0
 10
445.357492
 20
138.616967
 30
0.0
 10
445.356839
 20
139.367659
 30
0.0
  0
LWPOLYLINE
  5
1d9
100
AcDbEntity
  8
View003
 62
7
100
AcDbPolyline
 90
1
 70
1
 10
445.356839
 20
254.367627
 30
0.0
  0
SPLINE
  5
1da
100
AcDbEntity
  8
View003
 62
7
100
AcDbSpline
 70
8
 71
3
 72
8
 73
4
 74
0
 40
0
 40
0
 40
0
 40
0
 40
1
 40
1
 40
1
 40
1
 10
565.356798
 20
254.367627
 30
0.0
 10
565.357865
 20
255.118594
 30
0.0
 10
564.957841
 20
255.812972
 30
0.0
 10
564.307661
 20
256.188764
 30
0.0
  0
SPLINE
  5
1db
100
AcDbEntity
  8
View003
 62
7
100
AcDbSpline
 70
8
 71
3
 72
8
 73
4
 74
0
 40
0
 40
0
 40
0
 40
0
 40
1
 40
1
 40
1
 40
1
 10
564.307661
 20
256.188764
 30
0.0
 10
563.657482
 20
256.564556
 30
0.0
 10
562.856120
 20
256.564556
 30
0.0
 10
562.205941
 20
256.188764
 30
0.0
  0
SPLINE
  5
1dc
100
AcDbEntity
  8
View003
 62
7
100
AcDbSpline
 70
8
 71
3
 72
8
 73
4
 74
0
 40
0
 40
0
 40
0
 40
0
 40
1
 40
1
 40
1
 40
1
 10
562.205941
 20
256.188764
 30
0.0
 10
561.555761
 20
255.812972
 30
0.0
 10
561.155738
 20
255.118594
 30
0.0
 10
561.156804
 20
254.367627
 30
0.0
  0
SPLINE
  5
1dd
100
AcDbEntity
  8
View003
 62
7
100
AcDbSpline
 70
8
 71
3
 72
8
 73
4
 74
0
 40
0
 40
0
 40
0
 40
0
 40
1
 40
1
 40
1
 40
1
 10
561.156804
 20
254.367627
 30
0.0
 10
561.155738
 20
253.616660
 30
0.0
 10
561.555761
 20
252.922281
 30
0.0
 10
562.205941
 20
252.546489
 30
0.0
  0
SPLINE
  5
1de
100
AcDbEntity
  8
View003
 62
7
100
AcDbSpline
 70
8
 71
3
 72
8
 73
4
 74
0
 40
0
 40
0
 40
0
 40
0
 40
1
 40
1
 40
1
 40
1
 10
562.205941
 20
252.546489
 30
0.0
 10
562.856120
 20
252.170698
 30
0.0
 10
563.657482
 20
252.170698
 30
0.0
 10
564.307661
 20
252.546489
 30
0.0
  0
SPLINE
  5
1df
100
AcDbEntity
  8
View003
 62
7
100
AcDbSpline
 70
8
 71
3
 72
8
 73
4
 74
0
 40
0
 40
0
 40
0
 40
0
 40
1
 40
1
 40
1
 40
1
 10
564.307661
 20
252.546489
 30
0.0
 10
564.957841
 20
252.922281
 30
0.0
 10
565.357865
 20
253.616660
 30
0.0
 10
565.356798
 20
254.367627
 30
0.0
  0
LWPOLYLINE
  5
1e0
100
AcDbEntity
  8
View003
 62
7
100
AcDbPolyline
 90
1
 70
1
 10
445.356839
 20
139.367659
 30
0.0
  0
SPLINE
  5
1e1
100
AcDbEntity
  8
View003
 62
7
100
AcDbSpline
 70
8
 71
3
 72
8
 73
4
 74
0
 40
0
 40
0
 40
0
 40
0
 40
1
 40
1
 40
1
 40
1
 10
505.356829
 20
254.367627
 30
0.0
 10
505.357896
 20
255.118594
 30
0.0
 10
504.957872
 20
255.812972
 30
0.0
 10
504.307692
 20
256.188764
 30
0.0
  0
SPLINE
  5
1e2
100
AcDbEntity
  8
View003
 62
7
100
AcDbSpline
 70
8
 71
3
 72
8
 73
4
 74
0
 40
0
 40
0
 40
0
 40
0
 40
1
 40
1
 40
1
 40
1
 10
504.307692
 20
256.188764
 30
0.0
 10
503.657513
 20
256.564556
 30
0.0
 10
502.856151
 20
256.564556
 30
0.0
 10
502.205972
 20
256.188764
 30
0.0
  0
SPLINE
  5
1e3
100
AcDbEntity
  8
View003
 62
7
100
AcDbSpline
 70
8
 71
3
 72
8
 73
4
 74
0
 40
0
 40
0
 40
0
 40
0
 40
1
 40
1
 40
1
 40
1
 10
502.205972
 20
256.188764
 30
0.0
 10
501.555792
 20
255.812972
 30
0.0
 10
501.155769
 20
255.118594
 30
0.0
 10
501.156835
 20
254.367627
 30
0.0
  0
SPLINE
  5
1e4
100
AcDbEntity
  8
View003
 62
7
100
AcDbSpline
 70
8
 71
3
 72
8
 73
4
 74
0
 40
0
 40
0
 40
0
 40
0
 40
1
 40
1
 40
1
 40
1
 10
501.156835
 20
254.367627
 30
0.0
 10
501.155769
 20
253.616660
 30
0.0
 10
501.555792
 20
252.922281
 30
0.0
 10
502.205972
 20
252.546489
 30
0.0
  0
SPLINE
  5
1e5
100
AcDbEntity
  8
View003
 62
7
100
AcDbSpline
 70
8
 71
3
 72
8
 73
4
 74
0
 40
0
 40
0
 40
0
 40
0
 40
1
 40
1
 40
1
 40
1
 10
502.205972
 20
252.546489
 30
0.0
 10
502.856151
 20
252.170698
 30
0.0
 10
503.657513
 20
252.170698
 30
0.0
 10
504.307692
 20
252.546489
 30
0.0
  0
SPLINE
  5
1e6
100
AcDbEntity
  8
View003
 62
7
100
AcDbSpline
 70
8
 71
3
 72
8
 73
4
 74
0
 40
0
 40
0
 40
0
 40
0
 40
1
 40
1
 40
1
 40
1
 10
504.307692
 20
252.546489
 30
0.0
 10
504.957872
 20
252.922281
 30
0.0
 10
505.357896
 20
253.616660
 30
0.0
 10
505.356829
 20
254.367627
 30
0.0
  0
LWPOLYLINE
  5
1e7
100
AcDbEntity
  8
View003
 62
7
100
AcDbPolyline
 90
1
 70
1
 10
565.356798
 20
254.367627
 30
0.0
  0
SPLINE
  5
1e8
100
AcDbEntity
  8
View003
 62
7
100
AcDbSpline
 70
8
 71
3
 72
8
 73
4
 74
0
 40
0
 40
0
 40
0
 40
0
 40
1
 40
1
 40
1
 40
1
 10
565.356798
 20
139.367659
 30
0.0
 10
565.357865
 20
140.118626
 30
0.0
 10
564.957841
 20
140.813005
 30
0.0
 10
564.307661
 20
141.188796
 30
0.0
  0
SPLINE
  5
1e9
100
AcDbEntity
  8
View003
 62
7
100
AcDbSpline
 70
8
 71
3
 72
8
 73
4
 74
0
 40
0
 40
0
 40
0
 40
0
 40
1
 40
1
 40
1
 40
1
 10
564.307661
 20
141.188796
 30
0.0
 10
563.657482
 20
141.564588
 30
0.0
 10
562.856120
 20
141.564588
 30
0.0
 10
562.205941
 20
141.188796
 30
0.0
  0
SPLINE
  5
1ea
100
AcDbEntity
  8
View003
 62
7
100
AcDbSpline
 70
8
 71
3
 72
8
 73
4
 74
0
 40
0
 40
0
 40
0
 40
0
 40
1
 40
1
 40
1
 40
1
 10
562.205941
 20
141.188796
 30
0.0
 10
561.555761
 20
140.813005
 30
0.0
 10
561.155738
 20
140.118626
 30
0.0
 10
561.156804
 20
139.367659
 30
0.0
  0
SPLINE
  5
1eb
100
AcDbEntity
  8
View003
 62
7
100
AcDbSpline
 70
8
 71
3
 72
8
 73
4
 74
0
 40
0
 40
0
 40
0
 40
0
 40
1
 40
1
 40
1
 40
1
 10
561.156804
 20
139.367659
 30
0.0
 10
561.155738
 20
138.616692
 30
0.0
 10
561.555761
 20
137.922313
 30
0.0
 10
562.205941
 20
137.546521
 30
0.0
  0
SPLINE
  5
1ec
100
AcDbEntity
  8
View003
 62
7
100
AcDbSpline
 70
8
 71
3
 72
8
 73
4
 74
0
 40
0
 40
0
 40
0
 40
0
 40
1
 40
1
 40
1
 40
1
 10
562.205941
 20
137.546521
 30
0.0
 10
562.856120
 20
137.170730
 30
0.0
 10
563.657482
 20
137.170730
 30
0.0
 10
564.307661
 20
137.546521
 30
0.0
  0
SPLINE
  5
1ed
100
AcDbEntity
  8
View003
 62
7
100
AcDbSpline
 70
8
 71
3
 72
8
 73
4
 74
0
 40
0
 40
0
 40
0
 40
0
 40
1
 40
1
 40
1
 40
1
 10
564.307661
 20
137.546521
 30
0.0
 10
564.957841
 20
137.922313
 30
0.0
 10
565.357865
 20
138.616692
 30
0.0
 10
565.356798
 20
139.367659
 30
0.0
  0
LWPOLYLINE
  5
1ee
100
AcDbEntity
  8
View003
 62
7
100
AcDbPolyline
 90
1
 70
1
 10
505.356829
 20
254.367627
 30
0.0
  0
SPLINE
  5
1ef
100
AcDbEntity
  8
View003
 62
7
100
AcDbSpline
 70
8
 71
3
 72
8
 73
4
 74
0
 40
0
 40
0
 40
0
 40
0
 40
1
 40
1
 40
1
 40
1
 10
505.356829
 20
139.367659
 30
0.0
 10
505.357896
 20
140.118626
 30
0.0
 10
504.957872
 20
140.813005
 30
0.0
 10
504.307692
 20
141.188796
 30
0.0
  0
SPLINE
  5
1f0
100
AcDbEntity
  8
View003
 62
7
100
AcDbSpline
 70
8
 71
3
 72
8
 73
4
 74
0
 40
0
 40
0
 40
0
 40
0
 40
1
 40
1
 40
1
 40
1
 10
504.307692
 20
141.188796
 30
0.0
 10
503.657513
 20
141.564588
 30
0.0
 10
502.856151
 20
141.564588
 30
0.0
 10
502.205972
 20
141.188796
 30
0.0
  0
SPLINE
  5
1f1
100
AcDbEntity
  8
View003
 62
7
100
AcDbSpline
 70
8
 71
3
 72
8
 73
4
 74
0
 40
0
 40
0
 40
0
 40
0
 40
1
 40
1
 40
1
 40
1
 10
502.205972
 20
141.188796
 30
0.0
 10
501.555792
 20
140.813005
 30
0.0
 10
501.155769
 20
140.118626
 30
0.0
 10
501.156835
 20
139.367659
 30
0.0
  0
SPLINE
  5
1f2
100
AcDbEntity
  8
View003
 62
7
100
AcDbSpline
 70
8
 71
3
 72
8
 73
4
 74
0
 40
0
 40
0
 40
0
 40
0
 40
1
 40
1
 40
1
 40
1
 10
501.156835
 20
139.367659
 30
0.0
 10
501.155769
 20
138.616692
 30
0.0
 10
501.555792
 20
137.922313
 30
0.0
 10
502.205972
 20
137.546521
 30
0.0
  0
SPLINE
  5
1f3
100
AcDbEntity
  8
View003
 62
7
100
AcDbSpline
 70
8
 71
3
 72
8
 73
4
 74
0
 40
0
 40
0
 40
0
 40
0
 40
1
 40
1
 40
1
 40
1
 10
502.205972
 20
137.546521
 30
0.0
 10
502.856151
 20
137.170730
 30
0.0
 10
503.657513
 20
137.170730
 30
0.0
 10
504.307692
 20
137.546521
 30
0.0
  0
SPLINE
  5
1f4
100
AcDbEntity
  8
View003
 62
7
100
AcDbSpline
 70
8
 71
3
 72
8
 73
4
 74
0
 40
0
 40
0
 40
0
 40
0
 40
1
 40
1
 40
1
 40
1
 10
504.307692
 20
137.546521
 30
0.0
 10
504.957872
 20
137.922313
 30
0.0
 10
505.357896
 20
138.616692
 30
0.0
 10
505.356829
 20
139.367659
 30
0.0
  0
LWPOLYLINE
  5
1f5
100
AcDbEntity
  8
View003
 62
7
100
AcDbPolyline
 90
1
 70
1
 10
565.356798
 20
139.367659
 30
0.0
  0
SPLINE
  5
1f6
100
AcDbEntity
  8
View003
 62
7
100
AcDbSpline
 70
8
 71
3
 72
8
 73
4
 74
0
 40
0
 40
0
 40
0
 40
0
 40
1
 40
1
 40
1
 40
1
 10
325.356872
 20
254.367627
 30
0.0
 10
325.357525
 20
255.118319
 30
0.0
 10
324.957410
 20
255.812266
 30
0.0
 10
324.307400
 20
256.187801
 30
0.0
  0
SPLINE
  5
1f7
100
AcDbEntity
  8
View003
 62
7
100
AcDbSpline
 70
8
 71
3
 72
8
 73
4
 74
0
 40
0
 40
0
 40
0
 40
0
 40
1
 40
1
 40
1
 40
1
 10
324.307400
 20
256.187801
 30
0.0
 10
323.657390
 20
256.563336
 30
0.0
 10
322.856357
 20
256.563336
 30
0.0
 10
322.206347
 20
256.187801
 30
0.0
  0
SPLINE
  5
1f8
100
AcDbEntity
  8
View003
 62
7
100
AcDbSpline
 70
8
 71
3
 72
8
 73
4
 74
0
 40
0
 40
0
 40
0
 40
0
 40
1
 40
1
 40
1
 40
1
 10
322.206347
 20
256.187801
 30
0.0
 10
321.556337
 20
255.812266
 30
0.0
 10
321.156222
 20
255.118319
 30
0.0
 10
321.156875
 20
254.367627
 30
0.0
  0
SPLINE
  5
1f9
100
AcDbEntity
  8
View003
 62
7
100
AcDbSpline
 70
8
 71
3
 72
8
 73
4
 74
0
 40
0
 40
0
 40
0
 40
0
 40
1
 40
1
 40
1
 40
1
 10
321.156875
 20
254.367627
 30
0.0
 10
321.156222
 20
253.616935
 30
0.0
 10
321.556337
 20
252.922987
 30
0.0
 10
322.206347
 20
252.547452
 30
0.0
  0
SPLINE
  5
1fa
100
AcDbEntity
  8
View003
 62
7
100
AcDbSpline
 70
8
 71
3
 72
8
 73
4
 74
0
 40
0
 40
0
 40
0
 40
0
 40
1
 40
1
 40
1
 40
1
 10
322.206347
 20
252.547452
 30
0.0
 10
322.856357
 20
252.171918
 30
0.0
 10
323.657390
 20
252.171918
 30
0.0
 10
324.307400
 20
252.547452
 30
0.0
  0
SPLINE
  5
1fb
100
AcDbEntity
  8
View003
 62
7
100
AcDbSpline
 70
8
 71
3
 72
8
 73
4
 74
0
 40
0
 40
0
 40
0
 40
0
 40
1
 40
1
 40
1
 40
1
 10
324.307400
 20
252.547452
 30
0.0
 10
324.957410
 20
252.922987
 30
0.0
 10
325.357525
 20
253.616935
 30
0.0
 10
325.356872
 20
254.367627
 30
0.0
  0
LWPOLYLINE
  5
1fc
100
AcDbEntity
  8
View003
 62
7
100
AcDbPolyline
 90
1
 70
1
 10
505.356829
 20
139.367659
 30
0.0
  0
SPLINE
  5
1fd
100
AcDbEntity
  8
View003
 62
7
100
AcDbSpline
 70
8
 71
3
 72
8
 73
4
 74
0
 40
0
 40
0
 40
0
 40
0
 40
1
 40
1
 40
1
 40
1
 10
265.357189
 20
254.367627
 30
0.0
 10
265.357842
 20
255.118319
 30
0.0
 10
264.957727
 20
255.812266
 30
0.0
 10
264.307717
 20
256.187801
 30
0.0
  0
SPLINE
  5
1fe
100
AcDbEntity
  8
View003
 62
7
100
AcDbSpline
 70
8
 71
3
 72
8
 73
4
 74
0
 40
0
 40
0
 40
0
 40
0
 40
1
 40
1
 40
1
 40
1
 10
264.307717
 20
256.187801
 30
0.0
 10
263.657707
 20
256.563336
 30
0.0
 10
262.856673
 20
256.563336
 30
0.0
 10
262.206664
 20
256.187801
 30
0.0
  0
SPLINE
  5
1ff
100
AcDbEntity
  8
View003
 62
7
100
AcDbSpline
 70
8
 71
3
 72
8
 73
4
 74
0
 40
0
 40
0
 40
0
 40
0
 40
1
 40
1
 40
1
 40
1
 10
262.206664
 20
256.187801
 30
0.0
 10
261.556654
 20
255.812266
 30
0.0
 10
261.156539
 20
255.118319
 30
0.0
 10
261.157192
 20
254.367627
 30
0.0
  0
SPLINE
  5
200
100
AcDbEntity
  8
View003
 62
7
100
AcDbSpline
 70
8
 71
3
 72
8
 73
4
 74
0
 40
0
 40
0
 40
0
 40
0
 40
1
 40
1
 40
1
 40
1
 10
261.157192
 20
254.367627
 30
0.0
 10
261.156539
 20
253.616935
 30
0.0
 10
261.556654
 20
252.922987
 30
0.0
 10
262.206664
 20
252.547452
 30
0.0
  0
SPLINE
  5
201
100
AcDbEntity
  8
View003
 62
7
100
AcDbSpline
 70
8
 71
3
 72
8
 73
4
 74
0
 40
0
 40
0
 40
0
 40
0
 40
1
 40
1
 40
1
 40
1
 10
262.206664
 20
252.547452
 30
0.0
 10
262.856673
 20
252.171918
 30
0.0
 10
263.657707
 20
252.171918
 30
0.0
 10
264.307717
 20
252.547452
 30
0.0
  0
SPLINE
  5
202
100
AcDbEntity
  8
View003
 62
7
100
AcDbSpline
 70
8
 71
3
 72
8
 73
4
 74
0
 40
0
 40
0
 40
0
 40
0
 40
1
 40
1
 40
1
 40
1
 10
264.307717
 20
252.547452
 30
0.0
 10
264.957727
 20
252.922987
 30
0.0
 10
265.357842
 20
253.616935
 30
0.0
 10
265.357189
 20
254.367627
 30
0.0
  0
LWPOLYLINE
  5
203
100
AcDbEntity
  8
View003
 62
7
100
AcDbPolyline
 90
1
 70
1
 10
325.356872
 20
254.367627
 30
0.0
  0
SPLINE
  5
204
100
AcDbEntity
  8
View003
 62
7
100
AcDbSpline
 70
8
 71
3
 72
8
 73
4
 74
0
 40
0
 40
0
 40
0
 40
0
 40
1
 40
1
 40
1
 40
1
 10
325.356872
 20
139.367659
 30
0.0
 10
325.357525
 20
140.118351
 30
0.0
 10
324.957410
 20
140.812299
 30
0.0
 10
324.307400
 20
141.187833
 30
0.0
  0
SPLINE
  5
205
100
AcDbEntity
  8
View003
 62
7
100
AcDbSpline
 70
8
 71
3
 72
8
 73
4
 74
0
 40
0
 40
0
 40
0
 40
0
 40
1
 40
1
 40
1
 40
1
 10
324.307400
 20
141.187833
 30
0.0
 10
323.657390
 20
141.563368
 30
0.0
 10
322.856357
 20
141.563368
 30
0.0
 10
322.206347
 20
141.187833
 30
0.0
  0
SPLINE
  5
206
100
AcDbEntity
  8
View003
 62
7
100
AcDbSpline
 70
8
 71
3
 72
8
 73
4
 74
0
 40
0
 40
0
 40
0
 40
0
 40
1
 40
1
 40
1
 40
1
 10
322.206347
 20
141.187833
 30
0.0
 10
321.556337
 20
140.812299
 30
0.0
 10
321.156222
 20
140.118351
 30
0.0
 10
321.156875
 20
139.367659
 30
0.0
  0
SPLINE
  5
207
100
AcDbEntity
  8
View003
 62
7
100
AcDbSpline
 70
8
 71
3
 72
8
 73
4
 74
0
 40
0
 40
0
 40
0
 40
0
 40
1
 40
1
 40
1
 40
1
 10
321.156875
 20
139.367659
 30
0.0
 10
321.156222
 20
138.616967
 30
0.0
 10
321.556337
 20
137.923019
 30
0.0
 10
322.206347
 20
137.547484
 30
0.0
  0
SPLINE
  5
208
100
AcDbEntity
  8
View003
 62
7
100
AcDbSpline
 70
8
 71
3
 72
8
 73
4
 74
0
 40
0
 40
0
 40
0
 40
0
 40
1
 40
1
 40
1
 40
1
 10
322.206347
 20
137.547484
 30
0.0
 10
322.856357
 20
137.171950
 30
0.0
 10
323.657390
 20
137.171950
 30
0.0
 10
324.307400
 20
137.547484
 30
0.0
  0
SPLINE
  5
209
100
AcDbEntity
  8
View003
 62
7
100
AcDbSpline
 70
8
 71
3
 72
8
 73
4
 74
0
 40
0
 40
0
 40
0
 40
0
 40
1
 40
1
 40
1
 40
1
 10
324.307400
 20
137.547484
 30
0.0
 10
324.957410
 20
137.923019
 30
0.0
 10
325.357525
 20
138.616967
 30
0.0
 10
325.356872
 20
139.367659
 30
0.0
  0
LWPOLYLINE
  5
20a
100
AcDbEntity
  8
View003
 62
7
100
AcDbPolyline
 90
1
 70
1
 10
265.357189
 20
254.367627
 30
0.0
  0
SPLINE
  5
20b
100
AcDbEntity
  8
View003
 62
7
100
AcDbSpline
 70
8
 71
3
 72
8
 73
4
 74
0
 40
0
 40
0
 40
0
 40
0
 40
1
 40
1
 40
1
 40
1
 10
265.357189
 20
139.367659
 30
0.0
 10
265.357842
 20
140.118351
 30
0.0
 10
264.957727
 20
140.812299
 30
0.0
 10
264.307717
 20
141.187833
 30
0.0
  0
SPLINE
  5
20c
100
AcDbEntity
  8
View003
 62
7
100
AcDbSpline
 70
8
 71
3
 72
8
 73
4
 74
0
 40
0
 40
0
 40
0
 40
0
 40
1
 40
1
 40
1
 40
1
 10
264.307717
 20
141.187833
 30
0.0
 10
263.657707
 20
141.563368
 30
0.0
 10
262.856673
 20
141.563368
 30
0.0
 10
262.206664
 20
141.187833
 30
0.0
  0
SPLINE
  5
20d
100
AcDbEntity
  8
View003
 62
7
100
AcDbSpline
 70
8
 71
3
 72
8
 73
4
 74
0
 40
0
 40
0
 40
0
 40
0
 40
1
 40
1
 40
1
 40
1
 10
262.206664
 20
141.187833
 30
0.0
 10
261.556654
 20
140.812299
 30
0.0
 10
261.156539
 20
140.118351
 30
0.0
 10
261.157192
 20
139.367659
 30
0.0
  0
SPLINE
  5
20e
100
AcDbEntity
  8
View003
 62
7
100
AcDbSpline
 70
8
 71
3
 72
8
 73
4
 74
0
 40
0
 40
0
 40
0
 40
0
 40
1
 40
1
 40
1
 40
1
 10
261.157192
 20
139.367659
 30
0.0
 10
261.156539
 20
138.616967
 30
0.0
 10
261.556654
 20
137.923019
 30
0.0
 10
262.206664
 20
137.547484
 30
0.0
  0
SPLINE
  5
20f
100
AcDbEntity
  8
View003
 62
7
100
AcDbSpline
 70
8
 71
3
 72
8
 73
4
 74
0
 40
0
 40
0
 40
0
 40
0
 40
1
 40
1
 40
1
 40
1
 10
262.206664
 20
137.547484
 30
0.0
 10
262.856673
 20
137.171950
 30
0.0
 10
263.657707
 20
137.171950
 30
0.0
 10
264.307717
 20
137.547484
 30
0.0
  0
SPLINE
  5
210
100
AcDbEntity
  8
View003
 62
7
100
AcDbSpline
 70
8
 71
3
 72
8
 73
4
 74
0
 40
0
 40
0
 40
0
 40
0
 40
1
 40
1
 40
1
 40
1
 10
264.307717
 20
137.547484
 30
0.0
 10
264.957727
 20
137.923019
 30
0.0
 10
265.357842
 20
138.616967
 30
0.0
 10
265.357189
 20
139.367659
 30
0.0
  0
LWPOLYLINE
  5
211
100
AcDbEntity
  8
View003
 62
7
100
AcDbPolyline
 90
1
 70
1
 10
325.356872
 20
139.367659
 30
0.0
  0
SPLINE
  5
212
100
AcDbEntity
  8
View003
 62
7
100
AcDbSpline
 70
8
 71
3
 72
8
 73
4
 74
0
 40
0
 40
0
 40
0
 40
0
 40
1
 40
1
 40
1
 40
1
 10
259.357192
 20
276.867620
 30
0.0
 10
259.357192
 20
277.617878
 30
0.0
 10
258.956934
 20
278.311145
 30
0.0
 10
258.307192
 20
278.686274
 30
0.0
  0
SPLINE
  5
213
100
AcDbEntity
  8
View003
 62
7
100
AcDbSpline
 70
8
 71
3
 72
8
 73
4
 74
0
 40
0
 40
0
 40
0
 40
0
 40
1
 40
1
 40
1
 40
1
 10
258.307192
 20
278.686274
 30
0.0
 10
257.657450
 20
279.061403
 30
0.0
 10
256.856934
 20
279.061403
 30
0.0
 10
256.207192
 20
278.686274
 30
0.0
  0
SPLINE
  5
214
100
AcDbEntity
  8
View003
 62
7
100
AcDbSpline
 70
8
 71
3
 72
8
 73
4
 74
0
 40
0
 40
0
 40
0
 40
0
 40
1
 40
1
 40
1
 40
1
 10
256.207192
 20
278.686274
 30
0.0
 10
255.557450
 20
278.311145
 30
0.0
 10
255.157192
 20
277.617878
 30
0.0
 10
255.157192
 20
276.867620
 30
0.0
  0
SPLINE
  5
215
100
AcDbEntity
  8
View003
 62
7
100
AcDbSpline
 70
8
 71
3
 72
8
 73
4
 74
0
 40
0
 40
0
 40
0
 40
0
 40
1
 40
1
 40
1
 40
1
 10
255.157192
 20
276.867620
 30
0.0
 10
255.157192
 20
276.117363
 30
0.0
 10
255.557450
 20
275.424096
 30
0.0
 10
256.207192
 20
275.048967
 30
0.0
  0
SPLINE
  5
216
100
AcDbEntity
  8
View003
 62
7
100
AcDbSpline
 70
8
 71
3
 72
8
 73
4
 74
0
 40
0
 40
0
 40
0
 40
0
 40
1
 40
1
 40
1
 40
1
 10
256.207192
 20
275.048967
 30
0.0
 10
256.856934
 20
274.673838
 30
0.0
 10
257.657450
 20
274.673838
 30
0.0
 10
258.307192
 20
275.048967
 30
0.0
  0
SPLINE
  5
217
100
AcDbEntity
  8
View003
 62
7
100
AcDbSpline
 70
8
 71
3
 72
8
 73
4
 74
0
 40
0
 40
0
 40
0
 40
0
 40
1
 40
1
 40
1
 40
1
 10
258.307192
 20
275.048967
 30
0.0
 10
258.956934
 20
275.424096
 30
0.0
 10
259.357192
 20
276.117363
 30
0.0
 10
259.357192
 20
276.867620
 30
0.0
  0
LWPOLYLINE
  5
218
100
AcDbEntity
  8
View003
 62
7
100
AcDbPolyline
 90
1
 70
1
 10
265.357189
 20
139.367659
 30
0.0
  0
SPLINE
  5
219
100
AcDbEntity
  8
View003
 62
7
100
AcDbSpline
 70
8
 71
3
 72
8
 73
4
 74
0
 40
0
 40
0
 40
0
 40
0
 40
1
 40
1
 40
1
 40
1
 10
246.357195
 20
276.867620
 30
0.0
 10
246.357195
 20
277.617878
 30
0.0
 10
245.956938
 20
278.311144
 30
0.0
 10
245.307196
 20
278.686273
 30
0.0
  0
SPLINE
  5
21a
100
AcDbEntity
  8
View003
 62
7
100
AcDbSpline
 70
8
 71
3
 72
8
 73
4
 74
0
 40
0
 40
0
 40
0
 40
0
 40
1
 40
1
 40
1
 40
1
 10
245.307196
 20
278.686273
 30
0.0
 10
244.657454
 20
279.061402
 30
0.0
 10
243.856938
 20
279.061402
 30
0.0
 10
243.207196
 20
278.686273
 30
0.0
  0
SPLINE
  5
21b
100
AcDbEntity
  8
View003
 62
7
100
AcDbSpline
 70
8
 71
3
 72
8
 73
4
 74
0
 40
0
 40
0
 40
0
 40
0
 40
1
 40
1
 40
1
 40
1
 10
243.207196
 20
278.686273
 30
0.0
 10
242.557454
 20
278.311144
 30
0.0
 10
242.157197
 20
277.617878
 30
0.0
 10
242.157197
 20
276.867620
 30
0.0
  0
SPLINE
  5
21c
100
AcDbEntity
  8
View003
 62
7
100
AcDbSpline
 70
8
 71
3
 72
8
 73
4
 74
0
 40
0
 40
0
 40
0
 40
0
 40
1
 40
1
 40
1
 40
1
 10
242.157197
 20
276.867620
 30
0.0
 10
242.157197
 20
276.117363
 30
0.0
 10
242.557454
 20
275.424096
 30
0.0
 10
243.207196
 20
275.048968
 30
0.0
  0
SPLINE
  5
21d
100
AcDbEntity
  8
View003
 62
7
100
AcDbSpline
 70
8
 71
3
 72
8
 73
4
 74
0
 40
0
 40
0
 40
0
 40
0
 40
1
 40
1
 40
1
 40
1
 10
243.207196
 20
275.048968
 30
0.0
 10
243.856938
 20
274.673839
 30
0.0
 10
244.657454
 20
274.673839
 30
0.0
 10
245.307196
 20
275.048968
 30
0.0
  0
SPLINE
  5
21e
100
AcDbEntity
  8
View003
 62
7
100
AcDbSpline
 70
8
 71
3
 72
8
 73
4
 74
0
 40
0
 40
0
 40
0
 40
0
 40
1
 40
1
 40
1
 40
1
 10
245.307196
 20
275.048968
 30
0.0
 10
245.956938
 20
275.424096
 30
0.0
 10
246.357195
 20
276.117363
 30
0.0
 10
246.357195
 20
276.867620
 30
0.0
  0
LWPOLYLINE
  5
21f
100
AcDbEntity
  8
View003
 62
7
100
AcDbPolyline
 90
1
 70
1
 10
259.357192
 20
276.867620
 30
0.0
  0
SPLINE
  5
220
100
AcDbEntity
  8
View003
 62
7
100
AcDbSpline
 70
8
 71
3
 72
8
 73
4
 74
0
 40
0
 40
0
 40
0
 40
0
 40
1
 40
1
 40
1
 40
1
 10
246.357195
 20
116.868065
 30
0.0
 10
246.357195
 20
117.618322
 30
0.0
 10
245.956938
 20
118.311589
 30
0.0
 10
245.307196
 20
118.686718
 30
0.0
  0
SPLINE
  5
221
100
AcDbEntity
  8
View003
 62
7
100
AcDbSpline
 70
8
 71
3
 72
8
 73
4
 74
0
 40
0
 40
0
 40
0
 40
0
 40
1
 40
1
 40
1
 40
1
 10
245.307196
 20
118.686718
 30
0.0
 10
244.657454
 20
119.061846
 30
0.0
 10
243.856938
 20
119.061846
 30
0.0
 10
243.207196
 20
118.686718
 30
0.0
  0
SPLINE
  5
222
100
AcDbEntity
  8
View003
 62
7
100
AcDbSpline
 70
8
 71
3
 72
8
 73
4
 74
0
 40
0
 40
0
 40
0
 40
0
 40
1
 40
1
 40
1
 40
1
 10
243.207196
 20
118.686718
 30
0.0
 10
242.557454
 20
118.311589
 30
0.0
 10
242.157197
 20
117.618322
 30
0.0
 10
242.157197
 20
116.868065
 30
0.0
  0
SPLINE
  5
223
100
AcDbEntity
  8
View003
 62
7
100
AcDbSpline
 70
8
 71
3
 72
8
 73
4
 74
0
 40
0
 40
0
 40
0
 40
0
 40
1
 40
1
 40
1
 40
1
 10
242.157197
 20
116.868065
 30
0.0
 10
242.157197
 20
116.117807
 30
0.0
 10
242.557454
 20
115.424541
 30
0.0
 10
243.207196
 20
115.049412
 30
0.0
  0
SPLINE
  5
224
100
AcDbEntity
  8
View003
 62
7
100
AcDbSpline
 70
8
 71
3
 72
8
 73
4
 74
0
 40
0
 40
0
 40
0
 40
0
 40
1
 40
1
 40
1
 40
1
 10
243.207196
 20
115.049412
 30
0.0
 10
243.856938
 20
114.674283
 30
0.0
 10
244.657454
 20
114.674283
 30
0.0
 10
245.307196
 20
115.049412
 30
0.0
  0
SPLINE
  5
225
100
AcDbEntity
  8
View003
 62
7
100
AcDbSpline
 70
8
 71
3
 72
8
 73
4
 74
0
 40
0
 40
0
 40
0
 40
0
 40
1
 40
1
 40
1
 40
1
 10
245.307196
 20
115.049412
 30
0.0
 10
245.956938
 20
115.424541
 30
0.0
 10
246.357195
 20
116.117807
 30
0.0
 10
246.357195
 20
116.868065
 30
0.0
  0
LWPOLYLINE
  5
226
100
AcDbEntity
  8
View003
 62
7
100
AcDbPolyline
 90
1
 70
1
 10
246.357195
 20
276.867620
 30
0.0
  0
SPLINE
  5
227
100
AcDbEntity
  8
View003
 62
7
100
AcDbSpline
 70
8
 71
3
 72
8
 73
4
 74
0
 40
0
 40
0
 40
0
 40
0
 40
1
 40
1
 40
1
 40
1
 10
259.357192
 20
116.868065
 30
0.0
 10
259.357192
 20
117.618322
 30
0.0
 10
258.956934
 20
118.311589
 30
0.0
 10
258.307192
 20
118.686718
 30
0.0
  0
SPLINE
  5
228
100
AcDbEntity
  8
View003
 62
7
100
AcDbSpline
 70
8
 71
3
 72
8
 73
4
 74
0
 40
0
 40
0
 40
0
 40
0
 40
1
 40
1
 40
1
 40
1
 10
258.307192
 20
118.686718
 30
0.0
 10
257.657450
 20
119.061847
 30
0.0
 10
256.856934
 20
119.061847
 30
0.0
 10
256.207192
 20
118.686718
 30
0.0
  0
SPLINE
  5
229
100
AcDbEntity
  8
View003
 62
7
100
AcDbSpline
 70
8
 71
3
 72
8
 73
4
 74
0
 40
0
 40
0
 40
0
 40
0
 40
1
 40
1
 40
1
 40
1
 10
256.207192
 20
118.686718
 30
0.0
 10
255.557450
 20
118.311589
 30
0.0
 10
255.157192
 20
117.618322
 30
0.0
 10
255.157192
 20
116.868065
 30
0.0
  0
SPLINE
  5
22a
100
AcDbEntity
  8
View003
 62
7
100
AcDbSpline
 70
8
 71
3
 72
8
 73
4
 74
0
 40
0
 40
0
 40
0
 40
0
 40
1
 40
1
 40
1
 40
1
 10
255.157192
 20
116.868065
 30
0.0
 10
255.157192
 20
116.117807
 30
0.0
 10
255.557450
 20
115.424540
 30
0.0
 10
256.207192
 20
115.049411
 30
0.0
  0
SPLINE
  5
22b
100
AcDbEntity
  8
View003
 62
7
100
AcDbSpline
 70
8
 71
3
 72
8
 73
4
 74
0
 40
0
 40
0
 40
0
 40
0
 40
1
 40
1
 40
1
 40
1
 10
256.207192
 20
115.049411
 30
0.0
 10
256.856934
 20
114.674282
 30
0.0
 10
257.657450
 20
114.674282
 30
0.0
 10
258.307192
 20
115.049411
 30
0.0
  0
SPLINE
  5
22c
100
AcDbEntity
  8
View003
 62
7
100
AcDbSpline
 70
8
 71
3
 72
8
 73
4
 74
0
 40
0
 40
0
 40
0
 40
0
 40
1
 40
1
 40
1
 40
1
 10
258.307192
 20
115.049411
 30
0.0
 10
258.956934
 20
115.424540
 30
0.0
 10
259.357192
 20
116.117807
 30
0.0
 10
259.357192
 20
116.868065
 30
0.0
  0
LWPOLYLINE
  5
22d
100
AcDbEntity
  8
View003
 62
7
100
AcDbPolyline
 90
1
 70
1
 10
246.357195
 20
116.868065
 30
0.0
  0
SPLINE
  5
22e
100
AcDbEntity
  8
View003
 62
7
100
AcDbSpline
 70
8
 71
3
 72
8
 73
4
 74
0
 40
0
 40
0
 40
0
 40
0
 40
1
 40
1
 40
1
 40
1
 10
428.257003
 20
197.867845
 30
0.0
 10
427.852541
 20
197.867845
 30
0.0
 10
427.487905
 20
197.624203
 30
0.0
 10
427.333124
 20
197.250528
 30
0.0
  0
SPLINE
  5
22f
100
AcDbEntity
  8
View003
 62
7
100
AcDbSpline
 70
8
 71
3
 72
8
 73
4
 74
0
 40
0
 40
0
 40
0
 40
0
 40
1
 40
1
 40
1
 40
1
 10
427.333124
 20
197.250528
 30
0.0
 10
427.178343
 20
196.876854
 30
0.0
 10
427.263899
 20
196.446736
 30
0.0
 10
427.549897
 20
196.160739
 30
0.0
  0
SPLINE
  5
230
100
AcDbEntity
  8
View003
 62
7
100
AcDbSpline
 70
8
 71
3
 72
8
 73
4
 74
0
 40
0
 40
0
 40
0
 40
0
 40
1
 40
1
 40
1
 40
1
 10
427.549897
 20
196.160739
 30
0.0
 10
427.835895
 20
195.874741
 30
0.0
 10
428.266012
 20
195.789185
 30
0.0
 10
428.639686
 20
195.943966
 30
0.0
  0
SPLINE
  5
231
100
AcDbEntity
  8
View003
 62
7
100
AcDbSpline
 70
8
 71
3
 72
8
 73
4
 74
0
 40
0
 40
0
 40
0
 40
0
 40
1
 40
1
 40
1
 40
1
 10
428.639686
 20
195.943966
 30
0.0
 10
429.013361
 20
196.098747
 30
0.0
 10
429.257003
 20
196.463383
 30
0.0
 10
429.257003
 20
196.867845
 30
0.0
  0
SPLINE
  5
232
100
AcDbEntity
  8
View003
 62
7
100
AcDbSpline
 70
8
 71
3
 72
8
 73
4
 74
0
 40
0
 40
0
 40
0
 40
0
 40
1
 40
1
 40
1
 40
1
 10
429.257003
 20
196.867845
 30
0.0
 10
429.257003
 20
197.420130
 30
0.0
 10
428.809288
 20
197.867845
 30
0.0
 10
428.257003
 20
197.867845
 30
0.0
  0
LWPOLYLINE
  5
233
100
AcDbEntity
  8
View003
 62
7
100
AcDbPolyline
 90
1
 70
1
 10
259.357192
 20
116.868065
 30
0.0
  0
LWPOLYLINE
  5
234
100
AcDbEntity
  8
View003
 62
7
100
AcDbPolyline
 90
1
 70
1
 10
428.257003
 20
197.867845
 30
0.0
  0
ENDSEC
  0
SECTION
  2
OBJECTS
  0
DICTIONARY
  5
C
330
0
100
AcDbDictionary
  3
ACAD_GROUP
350
D
  3
ACAD_MLINESTYLE
350
17
  0
DICTIONARY
  5
D
330
C
100
AcDbDictionary
  0
DICTIONARY
  5
1A
330
C
100
AcDbDictionary
  0
DICTIONARY
  5
17
330
C
100
AcDbDictionary
  3
STANDARD
350
18
  0
DICTIONARY
  5
19
330
C
100
AcDbDictionary
  0
ENDSEC
  0
EOF
